solid Hydra - pointerFinger-1 actuator-1
   facet normal -9.715234e-001 -5.071535e-016 2.369436e-001
      outer loop
         vertex 5.988286e+001 8.956123e+001 1.005888e+002
         vertex 5.974100e+001 8.960080e+001 1.000071e+002
         vertex 5.982035e+001 8.556994e+001 1.003325e+002
      endloop
   endfacet
   facet normal -9.715234e-001 -5.071535e-016 2.369436e-001
      outer loop
         vertex 5.982035e+001 8.556994e+001 1.003325e+002
         vertex 5.974100e+001 8.960080e+001 1.000071e+002
         vertex 5.967849e+001 8.560951e+001 9.975083e+001
      endloop
   endfacet
   facet normal -9.715234e-001 -5.071535e-016 2.369436e-001
      outer loop
         vertex 8.992786e+001 7.937144e+001 2.237802e+002
         vertex 8.992886e+001 7.917513e+001 2.237843e+002
         vertex 9.047661e+001 8.102669e+001 2.260302e+002
      endloop
   endfacet
   facet normal -9.715234e-001 -5.071535e-016 2.369436e-001
      outer loop
         vertex 9.047661e+001 8.102669e+001 2.260302e+002
         vertex 8.992886e+001 7.917513e+001 2.237843e+002
         vertex 9.041410e+001 7.703540e+001 2.257739e+002
      endloop
   endfacet
   facet normal -9.715234e-001 -5.071535e-016 2.369436e-001
      outer loop
         vertex 9.041410e+001 7.703540e+001 2.257739e+002
         vertex 8.992886e+001 7.917513e+001 2.237843e+002
         vertex 8.992176e+001 7.898106e+001 2.237552e+002
      endloop
   endfacet
   facet normal -9.715234e-001 -5.071535e-016 2.369436e-001
      outer loop
         vertex 9.041410e+001 7.703540e+001 2.257739e+002
         vertex 8.992176e+001 7.898106e+001 2.237552e+002
         vertex 8.990678e+001 7.879516e+001 2.236937e+002
      endloop
   endfacet
   facet normal -9.715234e-001 -5.071535e-016 2.369436e-001
      outer loop
         vertex 8.987787e+001 7.991503e+001 2.235752e+002
         vertex 8.990198e+001 7.974710e+001 2.236741e+002
         vertex 9.047661e+001 8.102669e+001 2.260302e+002
      endloop
   endfacet
   facet normal -9.715234e-001 -5.071535e-016 2.369436e-001
      outer loop
         vertex 9.047661e+001 8.102669e+001 2.260302e+002
         vertex 8.990198e+001 7.974710e+001 2.236741e+002
         vertex 8.991882e+001 7.956405e+001 2.237431e+002
      endloop
   endfacet
   facet normal -9.715234e-001 -5.071535e-016 2.369436e-001
      outer loop
         vertex 9.047661e+001 8.102669e+001 2.260302e+002
         vertex 8.991882e+001 7.956405e+001 2.237431e+002
         vertex 8.992786e+001 7.937144e+001 2.237802e+002
      endloop
   endfacet
   facet normal -9.715234e-001 -5.071535e-016 2.369436e-001
      outer loop
         vertex 6.082857e+001 8.929742e+001 1.044664e+002
         vertex 8.939718e+001 7.912740e+001 2.216043e+002
         vertex 8.939619e+001 7.932372e+001 2.216002e+002
      endloop
   endfacet
   facet normal -9.715234e-001 -5.071535e-016 2.369436e-001
      outer loop
         vertex 8.972610e+001 8.034349e+001 2.229530e+002
         vertex 8.977016e+001 8.028027e+001 2.231336e+002
         vertex 9.047661e+001 8.102669e+001 2.260302e+002
      endloop
   endfacet
   facet normal -9.715234e-001 -5.071535e-016 2.369436e-001
      outer loop
         vertex 6.076606e+001 8.530612e+001 1.042101e+002
         vertex 8.942307e+001 7.875174e+001 2.217104e+002
         vertex 6.082857e+001 8.929742e+001 1.044664e+002
      endloop
   endfacet
   facet normal -9.715234e-001 -5.071535e-016 2.369436e-001
      outer loop
         vertex 6.082857e+001 8.929742e+001 1.044664e+002
         vertex 8.942307e+001 7.875174e+001 2.217104e+002
         vertex 8.940623e+001 7.893480e+001 2.216414e+002
      endloop
   endfacet
   facet normal -9.715234e-001 -5.071535e-016 2.369436e-001
      outer loop
         vertex 6.082857e+001 8.929742e+001 1.044664e+002
         vertex 8.940623e+001 7.893480e+001 2.216414e+002
         vertex 8.939718e+001 7.912740e+001 2.216043e+002
      endloop
   endfacet
   facet normal -9.715234e-001 -5.071535e-016 2.369436e-001
      outer loop
         vertex 8.939619e+001 7.932372e+001 2.216002e+002
         vertex 8.940329e+001 7.951778e+001 2.216293e+002
         vertex 6.082857e+001 8.929742e+001 1.044664e+002
      endloop
   endfacet
   facet normal -9.715234e-001 -5.071535e-016 2.369436e-001
      outer loop
         vertex 6.082857e+001 8.929742e+001 1.044664e+002
         vertex 8.940329e+001 7.951778e+001 2.216293e+002
         vertex 8.941827e+001 7.970369e+001 2.216908e+002
      endloop
   endfacet
   facet normal -9.715234e-001 -5.071535e-016 2.369436e-001
      outer loop
         vertex 6.082857e+001 8.929742e+001 1.044664e+002
         vertex 8.941827e+001 7.970369e+001 2.216908e+002
         vertex 8.944067e+001 7.987579e+001 2.217826e+002
      endloop
   endfacet
   facet normal -9.715234e-001 -5.071535e-016 2.369436e-001
      outer loop
         vertex 8.977016e+001 8.028027e+001 2.231336e+002
         vertex 8.981094e+001 8.018573e+001 2.233008e+002
         vertex 9.047661e+001 8.102669e+001 2.260302e+002
      endloop
   endfacet
   facet normal -9.715234e-001 -5.071535e-016 2.369436e-001
      outer loop
         vertex 9.047661e+001 8.102669e+001 2.260302e+002
         vertex 8.981094e+001 8.018573e+001 2.233008e+002
         vertex 8.984721e+001 8.006274e+001 2.234495e+002
      endloop
   endfacet
   facet normal -9.715234e-001 -5.071535e-016 2.369436e-001
      outer loop
         vertex 9.047661e+001 8.102669e+001 2.260302e+002
         vertex 8.984721e+001 8.006274e+001 2.234495e+002
         vertex 8.987787e+001 7.991503e+001 2.235752e+002
      endloop
   endfacet
   facet normal -9.715234e-001 -5.071535e-016 2.369436e-001
      outer loop
         vertex 8.990678e+001 7.879516e+001 2.236937e+002
         vertex 8.988437e+001 7.862305e+001 2.236019e+002
         vertex 9.041410e+001 7.703540e+001 2.257739e+002
      endloop
   endfacet
   facet normal -9.715234e-001 -5.071535e-016 2.369436e-001
      outer loop
         vertex 9.041410e+001 7.703540e+001 2.257739e+002
         vertex 8.988437e+001 7.862305e+001 2.236019e+002
         vertex 8.985523e+001 7.846999e+001 2.234824e+002
      endloop
   endfacet
   facet normal -9.715234e-001 -5.071535e-016 2.369436e-001
      outer loop
         vertex 9.041410e+001 7.703540e+001 2.257739e+002
         vertex 8.985523e+001 7.846999e+001 2.234824e+002
         vertex 8.982024e+001 7.834060e+001 2.233389e+002
      endloop
   endfacet
   facet normal -9.715234e-001 -5.071535e-016 2.369436e-001
      outer loop
         vertex 8.951411e+001 7.831312e+001 2.220837e+002
         vertex 8.947784e+001 7.843611e+001 2.219350e+002
         vertex 6.076606e+001 8.530612e+001 1.042101e+002
      endloop
   endfacet
   facet normal -9.715234e-001 -5.071535e-016 2.369436e-001
      outer loop
         vertex 6.076606e+001 8.530612e+001 1.042101e+002
         vertex 8.947784e+001 7.843611e+001 2.219350e+002
         vertex 8.944718e+001 7.858382e+001 2.218093e+002
      endloop
   endfacet
   facet normal -9.715234e-001 -5.071535e-016 2.369436e-001
      outer loop
         vertex 6.076606e+001 8.530612e+001 1.042101e+002
         vertex 8.944718e+001 7.858382e+001 2.218093e+002
         vertex 8.942307e+001 7.875174e+001 2.217104e+002
      endloop
   endfacet
   facet normal -9.715234e-001 -5.071535e-016 2.369436e-001
      outer loop
         vertex 8.944067e+001 7.987579e+001 2.217826e+002
         vertex 8.946981e+001 8.002886e+001 2.219021e+002
         vertex 6.082857e+001 8.929742e+001 1.044664e+002
      endloop
   endfacet
   facet normal -9.715234e-001 -5.071535e-016 2.369436e-001
      outer loop
         vertex 6.082857e+001 8.929742e+001 1.044664e+002
         vertex 8.946981e+001 8.002886e+001 2.219021e+002
         vertex 8.950481e+001 8.015825e+001 2.220456e+002
      endloop
   endfacet
   facet normal -9.715234e-001 -5.071535e-016 2.369436e-001
      outer loop
         vertex 6.082857e+001 8.929742e+001 1.044664e+002
         vertex 8.950481e+001 8.015825e+001 2.220456e+002
         vertex 8.954460e+001 8.026003e+001 2.222087e+002
      endloop
   endfacet
   facet normal -9.715234e-001 -5.071535e-016 2.369436e-001
      outer loop
         vertex 8.954460e+001 8.026003e+001 2.222087e+002
         vertex 8.958797e+001 8.033109e+001 2.223866e+002
         vertex 6.082857e+001 8.929742e+001 1.044664e+002
      endloop
   endfacet
   facet normal -9.715234e-001 -5.071535e-016 2.369436e-001
      outer loop
         vertex 6.082857e+001 8.929742e+001 1.044664e+002
         vertex 8.958797e+001 8.033109e+001 2.223866e+002
         vertex 8.963361e+001 8.036929e+001 2.225737e+002
      endloop
   endfacet
   facet normal -9.715234e-001 -5.071535e-016 2.369436e-001
      outer loop
         vertex 6.082857e+001 8.929742e+001 1.044664e+002
         vertex 8.963361e+001 8.036929e+001 2.225737e+002
         vertex 9.047661e+001 8.102669e+001 2.260302e+002
      endloop
   endfacet
   facet normal -9.715234e-001 -5.071535e-016 2.369436e-001
      outer loop
         vertex 9.047661e+001 8.102669e+001 2.260302e+002
         vertex 8.963361e+001 8.036929e+001 2.225737e+002
         vertex 8.968013e+001 8.037347e+001 2.227644e+002
      endloop
   endfacet
   facet normal -9.715234e-001 -5.071535e-016 2.369436e-001
      outer loop
         vertex 9.047661e+001 8.102669e+001 2.260302e+002
         vertex 8.968013e+001 8.037347e+001 2.227644e+002
         vertex 8.972610e+001 8.034349e+001 2.229530e+002
      endloop
   endfacet
   facet normal -9.715234e-001 -5.071535e-016 2.369436e-001
      outer loop
         vertex 8.982024e+001 7.834060e+001 2.233389e+002
         vertex 8.978044e+001 7.823882e+001 2.231758e+002
         vertex 9.041410e+001 7.703540e+001 2.257739e+002
      endloop
   endfacet
   facet normal -9.715234e-001 -5.071535e-016 2.369436e-001
      outer loop
         vertex 9.041410e+001 7.703540e+001 2.257739e+002
         vertex 8.978044e+001 7.823882e+001 2.231758e+002
         vertex 8.973708e+001 7.816776e+001 2.229979e+002
      endloop
   endfacet
   facet normal -9.715234e-001 -5.071535e-016 2.369436e-001
      outer loop
         vertex 9.041410e+001 7.703540e+001 2.257739e+002
         vertex 8.973708e+001 7.816776e+001 2.229979e+002
         vertex 8.969143e+001 7.812955e+001 2.228108e+002
      endloop
   endfacet
   facet normal -9.715234e-001 -5.071535e-016 2.369436e-001
      outer loop
         vertex 8.969143e+001 7.812955e+001 2.228108e+002
         vertex 8.964491e+001 7.812538e+001 2.226201e+002
         vertex 9.041410e+001 7.703540e+001 2.257739e+002
      endloop
   endfacet
   facet normal -9.715234e-001 -5.071535e-016 2.369436e-001
      outer loop
         vertex 9.041410e+001 7.703540e+001 2.257739e+002
         vertex 8.964491e+001 7.812538e+001 2.226201e+002
         vertex 8.959894e+001 7.815536e+001 2.224315e+002
      endloop
   endfacet
   facet normal -9.715234e-001 -5.071535e-016 2.369436e-001
      outer loop
         vertex 9.041410e+001 7.703540e+001 2.257739e+002
         vertex 8.959894e+001 7.815536e+001 2.224315e+002
         vertex 6.076606e+001 8.530612e+001 1.042101e+002
      endloop
   endfacet
   facet normal -9.715234e-001 -5.071535e-016 2.369436e-001
      outer loop
         vertex 6.076606e+001 8.530612e+001 1.042101e+002
         vertex 8.959894e+001 7.815536e+001 2.224315e+002
         vertex 8.955489e+001 7.821858e+001 2.222509e+002
      endloop
   endfacet
   facet normal -9.715234e-001 -5.071535e-016 2.369436e-001
      outer loop
         vertex 6.076606e+001 8.530612e+001 1.042101e+002
         vertex 8.955489e+001 7.821858e+001 2.222509e+002
         vertex 8.951411e+001 7.831312e+001 2.220837e+002
      endloop
   endfacet
   facet normal 9.715234e-001 5.071535e-016 -2.369436e-001
      outer loop
         vertex 6.356458e+001 8.560951e+001 9.880305e+001
         vertex 6.362709e+001 8.960080e+001 9.905936e+001
         vertex 6.370644e+001 8.556994e+001 9.938470e+001
      endloop
   endfacet
   facet normal 9.715234e-001 5.071535e-016 -2.369436e-001
      outer loop
         vertex 6.370644e+001 8.556994e+001 9.938470e+001
         vertex 6.362709e+001 8.960080e+001 9.905936e+001
         vertex 6.376895e+001 8.956123e+001 9.964101e+001
      endloop
   endfacet
   facet normal 9.715234e-001 5.071535e-016 -2.369436e-001
      outer loop
         vertex 9.394662e+001 7.933443e+001 2.233764e+002
         vertex 9.393756e+001 7.952705e+001 2.233392e+002
         vertex 9.436270e+001 8.102669e+001 2.250824e+002
      endloop
   endfacet
   facet normal 9.715234e-001 5.071535e-016 -2.369436e-001
      outer loop
         vertex 9.345942e+001 7.983878e+001 2.213787e+002
         vertex 9.343702e+001 7.966668e+001 2.212869e+002
         vertex 6.471466e+001 8.929742e+001 1.035186e+002
      endloop
   endfacet
   facet normal 9.715234e-001 5.071535e-016 -2.369436e-001
      outer loop
         vertex 9.343702e+001 7.966668e+001 2.212869e+002
         vertex 9.342204e+001 7.948077e+001 2.212255e+002
         vertex 6.471466e+001 8.929742e+001 1.035186e+002
      endloop
   endfacet
   facet normal 9.715234e-001 5.071535e-016 -2.369436e-001
      outer loop
         vertex 6.471466e+001 8.929742e+001 1.035186e+002
         vertex 9.342204e+001 7.948077e+001 2.212255e+002
         vertex 9.341493e+001 7.928672e+001 2.211963e+002
      endloop
   endfacet
   facet normal 9.715234e-001 5.071535e-016 -2.369436e-001
      outer loop
         vertex 6.471466e+001 8.929742e+001 1.035186e+002
         vertex 9.341493e+001 7.928672e+001 2.211963e+002
         vertex 6.465215e+001 8.530612e+001 1.032623e+002
      endloop
   endfacet
   facet normal 9.715234e-001 5.071535e-016 -2.369436e-001
      outer loop
         vertex 6.465215e+001 8.530612e+001 1.032623e+002
         vertex 9.341493e+001 7.928672e+001 2.211963e+002
         vertex 9.341592e+001 7.909040e+001 2.212004e+002
      endloop
   endfacet
   facet normal 9.715234e-001 5.071535e-016 -2.369436e-001
      outer loop
         vertex 6.465215e+001 8.530612e+001 1.032623e+002
         vertex 9.341592e+001 7.909040e+001 2.212004e+002
         vertex 9.342497e+001 7.889779e+001 2.212375e+002
      endloop
   endfacet
   facet normal 9.715234e-001 5.071535e-016 -2.369436e-001
      outer loop
         vertex 9.430019e+001 7.703540e+001 2.248261e+002
         vertex 9.394051e+001 7.894405e+001 2.233513e+002
         vertex 9.436270e+001 8.102669e+001 2.250824e+002
      endloop
   endfacet
   facet normal 9.715234e-001 5.071535e-016 -2.369436e-001
      outer loop
         vertex 9.436270e+001 8.102669e+001 2.250824e+002
         vertex 9.394051e+001 7.894405e+001 2.233513e+002
         vertex 9.394760e+001 7.913812e+001 2.233804e+002
      endloop
   endfacet
   facet normal 9.715234e-001 5.071535e-016 -2.369436e-001
      outer loop
         vertex 9.436270e+001 8.102669e+001 2.250824e+002
         vertex 9.394760e+001 7.913812e+001 2.233804e+002
         vertex 9.394662e+001 7.933443e+001 2.233764e+002
      endloop
   endfacet
   facet normal 9.715234e-001 5.071535e-016 -2.369436e-001
      outer loop
         vertex 9.393756e+001 7.952705e+001 2.233392e+002
         vertex 9.392072e+001 7.971010e+001 2.232702e+002
         vertex 9.436270e+001 8.102669e+001 2.250824e+002
      endloop
   endfacet
   facet normal 9.715234e-001 5.071535e-016 -2.369436e-001
      outer loop
         vertex 9.436270e+001 8.102669e+001 2.250824e+002
         vertex 9.392072e+001 7.971010e+001 2.232702e+002
         vertex 9.389661e+001 7.987802e+001 2.231713e+002
      endloop
   endfacet
   facet normal 9.715234e-001 5.071535e-016 -2.369436e-001
      outer loop
         vertex 9.436270e+001 8.102669e+001 2.250824e+002
         vertex 9.389661e+001 7.987802e+001 2.231713e+002
         vertex 9.386595e+001 8.002573e+001 2.230456e+002
      endloop
   endfacet
   facet normal 9.715234e-001 5.071535e-016 -2.369436e-001
      outer loop
         vertex 9.387398e+001 7.843298e+001 2.230785e+002
         vertex 9.390311e+001 7.858605e+001 2.231980e+002
         vertex 9.430019e+001 7.703540e+001 2.248261e+002
      endloop
   endfacet
   facet normal 9.715234e-001 5.071535e-016 -2.369436e-001
      outer loop
         vertex 9.430019e+001 7.703540e+001 2.248261e+002
         vertex 9.390311e+001 7.858605e+001 2.231980e+002
         vertex 9.392552e+001 7.875816e+001 2.232899e+002
      endloop
   endfacet
   facet normal 9.715234e-001 5.071535e-016 -2.369436e-001
      outer loop
         vertex 9.430019e+001 7.703540e+001 2.248261e+002
         vertex 9.392552e+001 7.875816e+001 2.232899e+002
         vertex 9.394051e+001 7.894405e+001 2.233513e+002
      endloop
   endfacet
   facet normal 9.715234e-001 5.071535e-016 -2.369436e-001
      outer loop
         vertex 9.342497e+001 7.889779e+001 2.212375e+002
         vertex 9.344181e+001 7.871474e+001 2.213065e+002
         vertex 6.465215e+001 8.530612e+001 1.032623e+002
      endloop
   endfacet
   facet normal 9.715234e-001 5.071535e-016 -2.369436e-001
      outer loop
         vertex 6.465215e+001 8.530612e+001 1.032623e+002
         vertex 9.344181e+001 7.871474e+001 2.213065e+002
         vertex 9.346593e+001 7.854681e+001 2.214054e+002
      endloop
   endfacet
   facet normal 9.715234e-001 5.071535e-016 -2.369436e-001
      outer loop
         vertex 6.465215e+001 8.530612e+001 1.032623e+002
         vertex 9.346593e+001 7.854681e+001 2.214054e+002
         vertex 9.349658e+001 7.839911e+001 2.215311e+002
      endloop
   endfacet
   facet normal 9.715234e-001 5.071535e-016 -2.369436e-001
      outer loop
         vertex 9.356335e+001 8.022302e+001 2.218049e+002
         vertex 9.352355e+001 8.012125e+001 2.216417e+002
         vertex 6.471466e+001 8.929742e+001 1.035186e+002
      endloop
   endfacet
   facet normal 9.715234e-001 5.071535e-016 -2.369436e-001
      outer loop
         vertex 6.471466e+001 8.929742e+001 1.035186e+002
         vertex 9.352355e+001 8.012125e+001 2.216417e+002
         vertex 9.348856e+001 7.999185e+001 2.214982e+002
      endloop
   endfacet
   facet normal 9.715234e-001 5.071535e-016 -2.369436e-001
      outer loop
         vertex 6.471466e+001 8.929742e+001 1.035186e+002
         vertex 9.348856e+001 7.999185e+001 2.214982e+002
         vertex 9.345942e+001 7.983878e+001 2.213787e+002
      endloop
   endfacet
   facet normal 9.715234e-001 5.071535e-016 -2.369436e-001
      outer loop
         vertex 9.349658e+001 7.839911e+001 2.215311e+002
         vertex 9.353285e+001 7.827612e+001 2.216799e+002
         vertex 6.465215e+001 8.530612e+001 1.032623e+002
      endloop
   endfacet
   facet normal 9.715234e-001 5.071535e-016 -2.369436e-001
      outer loop
         vertex 6.465215e+001 8.530612e+001 1.032623e+002
         vertex 9.353285e+001 7.827612e+001 2.216799e+002
         vertex 9.357364e+001 7.818157e+001 2.218470e+002
      endloop
   endfacet
   facet normal 9.715234e-001 5.071535e-016 -2.369436e-001
      outer loop
         vertex 6.465215e+001 8.530612e+001 1.032623e+002
         vertex 9.357364e+001 7.818157e+001 2.218470e+002
         vertex 9.430019e+001 7.703540e+001 2.248261e+002
      endloop
   endfacet
   facet normal 9.715234e-001 5.071535e-016 -2.369436e-001
      outer loop
         vertex 9.430019e+001 7.703540e+001 2.248261e+002
         vertex 9.357364e+001 7.818157e+001 2.218470e+002
         vertex 9.361768e+001 7.811835e+001 2.220277e+002
      endloop
   endfacet
   facet normal 9.715234e-001 5.071535e-016 -2.369436e-001
      outer loop
         vertex 9.361768e+001 7.811835e+001 2.220277e+002
         vertex 9.366367e+001 7.808837e+001 2.222162e+002
         vertex 9.430019e+001 7.703540e+001 2.248261e+002
      endloop
   endfacet
   facet normal 9.715234e-001 5.071535e-016 -2.369436e-001
      outer loop
         vertex 9.430019e+001 7.703540e+001 2.248261e+002
         vertex 9.366367e+001 7.808837e+001 2.222162e+002
         vertex 9.371017e+001 7.809254e+001 2.224069e+002
      endloop
   endfacet
   facet normal 9.715234e-001 5.071535e-016 -2.369436e-001
      outer loop
         vertex 9.430019e+001 7.703540e+001 2.248261e+002
         vertex 9.371017e+001 7.809254e+001 2.224069e+002
         vertex 9.375582e+001 7.813075e+001 2.225941e+002
      endloop
   endfacet
   facet normal 9.715234e-001 5.071535e-016 -2.369436e-001
      outer loop
         vertex 9.375582e+001 7.813075e+001 2.225941e+002
         vertex 9.379919e+001 7.820181e+001 2.227719e+002
         vertex 9.430019e+001 7.703540e+001 2.248261e+002
      endloop
   endfacet
   facet normal 9.715234e-001 5.071535e-016 -2.369436e-001
      outer loop
         vertex 9.430019e+001 7.703540e+001 2.248261e+002
         vertex 9.379919e+001 7.820181e+001 2.227719e+002
         vertex 9.383898e+001 7.830359e+001 2.229350e+002
      endloop
   endfacet
   facet normal 9.715234e-001 5.071535e-016 -2.369436e-001
      outer loop
         vertex 9.430019e+001 7.703540e+001 2.248261e+002
         vertex 9.383898e+001 7.830359e+001 2.229350e+002
         vertex 9.387398e+001 7.843298e+001 2.230785e+002
      endloop
   endfacet
   facet normal 9.715234e-001 5.071535e-016 -2.369436e-001
      outer loop
         vertex 9.386595e+001 8.002573e+001 2.230456e+002
         vertex 9.382968e+001 8.014872e+001 2.228969e+002
         vertex 9.436270e+001 8.102669e+001 2.250824e+002
      endloop
   endfacet
   facet normal 9.715234e-001 5.071535e-016 -2.369436e-001
      outer loop
         vertex 9.436270e+001 8.102669e+001 2.250824e+002
         vertex 9.382968e+001 8.014872e+001 2.228969e+002
         vertex 9.378891e+001 8.024327e+001 2.227297e+002
      endloop
   endfacet
   facet normal 9.715234e-001 5.071535e-016 -2.369436e-001
      outer loop
         vertex 9.436270e+001 8.102669e+001 2.250824e+002
         vertex 9.378891e+001 8.024327e+001 2.227297e+002
         vertex 9.374485e+001 8.030649e+001 2.225491e+002
      endloop
   endfacet
   facet normal 9.715234e-001 5.071535e-016 -2.369436e-001
      outer loop
         vertex 9.374485e+001 8.030649e+001 2.225491e+002
         vertex 9.369888e+001 8.033646e+001 2.223605e+002
         vertex 9.436270e+001 8.102669e+001 2.250824e+002
      endloop
   endfacet
   facet normal 9.715234e-001 5.071535e-016 -2.369436e-001
      outer loop
         vertex 9.436270e+001 8.102669e+001 2.250824e+002
         vertex 9.369888e+001 8.033646e+001 2.223605e+002
         vertex 9.365236e+001 8.033229e+001 2.221698e+002
      endloop
   endfacet
   facet normal 9.715234e-001 5.071535e-016 -2.369436e-001
      outer loop
         vertex 9.436270e+001 8.102669e+001 2.250824e+002
         vertex 9.365236e+001 8.033229e+001 2.221698e+002
         vertex 6.471466e+001 8.929742e+001 1.035186e+002
      endloop
   endfacet
   facet normal 9.715234e-001 5.071535e-016 -2.369436e-001
      outer loop
         vertex 6.471466e+001 8.929742e+001 1.035186e+002
         vertex 9.365236e+001 8.033229e+001 2.221698e+002
         vertex 9.360672e+001 8.029409e+001 2.219827e+002
      endloop
   endfacet
   facet normal 9.715234e-001 5.071535e-016 -2.369436e-001
      outer loop
         vertex 6.471466e+001 8.929742e+001 1.035186e+002
         vertex 9.360672e+001 8.029409e+001 2.219827e+002
         vertex 9.356335e+001 8.022302e+001 2.218049e+002
      endloop
   endfacet
   facet normal -2.364277e-001 6.595472e-002 -9.694080e-001
      outer loop
         vertex 5.967849e+001 8.560951e+001 9.975083e+001
         vertex 5.974100e+001 8.960080e+001 1.000071e+002
         vertex 6.356458e+001 8.560951e+001 9.880305e+001
      endloop
   endfacet
   facet normal -2.364277e-001 6.595472e-002 -9.694080e-001
      outer loop
         vertex 6.356458e+001 8.560951e+001 9.880305e+001
         vertex 5.974100e+001 8.960080e+001 1.000071e+002
         vertex 6.362709e+001 8.960080e+001 9.905936e+001
      endloop
   endfacet
   facet normal -1.562755e-002 -9.978226e-001 -6.407655e-002
      outer loop
         vertex 5.967849e+001 8.560951e+001 9.975083e+001
         vertex 6.356458e+001 8.560951e+001 9.880305e+001
         vertex 5.982035e+001 8.556994e+001 1.003325e+002
      endloop
   endfacet
   facet normal -1.562755e-002 -9.978226e-001 -6.407655e-002
      outer loop
         vertex 5.982035e+001 8.556994e+001 1.003325e+002
         vertex 6.356458e+001 8.560951e+001 9.880305e+001
         vertex 6.370644e+001 8.556994e+001 9.938470e+001
      endloop
   endfacet
   facet normal -1.562755e-002 -9.978226e-001 -6.407655e-002
      outer loop
         vertex 9.430019e+001 7.703540e+001 2.248261e+002
         vertex 9.041410e+001 7.703540e+001 2.257739e+002
         vertex 6.465215e+001 8.530612e+001 1.032623e+002
      endloop
   endfacet
   facet normal -1.562755e-002 -9.978226e-001 -6.407655e-002
      outer loop
         vertex 6.465215e+001 8.530612e+001 1.032623e+002
         vertex 9.041410e+001 7.703540e+001 2.257739e+002
         vertex 6.076606e+001 8.530612e+001 1.042101e+002
      endloop
   endfacet
   facet normal -1.562755e-002 -9.978226e-001 -6.407655e-002
      outer loop
         vertex 5.639420e+001 8.530612e+001 1.052764e+002
         vertex 5.544849e+001 8.556994e+001 1.013987e+002
         vertex 6.076606e+001 8.530612e+001 1.042101e+002
      endloop
   endfacet
   facet normal -1.562755e-002 -9.978226e-001 -6.407655e-002
      outer loop
         vertex 6.076606e+001 8.530612e+001 1.042101e+002
         vertex 5.544849e+001 8.556994e+001 1.013987e+002
         vertex 5.982035e+001 8.556994e+001 1.003325e+002
      endloop
   endfacet
   facet normal -1.562755e-002 -9.978226e-001 -6.407655e-002
      outer loop
         vertex 6.076606e+001 8.530612e+001 1.042101e+002
         vertex 5.982035e+001 8.556994e+001 1.003325e+002
         vertex 6.465215e+001 8.530612e+001 1.032623e+002
      endloop
   endfacet
   facet normal -1.562755e-002 -9.978226e-001 -6.407655e-002
      outer loop
         vertex 6.465215e+001 8.530612e+001 1.032623e+002
         vertex 5.982035e+001 8.556994e+001 1.003325e+002
         vertex 6.370644e+001 8.556994e+001 9.938470e+001
      endloop
   endfacet
   facet normal -1.562755e-002 -9.978226e-001 -6.407655e-002
      outer loop
         vertex 6.465215e+001 8.530612e+001 1.032623e+002
         vertex 6.370644e+001 8.556994e+001 9.938470e+001
         vertex 6.902400e+001 8.530612e+001 1.021961e+002
      endloop
   endfacet
   facet normal -1.562755e-002 -9.978226e-001 -6.407655e-002
      outer loop
         vertex 6.902400e+001 8.530612e+001 1.021961e+002
         vertex 6.370644e+001 8.556994e+001 9.938470e+001
         vertex 6.807829e+001 8.556994e+001 9.831845e+001
      endloop
   endfacet
   facet normal 2.364277e-001 -6.595472e-002 9.694080e-001
      outer loop
         vertex 9.047661e+001 8.102669e+001 2.260302e+002
         vertex 9.041410e+001 7.703540e+001 2.257739e+002
         vertex 9.436270e+001 8.102669e+001 2.250824e+002
      endloop
   endfacet
   facet normal 2.364277e-001 -6.595472e-002 9.694080e-001
      outer loop
         vertex 9.436270e+001 8.102669e+001 2.250824e+002
         vertex 9.041410e+001 7.703540e+001 2.257739e+002
         vertex 9.430019e+001 7.703540e+001 2.248261e+002
      endloop
   endfacet
   facet normal 1.562755e-002 9.978226e-001 6.407655e-002
      outer loop
         vertex 9.047661e+001 8.102669e+001 2.260302e+002
         vertex 9.436270e+001 8.102669e+001 2.250824e+002
         vertex 6.082857e+001 8.929742e+001 1.044664e+002
      endloop
   endfacet
   facet normal 1.562755e-002 9.978226e-001 6.407655e-002
      outer loop
         vertex 6.082857e+001 8.929742e+001 1.044664e+002
         vertex 9.436270e+001 8.102669e+001 2.250824e+002
         vertex 6.471466e+001 8.929742e+001 1.035186e+002
      endloop
   endfacet
   facet normal 1.562755e-002 9.978226e-001 6.407655e-002
      outer loop
         vertex 6.362709e+001 8.960080e+001 9.905936e+001
         vertex 5.974100e+001 8.960080e+001 1.000071e+002
         vertex 6.376895e+001 8.956123e+001 9.964101e+001
      endloop
   endfacet
   facet normal 1.562755e-002 9.978226e-001 6.407655e-002
      outer loop
         vertex 6.376895e+001 8.956123e+001 9.964101e+001
         vertex 5.974100e+001 8.960080e+001 1.000071e+002
         vertex 5.988286e+001 8.956123e+001 1.005888e+002
      endloop
   endfacet
   facet normal 1.562755e-002 9.978226e-001 6.407655e-002
      outer loop
         vertex 5.551100e+001 8.956123e+001 1.016550e+002
         vertex 5.645671e+001 8.929742e+001 1.055327e+002
         vertex 5.988286e+001 8.956123e+001 1.005888e+002
      endloop
   endfacet
   facet normal 1.562755e-002 9.978226e-001 6.407655e-002
      outer loop
         vertex 5.988286e+001 8.956123e+001 1.005888e+002
         vertex 5.645671e+001 8.929742e+001 1.055327e+002
         vertex 6.082857e+001 8.929742e+001 1.044664e+002
      endloop
   endfacet
   facet normal 1.562755e-002 9.978226e-001 6.407655e-002
      outer loop
         vertex 5.988286e+001 8.956123e+001 1.005888e+002
         vertex 6.082857e+001 8.929742e+001 1.044664e+002
         vertex 6.376895e+001 8.956123e+001 9.964101e+001
      endloop
   endfacet
   facet normal 1.562755e-002 9.978226e-001 6.407655e-002
      outer loop
         vertex 6.376895e+001 8.956123e+001 9.964101e+001
         vertex 6.082857e+001 8.929742e+001 1.044664e+002
         vertex 6.471466e+001 8.929742e+001 1.035186e+002
      endloop
   endfacet
   facet normal 1.562755e-002 9.978226e-001 6.407655e-002
      outer loop
         vertex 6.376895e+001 8.956123e+001 9.964101e+001
         vertex 6.471466e+001 8.929742e+001 1.035186e+002
         vertex 6.814081e+001 8.956123e+001 9.857476e+001
      endloop
   endfacet
   facet normal 1.562755e-002 9.978226e-001 6.407655e-002
      outer loop
         vertex 6.814081e+001 8.956123e+001 9.857476e+001
         vertex 6.471466e+001 8.929742e+001 1.035186e+002
         vertex 6.908652e+001 8.929742e+001 1.024524e+002
      endloop
   endfacet
   facet normal 9.715234e-001 5.071535e-016 -2.369436e-001
      outer loop
         vertex 6.832330e+001 8.731452e+001 9.932304e+001
         vertex 6.833215e+001 8.712645e+001 9.935928e+001
         vertex 6.807829e+001 8.556994e+001 9.831845e+001
      endloop
   endfacet
   facet normal 9.715234e-001 5.071535e-016 -2.369436e-001
      outer loop
         vertex 6.807829e+001 8.556994e+001 9.831845e+001
         vertex 6.833215e+001 8.712645e+001 9.935928e+001
         vertex 6.834859e+001 8.694770e+001 9.942670e+001
      endloop
   endfacet
   facet normal 9.715234e-001 5.071535e-016 -2.369436e-001
      outer loop
         vertex 6.807829e+001 8.556994e+001 9.831845e+001
         vertex 6.834859e+001 8.694770e+001 9.942670e+001
         vertex 6.837213e+001 8.678372e+001 9.952325e+001
      endloop
   endfacet
   facet normal 9.715234e-001 5.071535e-016 -2.369436e-001
      outer loop
         vertex 6.882092e+001 8.699010e+001 1.013634e+002
         vertex 6.902400e+001 8.530612e+001 1.021961e+002
         vertex 6.879904e+001 8.682204e+001 1.012737e+002
      endloop
   endfacet
   facet normal 9.715234e-001 5.071535e-016 -2.369436e-001
      outer loop
         vertex 6.879904e+001 8.682204e+001 1.012737e+002
         vertex 6.902400e+001 8.530612e+001 1.021961e+002
         vertex 6.877058e+001 8.667258e+001 1.011570e+002
      endloop
   endfacet
   facet normal 9.715234e-001 5.071535e-016 -2.369436e-001
      outer loop
         vertex 6.908652e+001 8.929742e+001 1.024524e+002
         vertex 6.883267e+001 8.774091e+001 1.014116e+002
         vertex 6.881623e+001 8.791965e+001 1.013441e+002
      endloop
   endfacet
   facet normal 9.715234e-001 5.071535e-016 -2.369436e-001
      outer loop
         vertex 6.814081e+001 8.956123e+001 9.857476e+001
         vertex 6.832928e+001 8.769572e+001 9.934751e+001
         vertex 6.807829e+001 8.556994e+001 9.831845e+001
      endloop
   endfacet
   facet normal 9.715234e-001 5.071535e-016 -2.369436e-001
      outer loop
         vertex 6.807829e+001 8.556994e+001 9.831845e+001
         vertex 6.832928e+001 8.769572e+001 9.934751e+001
         vertex 6.832234e+001 8.750623e+001 9.931907e+001
      endloop
   endfacet
   facet normal 9.715234e-001 5.071535e-016 -2.369436e-001
      outer loop
         vertex 6.807829e+001 8.556994e+001 9.831845e+001
         vertex 6.832234e+001 8.750623e+001 9.931907e+001
         vertex 6.832330e+001 8.731452e+001 9.932304e+001
      endloop
   endfacet
   facet normal 9.715234e-001 5.071535e-016 -2.369436e-001
      outer loop
         vertex 6.882092e+001 8.699010e+001 1.013634e+002
         vertex 6.883554e+001 8.717163e+001 1.014233e+002
         vertex 6.902400e+001 8.530612e+001 1.021961e+002
      endloop
   endfacet
   facet normal 9.715234e-001 5.071535e-016 -2.369436e-001
      outer loop
         vertex 6.902400e+001 8.530612e+001 1.021961e+002
         vertex 6.883554e+001 8.717163e+001 1.014233e+002
         vertex 6.884248e+001 8.736113e+001 1.014518e+002
      endloop
   endfacet
   facet normal 9.715234e-001 5.071535e-016 -2.369436e-001
      outer loop
         vertex 6.902400e+001 8.530612e+001 1.021961e+002
         vertex 6.884248e+001 8.736113e+001 1.014518e+002
         vertex 6.908652e+001 8.929742e+001 1.024524e+002
      endloop
   endfacet
   facet normal 9.715234e-001 5.071535e-016 -2.369436e-001
      outer loop
         vertex 6.908652e+001 8.929742e+001 1.024524e+002
         vertex 6.884248e+001 8.736113e+001 1.014518e+002
         vertex 6.884151e+001 8.755283e+001 1.014478e+002
      endloop
   endfacet
   facet normal 9.715234e-001 5.071535e-016 -2.369436e-001
      outer loop
         vertex 6.908652e+001 8.929742e+001 1.024524e+002
         vertex 6.884151e+001 8.755283e+001 1.014478e+002
         vertex 6.883267e+001 8.774091e+001 1.014116e+002
      endloop
   endfacet
   facet normal 9.715234e-001 5.071535e-016 -2.369436e-001
      outer loop
         vertex 6.839423e+001 8.819478e+001 9.961386e+001
         vertex 6.836578e+001 8.804530e+001 9.949718e+001
         vertex 6.814081e+001 8.956123e+001 9.857476e+001
      endloop
   endfacet
   facet normal 9.715234e-001 5.071535e-016 -2.369436e-001
      outer loop
         vertex 6.814081e+001 8.956123e+001 9.857476e+001
         vertex 6.836578e+001 8.804530e+001 9.949718e+001
         vertex 6.834390e+001 8.787725e+001 9.940749e+001
      endloop
   endfacet
   facet normal 9.715234e-001 5.071535e-016 -2.369436e-001
      outer loop
         vertex 6.814081e+001 8.956123e+001 9.857476e+001
         vertex 6.834390e+001 8.787725e+001 9.940749e+001
         vertex 6.832928e+001 8.769572e+001 9.934751e+001
      endloop
   endfacet
   facet normal 9.715234e-001 5.071535e-016 -2.369436e-001
      outer loop
         vertex 6.837213e+001 8.678372e+001 9.952325e+001
         vertex 6.840207e+001 8.663950e+001 9.964600e+001
         vertex 6.807829e+001 8.556994e+001 9.831845e+001
      endloop
   endfacet
   facet normal 9.715234e-001 5.071535e-016 -2.369436e-001
      outer loop
         vertex 6.807829e+001 8.556994e+001 9.831845e+001
         vertex 6.840207e+001 8.663950e+001 9.964600e+001
         vertex 6.843748e+001 8.651940e+001 9.979121e+001
      endloop
   endfacet
   facet normal 9.715234e-001 5.071535e-016 -2.369436e-001
      outer loop
         vertex 6.807829e+001 8.556994e+001 9.831845e+001
         vertex 6.843748e+001 8.651940e+001 9.979121e+001
         vertex 6.847730e+001 8.642708e+001 9.995447e+001
      endloop
   endfacet
   facet normal 9.715234e-001 5.071535e-016 -2.369436e-001
      outer loop
         vertex 6.847730e+001 8.642708e+001 9.995447e+001
         vertex 6.852032e+001 8.636534e+001 1.001308e+002
         vertex 6.807829e+001 8.556994e+001 9.831845e+001
      endloop
   endfacet
   facet normal 9.715234e-001 5.071535e-016 -2.369436e-001
      outer loop
         vertex 6.807829e+001 8.556994e+001 9.831845e+001
         vertex 6.852032e+001 8.636534e+001 1.001308e+002
         vertex 6.856522e+001 8.633607e+001 1.003149e+002
      endloop
   endfacet
   facet normal 9.715234e-001 5.071535e-016 -2.369436e-001
      outer loop
         vertex 6.807829e+001 8.556994e+001 9.831845e+001
         vertex 6.856522e+001 8.633607e+001 1.003149e+002
         vertex 6.902400e+001 8.530612e+001 1.021961e+002
      endloop
   endfacet
   facet normal 9.715234e-001 5.071535e-016 -2.369436e-001
      outer loop
         vertex 6.902400e+001 8.530612e+001 1.021961e+002
         vertex 6.856522e+001 8.633607e+001 1.003149e+002
         vertex 6.861064e+001 8.634014e+001 1.005012e+002
      endloop
   endfacet
   facet normal 9.715234e-001 5.071535e-016 -2.369436e-001
      outer loop
         vertex 6.902400e+001 8.530612e+001 1.021961e+002
         vertex 6.861064e+001 8.634014e+001 1.005012e+002
         vertex 6.865520e+001 8.637745e+001 1.006839e+002
      endloop
   endfacet
   facet normal 9.715234e-001 5.071535e-016 -2.369436e-001
      outer loop
         vertex 6.865520e+001 8.637745e+001 1.006839e+002
         vertex 6.869756e+001 8.644685e+001 1.008576e+002
         vertex 6.902400e+001 8.530612e+001 1.021961e+002
      endloop
   endfacet
   facet normal 9.715234e-001 5.071535e-016 -2.369436e-001
      outer loop
         vertex 6.902400e+001 8.530612e+001 1.021961e+002
         vertex 6.869756e+001 8.644685e+001 1.008576e+002
         vertex 6.873641e+001 8.654623e+001 1.010169e+002
      endloop
   endfacet
   facet normal 9.715234e-001 5.071535e-016 -2.369436e-001
      outer loop
         vertex 6.902400e+001 8.530612e+001 1.021961e+002
         vertex 6.873641e+001 8.654623e+001 1.010169e+002
         vertex 6.877058e+001 8.667258e+001 1.011570e+002
      endloop
   endfacet
   facet normal 9.715234e-001 5.071535e-016 -2.369436e-001
      outer loop
         vertex 6.881623e+001 8.791965e+001 1.013441e+002
         vertex 6.879269e+001 8.808363e+001 1.012476e+002
         vertex 6.908652e+001 8.929742e+001 1.024524e+002
      endloop
   endfacet
   facet normal 9.715234e-001 5.071535e-016 -2.369436e-001
      outer loop
         vertex 6.908652e+001 8.929742e+001 1.024524e+002
         vertex 6.879269e+001 8.808363e+001 1.012476e+002
         vertex 6.876275e+001 8.822785e+001 1.011249e+002
      endloop
   endfacet
   facet normal 9.715234e-001 5.071535e-016 -2.369436e-001
      outer loop
         vertex 6.908652e+001 8.929742e+001 1.024524e+002
         vertex 6.876275e+001 8.822785e+001 1.011249e+002
         vertex 6.872733e+001 8.834795e+001 1.009796e+002
      endloop
   endfacet
   facet normal 9.715234e-001 5.071535e-016 -2.369436e-001
      outer loop
         vertex 6.908652e+001 8.929742e+001 1.024524e+002
         vertex 6.859959e+001 8.853128e+001 1.004559e+002
         vertex 6.814081e+001 8.956123e+001 9.857476e+001
      endloop
   endfacet
   facet normal 9.715234e-001 5.071535e-016 -2.369436e-001
      outer loop
         vertex 6.814081e+001 8.956123e+001 9.857476e+001
         vertex 6.859959e+001 8.853128e+001 1.004559e+002
         vertex 6.855418e+001 8.852721e+001 1.002697e+002
      endloop
   endfacet
   facet normal 9.715234e-001 5.071535e-016 -2.369436e-001
      outer loop
         vertex 6.814081e+001 8.956123e+001 9.857476e+001
         vertex 6.855418e+001 8.852721e+001 1.002697e+002
         vertex 6.850961e+001 8.848990e+001 1.000869e+002
      endloop
   endfacet
   facet normal 9.715234e-001 5.071535e-016 -2.369436e-001
      outer loop
         vertex 6.872733e+001 8.834795e+001 1.009796e+002
         vertex 6.868752e+001 8.844027e+001 1.008164e+002
         vertex 6.908652e+001 8.929742e+001 1.024524e+002
      endloop
   endfacet
   facet normal 9.715234e-001 5.071535e-016 -2.369436e-001
      outer loop
         vertex 6.908652e+001 8.929742e+001 1.024524e+002
         vertex 6.868752e+001 8.844027e+001 1.008164e+002
         vertex 6.864449e+001 8.850201e+001 1.006400e+002
      endloop
   endfacet
   facet normal 9.715234e-001 5.071535e-016 -2.369436e-001
      outer loop
         vertex 6.908652e+001 8.929742e+001 1.024524e+002
         vertex 6.864449e+001 8.850201e+001 1.006400e+002
         vertex 6.859959e+001 8.853128e+001 1.004559e+002
      endloop
   endfacet
   facet normal 9.715234e-001 5.071535e-016 -2.369436e-001
      outer loop
         vertex 6.850961e+001 8.848990e+001 1.000869e+002
         vertex 6.846726e+001 8.842050e+001 9.991328e+001
         vertex 6.814081e+001 8.956123e+001 9.857476e+001
      endloop
   endfacet
   facet normal 9.715234e-001 5.071535e-016 -2.369436e-001
      outer loop
         vertex 6.814081e+001 8.956123e+001 9.857476e+001
         vertex 6.846726e+001 8.842050e+001 9.991328e+001
         vertex 6.842841e+001 8.832112e+001 9.975398e+001
      endloop
   endfacet
   facet normal 9.715234e-001 5.071535e-016 -2.369436e-001
      outer loop
         vertex 6.814081e+001 8.956123e+001 9.857476e+001
         vertex 6.842841e+001 8.832112e+001 9.975398e+001
         vertex 6.839423e+001 8.819478e+001 9.961386e+001
      endloop
   endfacet
   facet normal 2.364277e-001 -6.595472e-002 9.694080e-001
      outer loop
         vertex 6.465215e+001 8.530612e+001 1.032623e+002
         vertex 6.902400e+001 8.530612e+001 1.021961e+002
         vertex 6.471466e+001 8.929742e+001 1.035186e+002
      endloop
   endfacet
   facet normal 2.364277e-001 -6.595472e-002 9.694080e-001
      outer loop
         vertex 6.471466e+001 8.929742e+001 1.035186e+002
         vertex 6.902400e+001 8.530612e+001 1.021961e+002
         vertex 6.908652e+001 8.929742e+001 1.024524e+002
      endloop
   endfacet
   facet normal -2.364277e-001 6.595472e-002 -9.694080e-001
      outer loop
         vertex 6.376895e+001 8.956123e+001 9.964101e+001
         vertex 6.814081e+001 8.956123e+001 9.857476e+001
         vertex 6.370644e+001 8.556994e+001 9.938470e+001
      endloop
   endfacet
   facet normal -2.364277e-001 6.595472e-002 -9.694080e-001
      outer loop
         vertex 6.370644e+001 8.556994e+001 9.938470e+001
         vertex 6.814081e+001 8.956123e+001 9.857476e+001
         vertex 6.807829e+001 8.556994e+001 9.831845e+001
      endloop
   endfacet
   facet normal -2.364277e-001 6.595472e-002 -9.694080e-001
      outer loop
         vertex 5.544849e+001 8.556994e+001 1.013987e+002
         vertex 5.551100e+001 8.956123e+001 1.016550e+002
         vertex 5.982035e+001 8.556994e+001 1.003325e+002
      endloop
   endfacet
   facet normal -2.364277e-001 6.595472e-002 -9.694080e-001
      outer loop
         vertex 5.982035e+001 8.556994e+001 1.003325e+002
         vertex 5.551100e+001 8.956123e+001 1.016550e+002
         vertex 5.988286e+001 8.956123e+001 1.005888e+002
      endloop
   endfacet
   facet normal 2.364277e-001 -6.595472e-002 9.694080e-001
      outer loop
         vertex 5.645671e+001 8.929742e+001 1.055327e+002
         vertex 5.639420e+001 8.530612e+001 1.052764e+002
         vertex 6.082857e+001 8.929742e+001 1.044664e+002
      endloop
   endfacet
   facet normal 2.364277e-001 -6.595472e-002 9.694080e-001
      outer loop
         vertex 6.082857e+001 8.929742e+001 1.044664e+002
         vertex 5.639420e+001 8.530612e+001 1.052764e+002
         vertex 6.076606e+001 8.530612e+001 1.042101e+002
      endloop
   endfacet
   facet normal -9.715234e-001 -5.071535e-016 2.369436e-001
      outer loop
         vertex 5.621171e+001 8.755283e+001 1.045281e+002
         vertex 5.621267e+001 8.736113e+001 1.045320e+002
         vertex 5.645671e+001 8.929742e+001 1.055327e+002
      endloop
   endfacet
   facet normal -9.715234e-001 -5.071535e-016 2.369436e-001
      outer loop
         vertex 5.645671e+001 8.929742e+001 1.055327e+002
         vertex 5.621267e+001 8.736113e+001 1.045320e+002
         vertex 5.639420e+001 8.530612e+001 1.052764e+002
      endloop
   endfacet
   facet normal -9.715234e-001 -5.071535e-016 2.369436e-001
      outer loop
         vertex 5.577226e+001 8.663950e+001 1.027263e+002
         vertex 5.574233e+001 8.678372e+001 1.026035e+002
         vertex 5.544849e+001 8.556994e+001 1.013987e+002
      endloop
   endfacet
   facet normal -9.715234e-001 -5.071535e-016 2.369436e-001
      outer loop
         vertex 5.544849e+001 8.556994e+001 1.013987e+002
         vertex 5.574233e+001 8.678372e+001 1.026035e+002
         vertex 5.571878e+001 8.694770e+001 1.025070e+002
      endloop
   endfacet
   facet normal -9.715234e-001 -5.071535e-016 2.369436e-001
      outer loop
         vertex 5.544849e+001 8.556994e+001 1.013987e+002
         vertex 5.571878e+001 8.694770e+001 1.025070e+002
         vertex 5.570234e+001 8.712645e+001 1.024395e+002
      endloop
   endfacet
   facet normal -9.715234e-001 -5.071535e-016 2.369436e-001
      outer loop
         vertex 5.621267e+001 8.736113e+001 1.045320e+002
         vertex 5.620574e+001 8.717163e+001 1.045036e+002
         vertex 5.639420e+001 8.530612e+001 1.052764e+002
      endloop
   endfacet
   facet normal -9.715234e-001 -5.071535e-016 2.369436e-001
      outer loop
         vertex 5.639420e+001 8.530612e+001 1.052764e+002
         vertex 5.620574e+001 8.717163e+001 1.045036e+002
         vertex 5.619111e+001 8.699010e+001 1.044436e+002
      endloop
   endfacet
   facet normal -9.715234e-001 -5.071535e-016 2.369436e-001
      outer loop
         vertex 5.639420e+001 8.530612e+001 1.052764e+002
         vertex 5.619111e+001 8.699010e+001 1.044436e+002
         vertex 5.616924e+001 8.682204e+001 1.043539e+002
      endloop
   endfacet
   facet normal -9.715234e-001 -5.071535e-016 2.369436e-001
      outer loop
         vertex 5.616288e+001 8.808363e+001 1.043279e+002
         vertex 5.618643e+001 8.791965e+001 1.044244e+002
         vertex 5.645671e+001 8.929742e+001 1.055327e+002
      endloop
   endfacet
   facet normal -9.715234e-001 -5.071535e-016 2.369436e-001
      outer loop
         vertex 5.645671e+001 8.929742e+001 1.055327e+002
         vertex 5.618643e+001 8.791965e+001 1.044244e+002
         vertex 5.620287e+001 8.774091e+001 1.044918e+002
      endloop
   endfacet
   facet normal -9.715234e-001 -5.071535e-016 2.369436e-001
      outer loop
         vertex 5.645671e+001 8.929742e+001 1.055327e+002
         vertex 5.620287e+001 8.774091e+001 1.044918e+002
         vertex 5.621171e+001 8.755283e+001 1.045281e+002
      endloop
   endfacet
   facet normal -9.715234e-001 -5.071535e-016 2.369436e-001
      outer loop
         vertex 5.576443e+001 8.819478e+001 1.026941e+002
         vertex 5.551100e+001 8.956123e+001 1.016550e+002
         vertex 5.573597e+001 8.804530e+001 1.025774e+002
      endloop
   endfacet
   facet normal -9.715234e-001 -5.071535e-016 2.369436e-001
      outer loop
         vertex 5.573597e+001 8.804530e+001 1.025774e+002
         vertex 5.551100e+001 8.956123e+001 1.016550e+002
         vertex 5.571410e+001 8.787725e+001 1.024878e+002
      endloop
   endfacet
   facet normal -9.715234e-001 -5.071535e-016 2.369436e-001
      outer loop
         vertex 5.616924e+001 8.682204e+001 1.043539e+002
         vertex 5.614078e+001 8.667258e+001 1.042373e+002
         vertex 5.639420e+001 8.530612e+001 1.052764e+002
      endloop
   endfacet
   facet normal -9.715234e-001 -5.071535e-016 2.369436e-001
      outer loop
         vertex 5.639420e+001 8.530612e+001 1.052764e+002
         vertex 5.614078e+001 8.667258e+001 1.042373e+002
         vertex 5.610661e+001 8.654623e+001 1.040971e+002
      endloop
   endfacet
   facet normal -9.715234e-001 -5.071535e-016 2.369436e-001
      outer loop
         vertex 5.639420e+001 8.530612e+001 1.052764e+002
         vertex 5.610661e+001 8.654623e+001 1.040971e+002
         vertex 5.606775e+001 8.644685e+001 1.039378e+002
      endloop
   endfacet
   facet normal -9.715234e-001 -5.071535e-016 2.369436e-001
      outer loop
         vertex 5.589051e+001 8.636534e+001 1.032111e+002
         vertex 5.544849e+001 8.556994e+001 1.013987e+002
         vertex 5.593541e+001 8.633607e+001 1.033952e+002
      endloop
   endfacet
   facet normal -9.715234e-001 -5.071535e-016 2.369436e-001
      outer loop
         vertex 5.593541e+001 8.633607e+001 1.033952e+002
         vertex 5.544849e+001 8.556994e+001 1.013987e+002
         vertex 5.639420e+001 8.530612e+001 1.052764e+002
      endloop
   endfacet
   facet normal -9.715234e-001 -5.071535e-016 2.369436e-001
      outer loop
         vertex 5.589051e+001 8.636534e+001 1.032111e+002
         vertex 5.584750e+001 8.642708e+001 1.030347e+002
         vertex 5.544849e+001 8.556994e+001 1.013987e+002
      endloop
   endfacet
   facet normal -9.715234e-001 -5.071535e-016 2.369436e-001
      outer loop
         vertex 5.544849e+001 8.556994e+001 1.013987e+002
         vertex 5.584750e+001 8.642708e+001 1.030347e+002
         vertex 5.580768e+001 8.651940e+001 1.028715e+002
      endloop
   endfacet
   facet normal -9.715234e-001 -5.071535e-016 2.369436e-001
      outer loop
         vertex 5.544849e+001 8.556994e+001 1.013987e+002
         vertex 5.580768e+001 8.651940e+001 1.028715e+002
         vertex 5.577226e+001 8.663950e+001 1.027263e+002
      endloop
   endfacet
   facet normal -9.715234e-001 -5.071535e-016 2.369436e-001
      outer loop
         vertex 5.570234e+001 8.712645e+001 1.024395e+002
         vertex 5.569350e+001 8.731452e+001 1.024033e+002
         vertex 5.544849e+001 8.556994e+001 1.013987e+002
      endloop
   endfacet
   facet normal -9.715234e-001 -5.071535e-016 2.369436e-001
      outer loop
         vertex 5.544849e+001 8.556994e+001 1.013987e+002
         vertex 5.569350e+001 8.731452e+001 1.024033e+002
         vertex 5.569253e+001 8.750623e+001 1.023993e+002
      endloop
   endfacet
   facet normal -9.715234e-001 -5.071535e-016 2.369436e-001
      outer loop
         vertex 5.544849e+001 8.556994e+001 1.013987e+002
         vertex 5.569253e+001 8.750623e+001 1.023993e+002
         vertex 5.551100e+001 8.956123e+001 1.016550e+002
      endloop
   endfacet
   facet normal -9.715234e-001 -5.071535e-016 2.369436e-001
      outer loop
         vertex 5.551100e+001 8.956123e+001 1.016550e+002
         vertex 5.569253e+001 8.750623e+001 1.023993e+002
         vertex 5.569947e+001 8.769572e+001 1.024278e+002
      endloop
   endfacet
   facet normal -9.715234e-001 -5.071535e-016 2.369436e-001
      outer loop
         vertex 5.551100e+001 8.956123e+001 1.016550e+002
         vertex 5.569947e+001 8.769572e+001 1.024278e+002
         vertex 5.571410e+001 8.787725e+001 1.024878e+002
      endloop
   endfacet
   facet normal -9.715234e-001 -5.071535e-016 2.369436e-001
      outer loop
         vertex 5.606775e+001 8.644685e+001 1.039378e+002
         vertex 5.602540e+001 8.637745e+001 1.037642e+002
         vertex 5.639420e+001 8.530612e+001 1.052764e+002
      endloop
   endfacet
   facet normal -9.715234e-001 -5.071535e-016 2.369436e-001
      outer loop
         vertex 5.639420e+001 8.530612e+001 1.052764e+002
         vertex 5.602540e+001 8.637745e+001 1.037642e+002
         vertex 5.598083e+001 8.634014e+001 1.035814e+002
      endloop
   endfacet
   facet normal -9.715234e-001 -5.071535e-016 2.369436e-001
      outer loop
         vertex 5.639420e+001 8.530612e+001 1.052764e+002
         vertex 5.598083e+001 8.634014e+001 1.035814e+002
         vertex 5.593541e+001 8.633607e+001 1.033952e+002
      endloop
   endfacet
   facet normal -9.715234e-001 -5.071535e-016 2.369436e-001
      outer loop
         vertex 5.605770e+001 8.844027e+001 1.038966e+002
         vertex 5.609753e+001 8.834795e+001 1.040599e+002
         vertex 5.645671e+001 8.929742e+001 1.055327e+002
      endloop
   endfacet
   facet normal -9.715234e-001 -5.071535e-016 2.369436e-001
      outer loop
         vertex 5.645671e+001 8.929742e+001 1.055327e+002
         vertex 5.609753e+001 8.834795e+001 1.040599e+002
         vertex 5.613294e+001 8.822785e+001 1.042051e+002
      endloop
   endfacet
   facet normal -9.715234e-001 -5.071535e-016 2.369436e-001
      outer loop
         vertex 5.645671e+001 8.929742e+001 1.055327e+002
         vertex 5.613294e+001 8.822785e+001 1.042051e+002
         vertex 5.616288e+001 8.808363e+001 1.043279e+002
      endloop
   endfacet
   facet normal -9.715234e-001 -5.071535e-016 2.369436e-001
      outer loop
         vertex 5.576443e+001 8.819478e+001 1.026941e+002
         vertex 5.579860e+001 8.832112e+001 1.028342e+002
         vertex 5.551100e+001 8.956123e+001 1.016550e+002
      endloop
   endfacet
   facet normal -9.715234e-001 -5.071535e-016 2.369436e-001
      outer loop
         vertex 5.551100e+001 8.956123e+001 1.016550e+002
         vertex 5.579860e+001 8.832112e+001 1.028342e+002
         vertex 5.583746e+001 8.842050e+001 1.029936e+002
      endloop
   endfacet
   facet normal -9.715234e-001 -5.071535e-016 2.369436e-001
      outer loop
         vertex 5.551100e+001 8.956123e+001 1.016550e+002
         vertex 5.583746e+001 8.842050e+001 1.029936e+002
         vertex 5.587981e+001 8.848990e+001 1.031672e+002
      endloop
   endfacet
   facet normal -9.715234e-001 -5.071535e-016 2.369436e-001
      outer loop
         vertex 5.587981e+001 8.848990e+001 1.031672e+002
         vertex 5.592437e+001 8.852721e+001 1.033499e+002
         vertex 5.551100e+001 8.956123e+001 1.016550e+002
      endloop
   endfacet
   facet normal -9.715234e-001 -5.071535e-016 2.369436e-001
      outer loop
         vertex 5.551100e+001 8.956123e+001 1.016550e+002
         vertex 5.592437e+001 8.852721e+001 1.033499e+002
         vertex 5.596980e+001 8.853128e+001 1.035362e+002
      endloop
   endfacet
   facet normal -9.715234e-001 -5.071535e-016 2.369436e-001
      outer loop
         vertex 5.551100e+001 8.956123e+001 1.016550e+002
         vertex 5.596980e+001 8.853128e+001 1.035362e+002
         vertex 5.645671e+001 8.929742e+001 1.055327e+002
      endloop
   endfacet
   facet normal -9.715234e-001 -5.071535e-016 2.369436e-001
      outer loop
         vertex 5.645671e+001 8.929742e+001 1.055327e+002
         vertex 5.596980e+001 8.853128e+001 1.035362e+002
         vertex 5.601469e+001 8.850201e+001 1.037203e+002
      endloop
   endfacet
   facet normal -9.715234e-001 -5.071535e-016 2.369436e-001
      outer loop
         vertex 5.645671e+001 8.929742e+001 1.055327e+002
         vertex 5.601469e+001 8.850201e+001 1.037203e+002
         vertex 5.605770e+001 8.844027e+001 1.038966e+002
      endloop
   endfacet
   facet normal -2.369363e-001 7.890710e-003 -9.714931e-001
      outer loop
         vertex 6.884248e+001 8.736113e+001 1.014518e+002
         vertex 5.621267e+001 8.736113e+001 1.045320e+002
         vertex 6.884151e+001 8.755283e+001 1.014478e+002
      endloop
   endfacet
   facet normal -2.366426e-001 -5.039711e-002 -9.702888e-001
      outer loop
         vertex 6.884151e+001 8.755283e+001 1.014478e+002
         vertex 5.621267e+001 8.736113e+001 1.045320e+002
         vertex 5.621171e+001 8.755283e+001 1.045281e+002
      endloop
   endfacet
   facet normal -2.336613e-001 -1.658720e-001 -9.580652e-001
      outer loop
         vertex 6.884151e+001 8.755283e+001 1.014478e+002
         vertex 5.621171e+001 8.755283e+001 1.045281e+002
         vertex 6.883267e+001 8.774091e+001 1.014116e+002
      endloop
   endfacet
   facet normal -2.309738e-001 -2.230590e-001 -9.470458e-001
      outer loop
         vertex 6.883267e+001 8.774091e+001 1.014116e+002
         vertex 5.621171e+001 8.755283e+001 1.045281e+002
         vertex 5.620287e+001 8.774091e+001 1.044918e+002
      endloop
   endfacet
   facet normal -2.232867e-001 -3.345947e-001 -9.155269e-001
      outer loop
         vertex 6.883267e+001 8.774091e+001 1.014116e+002
         vertex 5.620287e+001 8.774091e+001 1.044918e+002
         vertex 6.881623e+001 8.791965e+001 1.013441e+002
      endloop
   endfacet
   facet normal -2.182871e-001 -3.889433e-001 -8.950273e-001
      outer loop
         vertex 6.881623e+001 8.791965e+001 1.013441e+002
         vertex 5.620287e+001 8.774091e+001 1.044918e+002
         vertex 5.618643e+001 8.791965e+001 1.044244e+002
      endloop
   endfacet
   facet normal -2.061276e-001 -4.931509e-001 -8.451707e-001
      outer loop
         vertex 6.881623e+001 8.791965e+001 1.013441e+002
         vertex 5.618643e+001 8.791965e+001 1.044244e+002
         vertex 6.879269e+001 8.808363e+001 1.012476e+002
      endloop
   endfacet
   facet normal -1.989678e-001 -5.430098e-001 -8.158138e-001
      outer loop
         vertex 6.879269e+001 8.808363e+001 1.012476e+002
         vertex 5.618643e+001 8.791965e+001 1.044244e+002
         vertex 5.616288e+001 8.808363e+001 1.043279e+002
      endloop
   endfacet
   facet normal -1.827055e-001 -6.367230e-001 -7.491345e-001
      outer loop
         vertex 6.879269e+001 8.808363e+001 1.012476e+002
         vertex 5.616288e+001 8.808363e+001 1.043279e+002
         vertex 6.876275e+001 8.822785e+001 1.011249e+002
      endloop
   endfacet
   facet normal -1.736030e-001 -6.805772e-001 -7.118123e-001
      outer loop
         vertex 6.876275e+001 8.822785e+001 1.011249e+002
         vertex 5.616288e+001 8.808363e+001 1.043279e+002
         vertex 5.613294e+001 8.822785e+001 1.042051e+002
      endloop
   endfacet
   facet normal -1.537319e-001 -7.609485e-001 -6.303363e-001
      outer loop
         vertex 6.876275e+001 8.822785e+001 1.011249e+002
         vertex 5.613294e+001 8.822785e+001 1.042051e+002
         vertex 6.872733e+001 8.834795e+001 1.009796e+002
      endloop
   endfacet
   facet normal -1.429634e-001 -7.974656e-001 -5.861827e-001
      outer loop
         vertex 6.872733e+001 8.834795e+001 1.009796e+002
         vertex 5.613294e+001 8.822785e+001 1.042051e+002
         vertex 5.609753e+001 8.834795e+001 1.040599e+002
      endloop
   endfacet
   facet normal -1.200873e-001 -8.620531e-001 -4.923855e-001
      outer loop
         vertex 6.872733e+001 8.834795e+001 1.009796e+002
         vertex 5.609753e+001 8.834795e+001 1.040599e+002
         vertex 6.868752e+001 8.844027e+001 1.008164e+002
      endloop
   endfacet
   facet normal -1.079798e-001 -8.901234e-001 -4.427422e-001
      outer loop
         vertex 6.868752e+001 8.844027e+001 1.008164e+002
         vertex 5.609753e+001 8.834795e+001 1.040599e+002
         vertex 5.605770e+001 8.844027e+001 1.038966e+002
      endloop
   endfacet
   facet normal -8.279388e-002 -9.369646e-001 -3.394739e-001
      outer loop
         vertex 6.868752e+001 8.844027e+001 1.008164e+002
         vertex 5.605770e+001 8.844027e+001 1.038966e+002
         vertex 6.864449e+001 8.850201e+001 1.006400e+002
      endloop
   endfacet
   facet normal -6.971540e-002 -9.557353e-001 -2.858492e-001
      outer loop
         vertex 6.864449e+001 8.850201e+001 1.006400e+002
         vertex 5.605770e+001 8.844027e+001 1.038966e+002
         vertex 5.601469e+001 8.850201e+001 1.037203e+002
      endloop
   endfacet
   facet normal -4.298480e-002 -9.834069e-001 -1.762476e-001
      outer loop
         vertex 6.864449e+001 8.850201e+001 1.006400e+002
         vertex 5.601469e+001 8.850201e+001 1.037203e+002
         vertex 6.859959e+001 8.853128e+001 1.004559e+002
      endloop
   endfacet
   facet normal -2.933269e-002 -9.923077e-001 -1.202708e-001
      outer loop
         vertex 6.859959e+001 8.853128e+001 1.004559e+002
         vertex 5.601469e+001 8.850201e+001 1.037203e+002
         vertex 5.596980e+001 8.853128e+001 1.035362e+002
      endloop
   endfacet
   facet normal -1.869653e-003 -9.999689e-001 -7.666009e-003
      outer loop
         vertex 6.859959e+001 8.853128e+001 1.004559e+002
         vertex 5.596980e+001 8.853128e+001 1.035362e+002
         vertex 6.855418e+001 8.852721e+001 1.002697e+002
      endloop
   endfacet
   facet normal 1.194127e-002 -9.987292e-001 4.896197e-002
      outer loop
         vertex 6.855418e+001 8.852721e+001 1.002697e+002
         vertex 5.596980e+001 8.853128e+001 1.035362e+002
         vertex 5.592437e+001 8.852721e+001 1.033499e+002
      endloop
   endfacet
   facet normal 3.930230e-002 -9.861473e-001 1.611485e-001
      outer loop
         vertex 6.855418e+001 8.852721e+001 1.002697e+002
         vertex 5.592437e+001 8.852721e+001 1.033499e+002
         vertex 6.850961e+001 8.848990e+001 1.000869e+002
      endloop
   endfacet
   facet normal 5.285241e-002 -9.748049e-001 2.167070e-001
      outer loop
         vertex 6.850961e+001 8.848990e+001 1.000869e+002
         vertex 5.592437e+001 8.852721e+001 1.033499e+002
         vertex 5.587981e+001 8.848990e+001 1.031672e+002
      endloop
   endfacet
   facet normal 7.928009e-002 -9.423621e-001 3.250666e-001
      outer loop
         vertex 6.850961e+001 8.848990e+001 1.000869e+002
         vertex 5.587981e+001 8.848990e+001 1.031672e+002
         vertex 6.846726e+001 8.842050e+001 9.991328e+001
      endloop
   endfacet
   facet normal 9.215765e-002 -9.212617e-001 3.778675e-001
      outer loop
         vertex 6.846726e+001 8.842050e+001 9.991328e+001
         vertex 5.587981e+001 8.848990e+001 1.031672e+002
         vertex 5.583746e+001 8.842050e+001 1.029936e+002
      endloop
   endfacet
   facet normal 1.168490e-001 -8.699438e-001 4.791076e-001
      outer loop
         vertex 6.846726e+001 8.842050e+001 9.991328e+001
         vertex 5.583746e+001 8.842050e+001 1.029936e+002
         vertex 6.842841e+001 8.832112e+001 9.975398e+001
      endloop
   endfacet
   facet normal 1.286627e-001 -8.397263e-001 5.275468e-001
      outer loop
         vertex 6.842841e+001 8.832112e+001 9.975398e+001
         vertex 5.583746e+001 8.842050e+001 1.029936e+002
         vertex 5.579860e+001 8.832112e+001 1.028342e+002
      endloop
   endfacet
   facet normal 1.508675e-001 -7.710927e-001 6.185912e-001
      outer loop
         vertex 6.842841e+001 8.832112e+001 9.975398e+001
         vertex 5.579860e+001 8.832112e+001 1.028342e+002
         vertex 6.839423e+001 8.819478e+001 9.961386e+001
      endloop
   endfacet
   facet normal 1.612584e-001 -7.326764e-001 6.611967e-001
      outer loop
         vertex 6.839423e+001 8.819478e+001 9.961386e+001
         vertex 5.579860e+001 8.832112e+001 1.028342e+002
         vertex 5.576443e+001 8.819478e+001 1.026941e+002
      endloop
   endfacet
   facet normal 1.803019e-001 -6.488122e-001 7.392793e-001
      outer loop
         vertex 6.839423e+001 8.819478e+001 9.961386e+001
         vertex 5.576443e+001 8.819478e+001 1.026941e+002
         vertex 6.836578e+001 8.804530e+001 9.949718e+001
      endloop
   endfacet
   facet normal 1.889544e-001 -6.033644e-001 7.747565e-001
      outer loop
         vertex 6.836578e+001 8.804530e+001 9.949718e+001
         vertex 5.576443e+001 8.819478e+001 1.026941e+002
         vertex 5.573597e+001 8.804530e+001 1.025774e+002
      endloop
   endfacet
   facet normal 2.042580e-001 -5.068180e-001 8.375047e-001
      outer loop
         vertex 6.836578e+001 8.804530e+001 9.949718e+001
         vertex 5.573597e+001 8.804530e+001 1.025774e+002
         vertex 6.834390e+001 8.787725e+001 9.940749e+001
      endloop
   endfacet
   facet normal 2.109091e-001 -4.557195e-001 8.647757e-001
      outer loop
         vertex 6.834390e+001 8.787725e+001 9.940749e+001
         vertex 5.573597e+001 8.804530e+001 1.025774e+002
         vertex 5.571410e+001 8.787725e+001 1.024878e+002
      endloop
   endfacet
   facet normal 2.220078e-001 -3.494244e-001 9.102830e-001
      outer loop
         vertex 6.834390e+001 8.787725e+001 9.940749e+001
         vertex 5.571410e+001 8.787725e+001 1.024878e+002
         vertex 6.832928e+001 8.769572e+001 9.934751e+001
      endloop
   endfacet
   facet normal 2.264554e-001 -2.942277e-001 9.285192e-001
      outer loop
         vertex 6.832928e+001 8.769572e+001 9.934751e+001
         vertex 5.571410e+001 8.787725e+001 1.024878e+002
         vertex 5.569947e+001 8.769572e+001 1.024278e+002
      endloop
   endfacet
   facet normal 2.330120e-001 -1.814136e-001 9.554028e-001
      outer loop
         vertex 6.832928e+001 8.769572e+001 9.934751e+001
         vertex 5.569947e+001 8.769572e+001 1.024278e+002
         vertex 6.832234e+001 8.750623e+001 9.931907e+001
      endloop
   endfacet
   facet normal 2.351210e-001 -1.237961e-001 9.640501e-001
      outer loop
         vertex 6.832234e+001 8.750623e+001 9.931907e+001
         vertex 5.569947e+001 8.769572e+001 1.024278e+002
         vertex 5.569253e+001 8.750623e+001 1.023993e+002
      endloop
   endfacet
   facet normal 2.369363e-001 -7.890710e-003 9.714931e-001
      outer loop
         vertex 6.832234e+001 8.750623e+001 9.931907e+001
         vertex 5.569253e+001 8.750623e+001 1.023993e+002
         vertex 6.832330e+001 8.731452e+001 9.932304e+001
      endloop
   endfacet
   facet normal 2.366426e-001 5.039711e-002 9.702888e-001
      outer loop
         vertex 6.832330e+001 8.731452e+001 9.932304e+001
         vertex 5.569253e+001 8.750623e+001 1.023993e+002
         vertex 5.569350e+001 8.731452e+001 1.024033e+002
      endloop
   endfacet
   facet normal 2.336613e-001 1.658720e-001 9.580652e-001
      outer loop
         vertex 6.832330e+001 8.731452e+001 9.932304e+001
         vertex 5.569350e+001 8.731452e+001 1.024033e+002
         vertex 6.833215e+001 8.712645e+001 9.935928e+001
      endloop
   endfacet
   facet normal 2.309738e-001 2.230590e-001 9.470458e-001
      outer loop
         vertex 6.833215e+001 8.712645e+001 9.935928e+001
         vertex 5.569350e+001 8.731452e+001 1.024033e+002
         vertex 5.570234e+001 8.712645e+001 1.024395e+002
      endloop
   endfacet
   facet normal 2.232867e-001 3.345947e-001 9.155269e-001
      outer loop
         vertex 6.833215e+001 8.712645e+001 9.935928e+001
         vertex 5.570234e+001 8.712645e+001 1.024395e+002
         vertex 6.834859e+001 8.694770e+001 9.942670e+001
      endloop
   endfacet
   facet normal 2.182871e-001 3.889433e-001 8.950273e-001
      outer loop
         vertex 6.834859e+001 8.694770e+001 9.942670e+001
         vertex 5.570234e+001 8.712645e+001 1.024395e+002
         vertex 5.571878e+001 8.694770e+001 1.025070e+002
      endloop
   endfacet
   facet normal 2.061276e-001 4.931509e-001 8.451707e-001
      outer loop
         vertex 6.834859e+001 8.694770e+001 9.942670e+001
         vertex 5.571878e+001 8.694770e+001 1.025070e+002
         vertex 6.837213e+001 8.678372e+001 9.952325e+001
      endloop
   endfacet
   facet normal 1.989678e-001 5.430098e-001 8.158138e-001
      outer loop
         vertex 6.837213e+001 8.678372e+001 9.952325e+001
         vertex 5.571878e+001 8.694770e+001 1.025070e+002
         vertex 5.574233e+001 8.678372e+001 1.026035e+002
      endloop
   endfacet
   facet normal 1.827055e-001 6.367230e-001 7.491345e-001
      outer loop
         vertex 6.837213e+001 8.678372e+001 9.952325e+001
         vertex 5.574233e+001 8.678372e+001 1.026035e+002
         vertex 6.840207e+001 8.663950e+001 9.964600e+001
      endloop
   endfacet
   facet normal 1.736030e-001 6.805772e-001 7.118123e-001
      outer loop
         vertex 6.840207e+001 8.663950e+001 9.964600e+001
         vertex 5.574233e+001 8.678372e+001 1.026035e+002
         vertex 5.577226e+001 8.663950e+001 1.027263e+002
      endloop
   endfacet
   facet normal 1.537319e-001 7.609485e-001 6.303363e-001
      outer loop
         vertex 6.840207e+001 8.663950e+001 9.964600e+001
         vertex 5.577226e+001 8.663950e+001 1.027263e+002
         vertex 6.843748e+001 8.651940e+001 9.979121e+001
      endloop
   endfacet
   facet normal 1.429634e-001 7.974656e-001 5.861827e-001
      outer loop
         vertex 6.843748e+001 8.651940e+001 9.979121e+001
         vertex 5.577226e+001 8.663950e+001 1.027263e+002
         vertex 5.580768e+001 8.651940e+001 1.028715e+002
      endloop
   endfacet
   facet normal 1.200873e-001 8.620531e-001 4.923855e-001
      outer loop
         vertex 6.843748e+001 8.651940e+001 9.979121e+001
         vertex 5.580768e+001 8.651940e+001 1.028715e+002
         vertex 6.847730e+001 8.642708e+001 9.995447e+001
      endloop
   endfacet
   facet normal 1.079798e-001 8.901234e-001 4.427422e-001
      outer loop
         vertex 6.847730e+001 8.642708e+001 9.995447e+001
         vertex 5.580768e+001 8.651940e+001 1.028715e+002
         vertex 5.584750e+001 8.642708e+001 1.030347e+002
      endloop
   endfacet
   facet normal 8.279388e-002 9.369646e-001 3.394739e-001
      outer loop
         vertex 6.847730e+001 8.642708e+001 9.995447e+001
         vertex 5.584750e+001 8.642708e+001 1.030347e+002
         vertex 6.852032e+001 8.636534e+001 1.001308e+002
      endloop
   endfacet
   facet normal 6.971540e-002 9.557353e-001 2.858492e-001
      outer loop
         vertex 6.852032e+001 8.636534e+001 1.001308e+002
         vertex 5.584750e+001 8.642708e+001 1.030347e+002
         vertex 5.589051e+001 8.636534e+001 1.032111e+002
      endloop
   endfacet
   facet normal 4.298480e-002 9.834069e-001 1.762476e-001
      outer loop
         vertex 6.852032e+001 8.636534e+001 1.001308e+002
         vertex 5.589051e+001 8.636534e+001 1.032111e+002
         vertex 6.856522e+001 8.633607e+001 1.003149e+002
      endloop
   endfacet
   facet normal 2.933269e-002 9.923077e-001 1.202708e-001
      outer loop
         vertex 6.856522e+001 8.633607e+001 1.003149e+002
         vertex 5.589051e+001 8.636534e+001 1.032111e+002
         vertex 5.593541e+001 8.633607e+001 1.033952e+002
      endloop
   endfacet
   facet normal 1.869653e-003 9.999689e-001 7.666009e-003
      outer loop
         vertex 6.856522e+001 8.633607e+001 1.003149e+002
         vertex 5.593541e+001 8.633607e+001 1.033952e+002
         vertex 6.861064e+001 8.634014e+001 1.005012e+002
      endloop
   endfacet
   facet normal -1.194127e-002 9.987292e-001 -4.896197e-002
      outer loop
         vertex 6.861064e+001 8.634014e+001 1.005012e+002
         vertex 5.593541e+001 8.633607e+001 1.033952e+002
         vertex 5.598083e+001 8.634014e+001 1.035814e+002
      endloop
   endfacet
   facet normal -3.930230e-002 9.861473e-001 -1.611485e-001
      outer loop
         vertex 6.861064e+001 8.634014e+001 1.005012e+002
         vertex 5.598083e+001 8.634014e+001 1.035814e+002
         vertex 6.865520e+001 8.637745e+001 1.006839e+002
      endloop
   endfacet
   facet normal -5.285241e-002 9.748049e-001 -2.167070e-001
      outer loop
         vertex 6.865520e+001 8.637745e+001 1.006839e+002
         vertex 5.598083e+001 8.634014e+001 1.035814e+002
         vertex 5.602540e+001 8.637745e+001 1.037642e+002
      endloop
   endfacet
   facet normal -7.928009e-002 9.423621e-001 -3.250666e-001
      outer loop
         vertex 6.865520e+001 8.637745e+001 1.006839e+002
         vertex 5.602540e+001 8.637745e+001 1.037642e+002
         vertex 6.869756e+001 8.644685e+001 1.008576e+002
      endloop
   endfacet
   facet normal -9.215765e-002 9.212617e-001 -3.778675e-001
      outer loop
         vertex 6.869756e+001 8.644685e+001 1.008576e+002
         vertex 5.602540e+001 8.637745e+001 1.037642e+002
         vertex 5.606775e+001 8.644685e+001 1.039378e+002
      endloop
   endfacet
   facet normal -1.168490e-001 8.699438e-001 -4.791076e-001
      outer loop
         vertex 6.869756e+001 8.644685e+001 1.008576e+002
         vertex 5.606775e+001 8.644685e+001 1.039378e+002
         vertex 6.873641e+001 8.654623e+001 1.010169e+002
      endloop
   endfacet
   facet normal -1.286627e-001 8.397263e-001 -5.275468e-001
      outer loop
         vertex 6.873641e+001 8.654623e+001 1.010169e+002
         vertex 5.606775e+001 8.644685e+001 1.039378e+002
         vertex 5.610661e+001 8.654623e+001 1.040971e+002
      endloop
   endfacet
   facet normal -1.508675e-001 7.710927e-001 -6.185912e-001
      outer loop
         vertex 6.873641e+001 8.654623e+001 1.010169e+002
         vertex 5.610661e+001 8.654623e+001 1.040971e+002
         vertex 6.877058e+001 8.667258e+001 1.011570e+002
      endloop
   endfacet
   facet normal -1.612584e-001 7.326764e-001 -6.611967e-001
      outer loop
         vertex 6.877058e+001 8.667258e+001 1.011570e+002
         vertex 5.610661e+001 8.654623e+001 1.040971e+002
         vertex 5.614078e+001 8.667258e+001 1.042373e+002
      endloop
   endfacet
   facet normal -1.803019e-001 6.488122e-001 -7.392793e-001
      outer loop
         vertex 6.877058e+001 8.667258e+001 1.011570e+002
         vertex 5.614078e+001 8.667258e+001 1.042373e+002
         vertex 6.879904e+001 8.682204e+001 1.012737e+002
      endloop
   endfacet
   facet normal -1.889544e-001 6.033644e-001 -7.747565e-001
      outer loop
         vertex 6.879904e+001 8.682204e+001 1.012737e+002
         vertex 5.614078e+001 8.667258e+001 1.042373e+002
         vertex 5.616924e+001 8.682204e+001 1.043539e+002
      endloop
   endfacet
   facet normal -2.042580e-001 5.068180e-001 -8.375047e-001
      outer loop
         vertex 6.879904e+001 8.682204e+001 1.012737e+002
         vertex 5.616924e+001 8.682204e+001 1.043539e+002
         vertex 6.882092e+001 8.699010e+001 1.013634e+002
      endloop
   endfacet
   facet normal -2.109091e-001 4.557195e-001 -8.647757e-001
      outer loop
         vertex 6.882092e+001 8.699010e+001 1.013634e+002
         vertex 5.616924e+001 8.682204e+001 1.043539e+002
         vertex 5.619111e+001 8.699010e+001 1.044436e+002
      endloop
   endfacet
   facet normal -2.220078e-001 3.494244e-001 -9.102830e-001
      outer loop
         vertex 6.882092e+001 8.699010e+001 1.013634e+002
         vertex 5.619111e+001 8.699010e+001 1.044436e+002
         vertex 6.883554e+001 8.717163e+001 1.014233e+002
      endloop
   endfacet
   facet normal -2.264554e-001 2.942277e-001 -9.285192e-001
      outer loop
         vertex 6.883554e+001 8.717163e+001 1.014233e+002
         vertex 5.619111e+001 8.699010e+001 1.044436e+002
         vertex 5.620574e+001 8.717163e+001 1.045036e+002
      endloop
   endfacet
   facet normal -2.330120e-001 1.814136e-001 -9.554028e-001
      outer loop
         vertex 6.883554e+001 8.717163e+001 1.014233e+002
         vertex 5.620574e+001 8.717163e+001 1.045036e+002
         vertex 6.884248e+001 8.736113e+001 1.014518e+002
      endloop
   endfacet
   facet normal -2.351210e-001 1.237961e-001 -9.640501e-001
      outer loop
         vertex 6.884248e+001 8.736113e+001 1.014518e+002
         vertex 5.620574e+001 8.717163e+001 1.045036e+002
         vertex 5.621267e+001 8.736113e+001 1.045320e+002
      endloop
   endfacet
   facet normal 9.991807e-002 -7.803271e-003 9.949651e-001
      outer loop
         vertex 8.939718e+001 7.912740e+001 2.216043e+002
         vertex 9.341493e+001 7.928672e+001 2.211963e+002
         vertex 8.939619e+001 7.932372e+001 2.216002e+002
      endloop
   endfacet
   facet normal 9.812000e-002 -1.226110e-001 9.875925e-001
      outer loop
         vertex 8.939619e+001 7.932372e+001 2.216002e+002
         vertex 9.341493e+001 7.928672e+001 2.211963e+002
         vertex 9.342204e+001 7.948077e+001 2.212255e+002
      endloop
   endfacet
   facet normal 9.672651e-002 -1.796893e-001 9.789565e-001
      outer loop
         vertex 8.939619e+001 7.932372e+001 2.216002e+002
         vertex 9.342204e+001 7.948077e+001 2.212255e+002
         vertex 8.940329e+001 7.951778e+001 2.216293e+002
      endloop
   endfacet
   facet normal 9.298974e-002 -2.915557e-001 9.520232e-001
      outer loop
         vertex 8.940329e+001 7.951778e+001 2.216293e+002
         vertex 9.342204e+001 7.948077e+001 2.212255e+002
         vertex 9.343702e+001 7.966668e+001 2.212869e+002
      endloop
   endfacet
   facet normal 9.064574e-002 -3.463421e-001 9.337186e-001
      outer loop
         vertex 8.940329e+001 7.951778e+001 2.216293e+002
         vertex 9.343702e+001 7.966668e+001 2.212869e+002
         vertex 8.941827e+001 7.970369e+001 2.216908e+002
      endloop
   endfacet
   facet normal 8.507164e-002 -4.520301e-001 8.879367e-001
      outer loop
         vertex 8.941827e+001 7.970369e+001 2.216908e+002
         vertex 9.343702e+001 7.966668e+001 2.212869e+002
         vertex 9.345942e+001 7.983878e+001 2.213787e+002
      endloop
   endfacet
   facet normal 8.184031e-002 -5.029259e-001 8.604462e-001
      outer loop
         vertex 8.941827e+001 7.970369e+001 2.216908e+002
         vertex 9.345942e+001 7.983878e+001 2.213787e+002
         vertex 8.944067e+001 7.987579e+001 2.217826e+002
      endloop
   endfacet
   facet normal 7.458008e-002 -5.993120e-001 7.970338e-001
      outer loop
         vertex 8.944067e+001 7.987579e+001 2.217826e+002
         vertex 9.345942e+001 7.983878e+001 2.213787e+002
         vertex 9.348856e+001 7.999185e+001 2.214982e+002
      endloop
   endfacet
   facet normal 7.054967e-002 -6.447915e-001 7.610958e-001
      outer loop
         vertex 8.944067e+001 7.987579e+001 2.217826e+002
         vertex 9.348856e+001 7.999185e+001 2.214982e+002
         vertex 8.946981e+001 8.002886e+001 2.219021e+002
      endloop
   endfacet
   facet normal 6.180445e-002 -7.289370e-001 6.817852e-001
      outer loop
         vertex 8.946981e+001 8.002886e+001 2.219021e+002
         vertex 9.348856e+001 7.999185e+001 2.214982e+002
         vertex 9.352355e+001 8.012125e+001 2.216417e+002
      endloop
   endfacet
   facet normal 5.708818e-002 -7.675877e-001 6.383966e-001
      outer loop
         vertex 8.946981e+001 8.002886e+001 2.219021e+002
         vertex 9.352355e+001 8.012125e+001 2.216417e+002
         vertex 8.950481e+001 8.015825e+001 2.220456e+002
      endloop
   endfacet
   facet normal 4.710813e-002 -8.368295e-001 5.454331e-001
      outer loop
         vertex 8.950481e+001 8.015825e+001 2.220456e+002
         vertex 9.352355e+001 8.012125e+001 2.216417e+002
         vertex 9.356335e+001 8.022302e+001 2.218049e+002
      endloop
   endfacet
   facet normal 4.184318e-002 -8.674025e-001 4.958448e-001
      outer loop
         vertex 8.950481e+001 8.015825e+001 2.220456e+002
         vertex 9.356335e+001 8.022302e+001 2.218049e+002
         vertex 8.954460e+001 8.026003e+001 2.222087e+002
      endloop
   endfacet
   facet normal 3.092410e-002 -9.194612e-001 3.919628e-001
      outer loop
         vertex 8.954460e+001 8.026003e+001 2.222087e+002
         vertex 9.356335e+001 8.022302e+001 2.218049e+002
         vertex 9.360672e+001 8.029409e+001 2.219827e+002
      endloop
   endfacet
   facet normal 2.526923e-002 -9.409289e-001 3.376601e-001
      outer loop
         vertex 8.954460e+001 8.026003e+001 2.222087e+002
         vertex 9.360672e+001 8.029409e+001 2.219827e+002
         vertex 8.958797e+001 8.033109e+001 2.223866e+002
      endloop
   endfacet
   facet normal 1.374570e-002 -9.740243e-001 2.260259e-001
      outer loop
         vertex 8.958797e+001 8.033109e+001 2.223866e+002
         vertex 9.360672e+001 8.029409e+001 2.219827e+002
         vertex 9.365236e+001 8.033229e+001 2.221698e+002
      endloop
   endfacet
   facet normal 7.876731e-003 -9.856377e-001 1.686900e-001
      outer loop
         vertex 8.958797e+001 8.033109e+001 2.223866e+002
         vertex 9.365236e+001 8.033229e+001 2.221698e+002
         vertex 8.963361e+001 8.036929e+001 2.225737e+002
      endloop
   endfacet
   facet normal -3.888670e-003 -9.985973e-001 5.280399e-002
      outer loop
         vertex 8.963361e+001 8.036929e+001 2.225737e+002
         vertex 9.365236e+001 8.033229e+001 2.221698e+002
         vertex 9.369888e+001 8.033646e+001 2.223605e+002
      endloop
   endfacet
   facet normal -9.785137e-003 -9.999356e-001 -5.747099e-003
      outer loop
         vertex 8.963361e+001 8.036929e+001 2.225737e+002
         vertex 9.369888e+001 8.033646e+001 2.223605e+002
         vertex 8.968013e+001 8.037347e+001 2.227644e+002
      endloop
   endfacet
   facet normal -2.141619e-002 -9.922762e-001 -1.221855e-001
      outer loop
         vertex 8.968013e+001 8.037347e+001 2.227644e+002
         vertex 9.369888e+001 8.033646e+001 2.223605e+002
         vertex 9.374485e+001 8.030649e+001 2.225491e+002
      endloop
   endfacet
   facet normal -2.715078e-002 -9.832785e-001 -1.800729e-001
      outer loop
         vertex 8.968013e+001 8.037347e+001 2.227644e+002
         vertex 9.374485e+001 8.030649e+001 2.225491e+002
         vertex 8.972610e+001 8.034349e+001 2.229530e+002
      endloop
   endfacet
   facet normal -3.827418e-002 -9.552459e-001 -2.933265e-001
      outer loop
         vertex 8.972610e+001 8.034349e+001 2.229530e+002
         vertex 9.374485e+001 8.030649e+001 2.225491e+002
         vertex 9.378891e+001 8.024327e+001 2.227297e+002
      endloop
   endfacet
   facet normal -4.366326e-002 -9.362187e-001 -3.486947e-001
      outer loop
         vertex 8.972610e+001 8.034349e+001 2.229530e+002
         vertex 9.378891e+001 8.024327e+001 2.227297e+002
         vertex 8.977016e+001 8.028027e+001 2.231336e+002
      endloop
   endfacet
   facet normal -5.392544e-002 -8.887767e-001 -4.551572e-001
      outer loop
         vertex 8.977016e+001 8.028027e+001 2.231336e+002
         vertex 9.378891e+001 8.024327e+001 2.227297e+002
         vertex 9.382968e+001 8.014872e+001 2.228969e+002
      endloop
   endfacet
   facet normal -5.879929e-002 -8.603755e-001 -5.062574e-001
      outer loop
         vertex 8.977016e+001 8.028027e+001 2.231336e+002
         vertex 9.382968e+001 8.014872e+001 2.228969e+002
         vertex 8.981094e+001 8.018573e+001 2.233008e+002
      endloop
   endfacet
   facet normal -6.788144e-002 -7.951454e-001 -6.026075e-001
      outer loop
         vertex 8.981094e+001 8.018573e+001 2.233008e+002
         vertex 9.382968e+001 8.014872e+001 2.228969e+002
         vertex 9.386595e+001 8.002573e+001 2.230456e+002
      endloop
   endfacet
   facet normal -7.209101e-002 -7.583331e-001 -6.478687e-001
      outer loop
         vertex 8.981094e+001 8.018573e+001 2.233008e+002
         vertex 9.386595e+001 8.002573e+001 2.230456e+002
         vertex 8.984721e+001 8.006274e+001 2.234495e+002
      endloop
   endfacet
   facet normal -7.972056e-002 -6.774948e-001 -7.311946e-001
      outer loop
         vertex 8.984721e+001 8.006274e+001 2.234495e+002
         vertex 9.386595e+001 8.002573e+001 2.230456e+002
         vertex 9.389661e+001 7.987802e+001 2.231713e+002
      endloop
   endfacet
   facet normal -8.314223e-002 -6.334851e-001 -7.692750e-001
      outer loop
         vertex 8.984721e+001 8.006274e+001 2.234495e+002
         vertex 9.389661e+001 7.987802e+001 2.231713e+002
         vertex 8.987787e+001 7.991503e+001 2.235752e+002
      endloop
   endfacet
   facet normal -8.910010e-002 -5.396571e-001 -8.371568e-001
      outer loop
         vertex 8.987787e+001 7.991503e+001 2.235752e+002
         vertex 9.389661e+001 7.987802e+001 2.231713e+002
         vertex 9.392072e+001 7.971010e+001 2.232702e+002
      endloop
   endfacet
   facet normal -9.163819e-002 -4.898521e-001 -8.669760e-001
      outer loop
         vertex 8.987787e+001 7.991503e+001 2.235752e+002
         vertex 9.392072e+001 7.971010e+001 2.232702e+002
         vertex 8.990198e+001 7.974710e+001 2.236741e+002
      endloop
   endfacet
   facet normal -9.576188e-002 -3.859693e-001 -9.175279e-001
      outer loop
         vertex 8.990198e+001 7.974710e+001 2.236741e+002
         vertex 9.392072e+001 7.971010e+001 2.232702e+002
         vertex 9.393756e+001 7.952705e+001 2.233392e+002
      endloop
   endfacet
   facet normal -9.734928e-002 -3.319002e-001 -9.382778e-001
      outer loop
         vertex 8.990198e+001 7.974710e+001 2.236741e+002
         vertex 9.393756e+001 7.952705e+001 2.233392e+002
         vertex 8.991882e+001 7.956405e+001 2.237431e+002
      endloop
   endfacet
   facet normal -9.953287e-002 -2.211036e-001 -9.701579e-001
      outer loop
         vertex 8.991882e+001 7.956405e+001 2.237431e+002
         vertex 9.393756e+001 7.952705e+001 2.233392e+002
         vertex 9.394662e+001 7.933443e+001 2.233764e+002
      endloop
   endfacet
   facet normal -1.001305e-001 -1.643800e-001 -9.813017e-001
      outer loop
         vertex 8.991882e+001 7.956405e+001 2.237431e+002
         vertex 9.394662e+001 7.933443e+001 2.233764e+002
         vertex 8.992786e+001 7.937144e+001 2.237802e+002
      endloop
   endfacet
   facet normal -1.003227e-001 -4.992620e-002 -9.937015e-001
      outer loop
         vertex 8.992786e+001 7.937144e+001 2.237802e+002
         vertex 9.394662e+001 7.933443e+001 2.233764e+002
         vertex 9.394760e+001 7.913812e+001 2.233804e+002
      endloop
   endfacet
   facet normal -9.991807e-002 7.803271e-003 -9.949651e-001
      outer loop
         vertex 8.992786e+001 7.937144e+001 2.237802e+002
         vertex 9.394760e+001 7.913812e+001 2.233804e+002
         vertex 8.992886e+001 7.917513e+001 2.237843e+002
      endloop
   endfacet
   facet normal -9.812000e-002 1.226110e-001 -9.875925e-001
      outer loop
         vertex 8.992886e+001 7.917513e+001 2.237843e+002
         vertex 9.394760e+001 7.913812e+001 2.233804e+002
         vertex 9.394051e+001 7.894405e+001 2.233513e+002
      endloop
   endfacet
   facet normal -9.672651e-002 1.796893e-001 -9.789565e-001
      outer loop
         vertex 8.992886e+001 7.917513e+001 2.237843e+002
         vertex 9.394051e+001 7.894405e+001 2.233513e+002
         vertex 8.992176e+001 7.898106e+001 2.237552e+002
      endloop
   endfacet
   facet normal -9.298974e-002 2.915557e-001 -9.520232e-001
      outer loop
         vertex 8.992176e+001 7.898106e+001 2.237552e+002
         vertex 9.394051e+001 7.894405e+001 2.233513e+002
         vertex 9.392552e+001 7.875816e+001 2.232899e+002
      endloop
   endfacet
   facet normal -9.064574e-002 3.463421e-001 -9.337186e-001
      outer loop
         vertex 8.992176e+001 7.898106e+001 2.237552e+002
         vertex 9.392552e+001 7.875816e+001 2.232899e+002
         vertex 8.990678e+001 7.879516e+001 2.236937e+002
      endloop
   endfacet
   facet normal -8.507164e-002 4.520301e-001 -8.879367e-001
      outer loop
         vertex 8.990678e+001 7.879516e+001 2.236937e+002
         vertex 9.392552e+001 7.875816e+001 2.232899e+002
         vertex 9.390311e+001 7.858605e+001 2.231980e+002
      endloop
   endfacet
   facet normal -8.184031e-002 5.029259e-001 -8.604462e-001
      outer loop
         vertex 8.990678e+001 7.879516e+001 2.236937e+002
         vertex 9.390311e+001 7.858605e+001 2.231980e+002
         vertex 8.988437e+001 7.862305e+001 2.236019e+002
      endloop
   endfacet
   facet normal -7.458008e-002 5.993120e-001 -7.970338e-001
      outer loop
         vertex 8.988437e+001 7.862305e+001 2.236019e+002
         vertex 9.390311e+001 7.858605e+001 2.231980e+002
         vertex 9.387398e+001 7.843298e+001 2.230785e+002
      endloop
   endfacet
   facet normal -7.054967e-002 6.447915e-001 -7.610958e-001
      outer loop
         vertex 8.988437e+001 7.862305e+001 2.236019e+002
         vertex 9.387398e+001 7.843298e+001 2.230785e+002
         vertex 8.985523e+001 7.846999e+001 2.234824e+002
      endloop
   endfacet
   facet normal -6.180445e-002 7.289370e-001 -6.817852e-001
      outer loop
         vertex 8.985523e+001 7.846999e+001 2.234824e+002
         vertex 9.387398e+001 7.843298e+001 2.230785e+002
         vertex 9.383898e+001 7.830359e+001 2.229350e+002
      endloop
   endfacet
   facet normal -5.708818e-002 7.675877e-001 -6.383966e-001
      outer loop
         vertex 8.985523e+001 7.846999e+001 2.234824e+002
         vertex 9.383898e+001 7.830359e+001 2.229350e+002
         vertex 8.982024e+001 7.834060e+001 2.233389e+002
      endloop
   endfacet
   facet normal -4.710813e-002 8.368295e-001 -5.454331e-001
      outer loop
         vertex 8.982024e+001 7.834060e+001 2.233389e+002
         vertex 9.383898e+001 7.830359e+001 2.229350e+002
         vertex 9.379919e+001 7.820181e+001 2.227719e+002
      endloop
   endfacet
   facet normal -4.184318e-002 8.674025e-001 -4.958448e-001
      outer loop
         vertex 8.982024e+001 7.834060e+001 2.233389e+002
         vertex 9.379919e+001 7.820181e+001 2.227719e+002
         vertex 8.978044e+001 7.823882e+001 2.231758e+002
      endloop
   endfacet
   facet normal -3.092410e-002 9.194612e-001 -3.919628e-001
      outer loop
         vertex 8.978044e+001 7.823882e+001 2.231758e+002
         vertex 9.379919e+001 7.820181e+001 2.227719e+002
         vertex 9.375582e+001 7.813075e+001 2.225941e+002
      endloop
   endfacet
   facet normal -2.526923e-002 9.409289e-001 -3.376601e-001
      outer loop
         vertex 8.978044e+001 7.823882e+001 2.231758e+002
         vertex 9.375582e+001 7.813075e+001 2.225941e+002
         vertex 8.973708e+001 7.816776e+001 2.229979e+002
      endloop
   endfacet
   facet normal -1.374570e-002 9.740243e-001 -2.260259e-001
      outer loop
         vertex 8.973708e+001 7.816776e+001 2.229979e+002
         vertex 9.375582e+001 7.813075e+001 2.225941e+002
         vertex 9.371017e+001 7.809254e+001 2.224069e+002
      endloop
   endfacet
   facet normal -7.876731e-003 9.856377e-001 -1.686900e-001
      outer loop
         vertex 8.973708e+001 7.816776e+001 2.229979e+002
         vertex 9.371017e+001 7.809254e+001 2.224069e+002
         vertex 8.969143e+001 7.812955e+001 2.228108e+002
      endloop
   endfacet
   facet normal 3.888670e-003 9.985973e-001 -5.280399e-002
      outer loop
         vertex 8.969143e+001 7.812955e+001 2.228108e+002
         vertex 9.371017e+001 7.809254e+001 2.224069e+002
         vertex 9.366367e+001 7.808837e+001 2.222162e+002
      endloop
   endfacet
   facet normal 9.785137e-003 9.999356e-001 5.747099e-003
      outer loop
         vertex 8.969143e+001 7.812955e+001 2.228108e+002
         vertex 9.366367e+001 7.808837e+001 2.222162e+002
         vertex 8.964491e+001 7.812538e+001 2.226201e+002
      endloop
   endfacet
   facet normal 2.141619e-002 9.922762e-001 1.221855e-001
      outer loop
         vertex 8.964491e+001 7.812538e+001 2.226201e+002
         vertex 9.366367e+001 7.808837e+001 2.222162e+002
         vertex 9.361768e+001 7.811835e+001 2.220277e+002
      endloop
   endfacet
   facet normal 2.715078e-002 9.832785e-001 1.800729e-001
      outer loop
         vertex 8.964491e+001 7.812538e+001 2.226201e+002
         vertex 9.361768e+001 7.811835e+001 2.220277e+002
         vertex 8.959894e+001 7.815536e+001 2.224315e+002
      endloop
   endfacet
   facet normal 3.827418e-002 9.552459e-001 2.933265e-001
      outer loop
         vertex 8.959894e+001 7.815536e+001 2.224315e+002
         vertex 9.361768e+001 7.811835e+001 2.220277e+002
         vertex 9.357364e+001 7.818157e+001 2.218470e+002
      endloop
   endfacet
   facet normal 4.366326e-002 9.362187e-001 3.486947e-001
      outer loop
         vertex 8.959894e+001 7.815536e+001 2.224315e+002
         vertex 9.357364e+001 7.818157e+001 2.218470e+002
         vertex 8.955489e+001 7.821858e+001 2.222509e+002
      endloop
   endfacet
   facet normal 5.392544e-002 8.887767e-001 4.551572e-001
      outer loop
         vertex 8.955489e+001 7.821858e+001 2.222509e+002
         vertex 9.357364e+001 7.818157e+001 2.218470e+002
         vertex 9.353285e+001 7.827612e+001 2.216799e+002
      endloop
   endfacet
   facet normal 5.879929e-002 8.603755e-001 5.062574e-001
      outer loop
         vertex 8.955489e+001 7.821858e+001 2.222509e+002
         vertex 9.353285e+001 7.827612e+001 2.216799e+002
         vertex 8.951411e+001 7.831312e+001 2.220837e+002
      endloop
   endfacet
   facet normal 6.788144e-002 7.951454e-001 6.026075e-001
      outer loop
         vertex 8.951411e+001 7.831312e+001 2.220837e+002
         vertex 9.353285e+001 7.827612e+001 2.216799e+002
         vertex 9.349658e+001 7.839911e+001 2.215311e+002
      endloop
   endfacet
   facet normal 7.209101e-002 7.583331e-001 6.478687e-001
      outer loop
         vertex 8.951411e+001 7.831312e+001 2.220837e+002
         vertex 9.349658e+001 7.839911e+001 2.215311e+002
         vertex 8.947784e+001 7.843611e+001 2.219350e+002
      endloop
   endfacet
   facet normal 7.972056e-002 6.774948e-001 7.311946e-001
      outer loop
         vertex 8.947784e+001 7.843611e+001 2.219350e+002
         vertex 9.349658e+001 7.839911e+001 2.215311e+002
         vertex 9.346593e+001 7.854681e+001 2.214054e+002
      endloop
   endfacet
   facet normal 8.314223e-002 6.334851e-001 7.692750e-001
      outer loop
         vertex 8.947784e+001 7.843611e+001 2.219350e+002
         vertex 9.346593e+001 7.854681e+001 2.214054e+002
         vertex 8.944718e+001 7.858382e+001 2.218093e+002
      endloop
   endfacet
   facet normal 8.910010e-002 5.396571e-001 8.371568e-001
      outer loop
         vertex 8.944718e+001 7.858382e+001 2.218093e+002
         vertex 9.346593e+001 7.854681e+001 2.214054e+002
         vertex 9.344181e+001 7.871474e+001 2.213065e+002
      endloop
   endfacet
   facet normal 9.163819e-002 4.898521e-001 8.669760e-001
      outer loop
         vertex 8.944718e+001 7.858382e+001 2.218093e+002
         vertex 9.344181e+001 7.871474e+001 2.213065e+002
         vertex 8.942307e+001 7.875174e+001 2.217104e+002
      endloop
   endfacet
   facet normal 9.576188e-002 3.859693e-001 9.175279e-001
      outer loop
         vertex 8.942307e+001 7.875174e+001 2.217104e+002
         vertex 9.344181e+001 7.871474e+001 2.213065e+002
         vertex 9.342497e+001 7.889779e+001 2.212375e+002
      endloop
   endfacet
   facet normal 9.734928e-002 3.319002e-001 9.382778e-001
      outer loop
         vertex 8.942307e+001 7.875174e+001 2.217104e+002
         vertex 9.342497e+001 7.889779e+001 2.212375e+002
         vertex 8.940623e+001 7.893480e+001 2.216414e+002
      endloop
   endfacet
   facet normal 9.953287e-002 2.211036e-001 9.701579e-001
      outer loop
         vertex 8.940623e+001 7.893480e+001 2.216414e+002
         vertex 9.342497e+001 7.889779e+001 2.212375e+002
         vertex 9.341592e+001 7.909040e+001 2.212004e+002
      endloop
   endfacet
   facet normal 1.001305e-001 1.643800e-001 9.813017e-001
      outer loop
         vertex 8.940623e+001 7.893480e+001 2.216414e+002
         vertex 9.341592e+001 7.909040e+001 2.212004e+002
         vertex 8.939718e+001 7.912740e+001 2.216043e+002
      endloop
   endfacet
   facet normal 1.003227e-001 4.992620e-002 9.937015e-001
      outer loop
         vertex 8.939718e+001 7.912740e+001 2.216043e+002
         vertex 9.341592e+001 7.909040e+001 2.212004e+002
         vertex 9.341493e+001 7.928672e+001 2.211963e+002
      endloop
   endfacet
endsolid