solid Hydra - HydraForeArm-2 powerSupply-1
   facet normal -4.165888e-018 -1.971877e-016 1.000000e+000
      outer loop
         vertex 7.877158e+001 7.121798e+001 4.858994e+002
         vertex 7.877158e+001 7.271797e+001 4.858994e+002
         vertex 7.627158e+001 7.121798e+001 4.858994e+002
      endloop
   endfacet
   facet normal -4.165888e-018 -1.971877e-016 1.000000e+000
      outer loop
         vertex 7.627158e+001 7.121798e+001 4.858994e+002
         vertex 7.877158e+001 7.271797e+001 4.858994e+002
         vertex 7.377158e+001 7.271797e+001 4.858994e+002
      endloop
   endfacet
   facet normal -4.165888e-018 -1.971877e-016 1.000000e+000
      outer loop
         vertex 7.627158e+001 7.121798e+001 4.858994e+002
         vertex 7.377158e+001 7.271797e+001 4.858994e+002
         vertex 7.627158e+001 5.421797e+001 4.858994e+002
      endloop
   endfacet
   facet normal -4.165888e-018 -1.971877e-016 1.000000e+000
      outer loop
         vertex 7.627158e+001 5.421797e+001 4.858994e+002
         vertex 7.377158e+001 7.271797e+001 4.858994e+002
         vertex 7.377158e+001 5.271797e+001 4.858994e+002
      endloop
   endfacet
   facet normal -4.165888e-018 -1.971877e-016 1.000000e+000
      outer loop
         vertex 7.627158e+001 5.421797e+001 4.858994e+002
         vertex 7.377158e+001 5.271797e+001 4.858994e+002
         vertex 7.877158e+001 5.421797e+001 4.858994e+002
      endloop
   endfacet
   facet normal -4.165888e-018 -1.971877e-016 1.000000e+000
      outer loop
         vertex 7.877158e+001 5.421797e+001 4.858994e+002
         vertex 7.377158e+001 5.271797e+001 4.858994e+002
         vertex 7.877158e+001 5.271797e+001 4.858994e+002
      endloop
   endfacet
   facet normal -4.165888e-018 -1.971877e-016 1.000000e+000
      outer loop
         vertex 1.027716e+002 5.521798e+001 4.858994e+002
         vertex 1.047716e+002 5.521798e+001 4.858994e+002
         vertex 1.027716e+002 7.021797e+001 4.858994e+002
      endloop
   endfacet
   facet normal -4.165888e-018 -1.971877e-016 1.000000e+000
      outer loop
         vertex 1.027716e+002 7.021797e+001 4.858994e+002
         vertex 1.047716e+002 5.521798e+001 4.858994e+002
         vertex 1.047716e+002 7.021797e+001 4.858994e+002
      endloop
   endfacet
   facet normal -4.165888e-018 -1.971877e-016 1.000000e+000
      outer loop
         vertex 1.312716e+002 5.421797e+001 4.858994e+002
         vertex 1.287716e+002 5.421797e+001 4.858994e+002
         vertex 1.287716e+002 5.271797e+001 4.858994e+002
      endloop
   endfacet
   facet normal -4.165888e-018 -1.971877e-016 1.000000e+000
      outer loop
         vertex 1.287716e+002 7.271797e+001 4.858994e+002
         vertex 1.287716e+002 7.121798e+001 4.858994e+002
         vertex 1.337716e+002 7.271797e+001 4.858994e+002
      endloop
   endfacet
   facet normal -4.165888e-018 -1.971877e-016 1.000000e+000
      outer loop
         vertex 1.337716e+002 7.271797e+001 4.858994e+002
         vertex 1.287716e+002 7.121798e+001 4.858994e+002
         vertex 1.312716e+002 7.121798e+001 4.858994e+002
      endloop
   endfacet
   facet normal -4.165888e-018 -1.971877e-016 1.000000e+000
      outer loop
         vertex 1.337716e+002 7.271797e+001 4.858994e+002
         vertex 1.312716e+002 7.121798e+001 4.858994e+002
         vertex 1.337716e+002 5.571797e+001 4.858994e+002
      endloop
   endfacet
   facet normal -4.165888e-018 -1.971877e-016 1.000000e+000
      outer loop
         vertex 1.337716e+002 5.571797e+001 4.858994e+002
         vertex 1.312716e+002 7.121798e+001 4.858994e+002
         vertex 1.312716e+002 5.421797e+001 4.858994e+002
      endloop
   endfacet
   facet normal -4.165888e-018 -1.971877e-016 1.000000e+000
      outer loop
         vertex 1.337716e+002 5.571797e+001 4.858994e+002
         vertex 1.312716e+002 5.421797e+001 4.858994e+002
         vertex 1.337260e+002 5.519703e+001 4.858994e+002
      endloop
   endfacet
   facet normal -4.165888e-018 -1.971877e-016 1.000000e+000
      outer loop
         vertex 1.287716e+002 5.271797e+001 4.858994e+002
         vertex 1.307716e+002 5.271797e+001 4.858994e+002
         vertex 1.312716e+002 5.421797e+001 4.858994e+002
      endloop
   endfacet
   facet normal -4.165888e-018 -1.971877e-016 1.000000e+000
      outer loop
         vertex 1.312716e+002 5.421797e+001 4.858994e+002
         vertex 1.307716e+002 5.271797e+001 4.858994e+002
         vertex 1.312925e+002 5.276355e+001 4.858994e+002
      endloop
   endfacet
   facet normal -4.165888e-018 -1.971877e-016 1.000000e+000
      outer loop
         vertex 1.312716e+002 5.421797e+001 4.858994e+002
         vertex 1.312925e+002 5.276355e+001 4.858994e+002
         vertex 1.317976e+002 5.289890e+001 4.858994e+002
      endloop
   endfacet
   facet normal -4.165888e-018 -1.971877e-016 1.000000e+000
      outer loop
         vertex 1.317976e+002 5.289890e+001 4.858994e+002
         vertex 1.322716e+002 5.311990e+001 4.858994e+002
         vertex 1.312716e+002 5.421797e+001 4.858994e+002
      endloop
   endfacet
   facet normal -4.165888e-018 -1.971877e-016 1.000000e+000
      outer loop
         vertex 1.312716e+002 5.421797e+001 4.858994e+002
         vertex 1.322716e+002 5.311990e+001 4.858994e+002
         vertex 1.327000e+002 5.341984e+001 4.858994e+002
      endloop
   endfacet
   facet normal -4.165888e-018 -1.971877e-016 1.000000e+000
      outer loop
         vertex 1.312716e+002 5.421797e+001 4.858994e+002
         vertex 1.327000e+002 5.341984e+001 4.858994e+002
         vertex 1.330697e+002 5.378961e+001 4.858994e+002
      endloop
   endfacet
   facet normal -4.165888e-018 -1.971877e-016 1.000000e+000
      outer loop
         vertex 1.330697e+002 5.378961e+001 4.858994e+002
         vertex 1.333697e+002 5.421797e+001 4.858994e+002
         vertex 1.312716e+002 5.421797e+001 4.858994e+002
      endloop
   endfacet
   facet normal -4.165888e-018 -1.971877e-016 1.000000e+000
      outer loop
         vertex 1.312716e+002 5.421797e+001 4.858994e+002
         vertex 1.333697e+002 5.421797e+001 4.858994e+002
         vertex 1.335907e+002 5.469191e+001 4.858994e+002
      endloop
   endfacet
   facet normal -4.165888e-018 -1.971877e-016 1.000000e+000
      outer loop
         vertex 1.312716e+002 5.421797e+001 4.858994e+002
         vertex 1.335907e+002 5.469191e+001 4.858994e+002
         vertex 1.337260e+002 5.519703e+001 4.858994e+002
      endloop
   endfacet
   facet normal 1.000000e+000 -1.145059e-015 4.165888e-018
      outer loop
         vertex 1.337716e+002 5.571797e+001 4.378994e+002
         vertex 1.337716e+002 7.271797e+001 4.378994e+002
         vertex 1.337716e+002 5.571797e+001 4.858994e+002
      endloop
   endfacet
   facet normal 1.000000e+000 -1.145059e-015 4.165888e-018
      outer loop
         vertex 1.337716e+002 5.571797e+001 4.858994e+002
         vertex 1.337716e+002 7.271797e+001 4.378994e+002
         vertex 1.337716e+002 7.271797e+001 4.858994e+002
      endloop
   endfacet
   facet normal 4.165888e-018 1.971877e-016 -1.000000e+000
      outer loop
         vertex 7.377158e+001 5.271797e+001 4.378994e+002
         vertex 7.377158e+001 7.271797e+001 4.378994e+002
         vertex 1.307716e+002 5.271797e+001 4.378994e+002
      endloop
   endfacet
   facet normal 4.165888e-018 1.971877e-016 -1.000000e+000
      outer loop
         vertex 1.307716e+002 5.271797e+001 4.378994e+002
         vertex 7.377158e+001 7.271797e+001 4.378994e+002
         vertex 1.337716e+002 7.271797e+001 4.378994e+002
      endloop
   endfacet
   facet normal 4.165888e-018 1.971877e-016 -1.000000e+000
      outer loop
         vertex 1.307716e+002 5.271797e+001 4.378994e+002
         vertex 1.337716e+002 7.271797e+001 4.378994e+002
         vertex 1.337716e+002 5.571797e+001 4.378994e+002
      endloop
   endfacet
   facet normal 4.165888e-018 1.971877e-016 -1.000000e+000
      outer loop
         vertex 1.327000e+002 5.341984e+001 4.378994e+002
         vertex 1.337260e+002 5.519703e+001 4.378994e+002
         vertex 1.330697e+002 5.378961e+001 4.378994e+002
      endloop
   endfacet
   facet normal 4.165888e-018 1.971877e-016 -1.000000e+000
      outer loop
         vertex 1.330697e+002 5.378961e+001 4.378994e+002
         vertex 1.337260e+002 5.519703e+001 4.378994e+002
         vertex 1.335907e+002 5.469191e+001 4.378994e+002
      endloop
   endfacet
   facet normal 4.165888e-018 1.971877e-016 -1.000000e+000
      outer loop
         vertex 1.330697e+002 5.378961e+001 4.378994e+002
         vertex 1.335907e+002 5.469191e+001 4.378994e+002
         vertex 1.333697e+002 5.421797e+001 4.378994e+002
      endloop
   endfacet
   facet normal 4.165888e-018 1.971877e-016 -1.000000e+000
      outer loop
         vertex 1.327000e+002 5.341984e+001 4.378994e+002
         vertex 1.322716e+002 5.311990e+001 4.378994e+002
         vertex 1.337260e+002 5.519703e+001 4.378994e+002
      endloop
   endfacet
   facet normal 4.165888e-018 1.971877e-016 -1.000000e+000
      outer loop
         vertex 1.337260e+002 5.519703e+001 4.378994e+002
         vertex 1.322716e+002 5.311990e+001 4.378994e+002
         vertex 1.317976e+002 5.289890e+001 4.378994e+002
      endloop
   endfacet
   facet normal 4.165888e-018 1.971877e-016 -1.000000e+000
      outer loop
         vertex 1.337260e+002 5.519703e+001 4.378994e+002
         vertex 1.317976e+002 5.289890e+001 4.378994e+002
         vertex 1.337716e+002 5.571797e+001 4.378994e+002
      endloop
   endfacet
   facet normal 4.165888e-018 1.971877e-016 -1.000000e+000
      outer loop
         vertex 1.337716e+002 5.571797e+001 4.378994e+002
         vertex 1.317976e+002 5.289890e+001 4.378994e+002
         vertex 1.312925e+002 5.276355e+001 4.378994e+002
      endloop
   endfacet
   facet normal 4.165888e-018 1.971877e-016 -1.000000e+000
      outer loop
         vertex 1.337716e+002 5.571797e+001 4.378994e+002
         vertex 1.312925e+002 5.276355e+001 4.378994e+002
         vertex 1.307716e+002 5.271797e+001 4.378994e+002
      endloop
   endfacet
   facet normal -1.000000e+000 1.145059e-015 -4.165888e-018
      outer loop
         vertex 7.377158e+001 7.271797e+001 4.858994e+002
         vertex 7.377158e+001 7.271797e+001 4.378994e+002
         vertex 7.377158e+001 5.271797e+001 4.858994e+002
      endloop
   endfacet
   facet normal -1.000000e+000 1.145059e-015 -4.165888e-018
      outer loop
         vertex 7.377158e+001 5.271797e+001 4.858994e+002
         vertex 7.377158e+001 7.271797e+001 4.378994e+002
         vertex 7.377158e+001 5.271797e+001 4.378994e+002
      endloop
   endfacet
   facet normal 1.132798e-015 1.000000e+000 1.980284e-016
      outer loop
         vertex 7.877158e+001 7.271797e+001 4.858994e+002
         vertex 9.877158e+001 7.271797e+001 4.758994e+002
         vertex 7.377158e+001 7.271797e+001 4.858994e+002
      endloop
   endfacet
   facet normal 1.132798e-015 1.000000e+000 1.980284e-016
      outer loop
         vertex 7.377158e+001 7.271797e+001 4.858994e+002
         vertex 9.877158e+001 7.271797e+001 4.758994e+002
         vertex 8.077158e+001 7.271797e+001 4.758994e+002
      endloop
   endfacet
   facet normal 1.132798e-015 1.000000e+000 1.980284e-016
      outer loop
         vertex 7.377158e+001 7.271797e+001 4.858994e+002
         vertex 8.077158e+001 7.271797e+001 4.758994e+002
         vertex 7.377158e+001 7.271797e+001 4.378994e+002
      endloop
   endfacet
   facet normal 1.132798e-015 1.000000e+000 1.980284e-016
      outer loop
         vertex 7.377158e+001 7.271797e+001 4.378994e+002
         vertex 8.077158e+001 7.271797e+001 4.758994e+002
         vertex 8.077158e+001 7.271797e+001 4.478994e+002
      endloop
   endfacet
   facet normal 1.132798e-015 1.000000e+000 1.980284e-016
      outer loop
         vertex 7.877158e+001 7.271797e+001 4.858994e+002
         vertex 7.877158e+001 7.271797e+001 4.898994e+002
         vertex 9.877158e+001 7.271797e+001 4.758994e+002
      endloop
   endfacet
   facet normal 1.132798e-015 1.000000e+000 1.980284e-016
      outer loop
         vertex 9.877158e+001 7.271797e+001 4.758994e+002
         vertex 7.877158e+001 7.271797e+001 4.898994e+002
         vertex 1.087716e+002 7.271797e+001 4.758994e+002
      endloop
   endfacet
   facet normal 1.132798e-015 1.000000e+000 1.980284e-016
      outer loop
         vertex 9.877158e+001 7.271797e+001 4.758994e+002
         vertex 1.087716e+002 7.271797e+001 4.758994e+002
         vertex 9.877158e+001 7.271797e+001 4.478994e+002
      endloop
   endfacet
   facet normal 1.132798e-015 1.000000e+000 1.980284e-016
      outer loop
         vertex 9.877158e+001 7.271797e+001 4.478994e+002
         vertex 1.087716e+002 7.271797e+001 4.758994e+002
         vertex 1.087716e+002 7.271797e+001 4.478994e+002
      endloop
   endfacet
   facet normal 1.132798e-015 1.000000e+000 1.980284e-016
      outer loop
         vertex 8.077158e+001 7.271797e+001 4.478994e+002
         vertex 9.877158e+001 7.271797e+001 4.478994e+002
         vertex 7.377158e+001 7.271797e+001 4.378994e+002
      endloop
   endfacet
   facet normal 1.132798e-015 1.000000e+000 1.980284e-016
      outer loop
         vertex 7.377158e+001 7.271797e+001 4.378994e+002
         vertex 9.877158e+001 7.271797e+001 4.478994e+002
         vertex 1.087716e+002 7.271797e+001 4.478994e+002
      endloop
   endfacet
   facet normal 1.132798e-015 1.000000e+000 1.980284e-016
      outer loop
         vertex 7.377158e+001 7.271797e+001 4.378994e+002
         vertex 1.087716e+002 7.271797e+001 4.478994e+002
         vertex 1.337716e+002 7.271797e+001 4.378994e+002
      endloop
   endfacet
   facet normal 1.132798e-015 1.000000e+000 1.980284e-016
      outer loop
         vertex 1.337716e+002 7.271797e+001 4.378994e+002
         vertex 1.087716e+002 7.271797e+001 4.478994e+002
         vertex 1.267716e+002 7.271797e+001 4.478994e+002
      endloop
   endfacet
   facet normal 1.132798e-015 1.000000e+000 1.980284e-016
      outer loop
         vertex 1.337716e+002 7.271797e+001 4.378994e+002
         vertex 1.267716e+002 7.271797e+001 4.478994e+002
         vertex 1.337716e+002 7.271797e+001 4.858994e+002
      endloop
   endfacet
   facet normal 1.132798e-015 1.000000e+000 1.980284e-016
      outer loop
         vertex 1.337716e+002 7.271797e+001 4.858994e+002
         vertex 1.267716e+002 7.271797e+001 4.478994e+002
         vertex 1.267716e+002 7.271797e+001 4.758994e+002
      endloop
   endfacet
   facet normal 1.132798e-015 1.000000e+000 1.980284e-016
      outer loop
         vertex 1.337716e+002 7.271797e+001 4.858994e+002
         vertex 1.267716e+002 7.271797e+001 4.758994e+002
         vertex 1.287716e+002 7.271797e+001 4.858994e+002
      endloop
   endfacet
   facet normal 1.132798e-015 1.000000e+000 1.980284e-016
      outer loop
         vertex 1.287716e+002 7.271797e+001 4.858994e+002
         vertex 1.267716e+002 7.271797e+001 4.758994e+002
         vertex 1.087716e+002 7.271797e+001 4.758994e+002
      endloop
   endfacet
   facet normal 1.132798e-015 1.000000e+000 1.980284e-016
      outer loop
         vertex 1.287716e+002 7.271797e+001 4.858994e+002
         vertex 1.087716e+002 7.271797e+001 4.758994e+002
         vertex 1.287716e+002 7.271797e+001 4.898994e+002
      endloop
   endfacet
   facet normal 1.132798e-015 1.000000e+000 1.980284e-016
      outer loop
         vertex 1.287716e+002 7.271797e+001 4.898994e+002
         vertex 1.087716e+002 7.271797e+001 4.758994e+002
         vertex 7.877158e+001 7.271797e+001 4.898994e+002
      endloop
   endfacet
   facet normal -1.132798e-015 -1.000000e+000 -1.980284e-016
      outer loop
         vertex 7.877158e+001 5.271797e+001 4.858994e+002
         vertex 7.377158e+001 5.271797e+001 4.858994e+002
         vertex 7.377158e+001 5.271797e+001 4.378994e+002
      endloop
   endfacet
   facet normal -1.132798e-015 -1.000000e+000 -1.980284e-016
      outer loop
         vertex 1.307716e+002 5.271797e+001 4.378994e+002
         vertex 1.307716e+002 5.271797e+001 4.858994e+002
         vertex 1.287716e+002 5.271797e+001 4.858994e+002
      endloop
   endfacet
   facet normal -1.132798e-015 -1.000000e+000 -1.980284e-016
      outer loop
         vertex 1.287716e+002 5.271797e+001 4.898994e+002
         vertex 7.877158e+001 5.271797e+001 4.898994e+002
         vertex 1.287716e+002 5.271797e+001 4.858994e+002
      endloop
   endfacet
   facet normal -1.132798e-015 -1.000000e+000 -1.980284e-016
      outer loop
         vertex 1.287716e+002 5.271797e+001 4.858994e+002
         vertex 7.877158e+001 5.271797e+001 4.898994e+002
         vertex 7.877158e+001 5.271797e+001 4.858994e+002
      endloop
   endfacet
   facet normal -1.132798e-015 -1.000000e+000 -1.980284e-016
      outer loop
         vertex 1.287716e+002 5.271797e+001 4.858994e+002
         vertex 7.877158e+001 5.271797e+001 4.858994e+002
         vertex 1.307716e+002 5.271797e+001 4.378994e+002
      endloop
   endfacet
   facet normal -1.132798e-015 -1.000000e+000 -1.980284e-016
      outer loop
         vertex 1.307716e+002 5.271797e+001 4.378994e+002
         vertex 7.877158e+001 5.271797e+001 4.858994e+002
         vertex 7.377158e+001 5.271797e+001 4.378994e+002
      endloop
   endfacet
   facet normal -1.000000e+000 1.145059e-015 1.197429e-016
      outer loop
         vertex 1.267716e+002 7.121798e+001 4.758994e+002
         vertex 1.267716e+002 7.271797e+001 4.758994e+002
         vertex 1.267716e+002 7.121798e+001 4.478994e+002
      endloop
   endfacet
   facet normal -1.000000e+000 1.145059e-015 1.197429e-016
      outer loop
         vertex 1.267716e+002 7.121798e+001 4.478994e+002
         vertex 1.267716e+002 7.271797e+001 4.758994e+002
         vertex 1.267716e+002 7.271797e+001 4.478994e+002
      endloop
   endfacet
   facet normal 4.165888e-018 1.971877e-016 -1.000000e+000
      outer loop
         vertex 1.087716e+002 7.121798e+001 4.758994e+002
         vertex 1.087716e+002 7.271797e+001 4.758994e+002
         vertex 1.267716e+002 7.121798e+001 4.758994e+002
      endloop
   endfacet
   facet normal 4.165888e-018 1.971877e-016 -1.000000e+000
      outer loop
         vertex 1.267716e+002 7.121798e+001 4.758994e+002
         vertex 1.087716e+002 7.271797e+001 4.758994e+002
         vertex 1.267716e+002 7.271797e+001 4.758994e+002
      endloop
   endfacet
   facet normal 1.000000e+000 -1.145059e-015 -2.681132e-017
      outer loop
         vertex 1.087716e+002 7.121798e+001 4.478994e+002
         vertex 1.087716e+002 7.271797e+001 4.478994e+002
         vertex 1.087716e+002 7.121798e+001 4.758994e+002
      endloop
   endfacet
   facet normal 1.000000e+000 -1.145059e-015 -2.681132e-017
      outer loop
         vertex 1.087716e+002 7.121798e+001 4.758994e+002
         vertex 1.087716e+002 7.271797e+001 4.478994e+002
         vertex 1.087716e+002 7.271797e+001 4.758994e+002
      endloop
   endfacet
   facet normal 9.220764e-017 -1.971877e-016 1.000000e+000
      outer loop
         vertex 1.267716e+002 7.121798e+001 4.478994e+002
         vertex 1.267716e+002 7.271797e+001 4.478994e+002
         vertex 1.087716e+002 7.121798e+001 4.478994e+002
      endloop
   endfacet
   facet normal 9.220764e-017 -1.971877e-016 1.000000e+000
      outer loop
         vertex 1.087716e+002 7.121798e+001 4.478994e+002
         vertex 1.267716e+002 7.271797e+001 4.478994e+002
         vertex 1.087716e+002 7.271797e+001 4.478994e+002
      endloop
   endfacet
   facet normal -1.000000e+000 1.145059e-015 4.229992e-017
      outer loop
         vertex 9.877158e+001 7.121798e+001 4.758994e+002
         vertex 9.877158e+001 7.271797e+001 4.758994e+002
         vertex 9.877158e+001 7.121798e+001 4.478994e+002
      endloop
   endfacet
   facet normal -1.000000e+000 1.145059e-015 4.229992e-017
      outer loop
         vertex 9.877158e+001 7.121798e+001 4.478994e+002
         vertex 9.877158e+001 7.271797e+001 4.758994e+002
         vertex 9.877158e+001 7.271797e+001 4.478994e+002
      endloop
   endfacet
   facet normal 4.165888e-018 1.971877e-016 -1.000000e+000
      outer loop
         vertex 8.077158e+001 7.121798e+001 4.758994e+002
         vertex 8.077158e+001 7.271797e+001 4.758994e+002
         vertex 9.877158e+001 7.121798e+001 4.758994e+002
      endloop
   endfacet
   facet normal 4.165888e-018 1.971877e-016 -1.000000e+000
      outer loop
         vertex 9.877158e+001 7.121798e+001 4.758994e+002
         vertex 8.077158e+001 7.271797e+001 4.758994e+002
         vertex 9.877158e+001 7.271797e+001 4.758994e+002
      endloop
   endfacet
   facet normal 1.000000e+000 -1.145059e-015 -1.197429e-016
      outer loop
         vertex 8.077158e+001 7.121798e+001 4.478994e+002
         vertex 8.077158e+001 7.271797e+001 4.478994e+002
         vertex 8.077158e+001 7.121798e+001 4.758994e+002
      endloop
   endfacet
   facet normal 1.000000e+000 -1.145059e-015 -1.197429e-016
      outer loop
         vertex 8.077158e+001 7.121798e+001 4.758994e+002
         vertex 8.077158e+001 7.271797e+001 4.478994e+002
         vertex 8.077158e+001 7.271797e+001 4.758994e+002
      endloop
   endfacet
   facet normal -4.165888e-018 -1.971877e-016 1.000000e+000
      outer loop
         vertex 9.877158e+001 7.121798e+001 4.478994e+002
         vertex 9.877158e+001 7.271797e+001 4.478994e+002
         vertex 8.077158e+001 7.121798e+001 4.478994e+002
      endloop
   endfacet
   facet normal -4.165888e-018 -1.971877e-016 1.000000e+000
      outer loop
         vertex 8.077158e+001 7.121798e+001 4.478994e+002
         vertex 9.877158e+001 7.271797e+001 4.478994e+002
         vertex 8.077158e+001 7.271797e+001 4.478994e+002
      endloop
   endfacet
   facet normal -1.132798e-015 -1.000000e+000 -1.980284e-016
      outer loop
         vertex 1.312716e+002 7.121798e+001 4.388994e+002
         vertex 1.312716e+002 7.121798e+001 4.858994e+002
         vertex 1.267716e+002 7.121798e+001 4.758994e+002
      endloop
   endfacet
   facet normal -1.132798e-015 -1.000000e+000 -1.980284e-016
      outer loop
         vertex 1.267716e+002 7.121798e+001 4.758994e+002
         vertex 1.312716e+002 7.121798e+001 4.858994e+002
         vertex 1.287716e+002 7.121798e+001 4.858994e+002
      endloop
   endfacet
   facet normal -1.132798e-015 -1.000000e+000 -1.980284e-016
      outer loop
         vertex 1.267716e+002 7.121798e+001 4.758994e+002
         vertex 1.287716e+002 7.121798e+001 4.858994e+002
         vertex 1.087716e+002 7.121798e+001 4.758994e+002
      endloop
   endfacet
   facet normal -1.132798e-015 -1.000000e+000 -1.980284e-016
      outer loop
         vertex 1.087716e+002 7.121798e+001 4.758994e+002
         vertex 1.287716e+002 7.121798e+001 4.858994e+002
         vertex 1.047716e+002 7.121798e+001 4.858994e+002
      endloop
   endfacet
   facet normal -1.132798e-015 -1.000000e+000 -1.980284e-016
      outer loop
         vertex 1.087716e+002 7.121798e+001 4.758994e+002
         vertex 1.047716e+002 7.121798e+001 4.858994e+002
         vertex 1.087716e+002 7.121798e+001 4.478994e+002
      endloop
   endfacet
   facet normal -1.132798e-015 -1.000000e+000 -1.980284e-016
      outer loop
         vertex 1.087716e+002 7.121798e+001 4.478994e+002
         vertex 1.047716e+002 7.121798e+001 4.858994e+002
         vertex 1.047716e+002 7.121798e+001 4.388994e+002
      endloop
   endfacet
   facet normal -1.132798e-015 -1.000000e+000 -1.980284e-016
      outer loop
         vertex 1.087716e+002 7.121798e+001 4.478994e+002
         vertex 1.047716e+002 7.121798e+001 4.388994e+002
         vertex 1.267716e+002 7.121798e+001 4.478994e+002
      endloop
   endfacet
   facet normal -1.132798e-015 -1.000000e+000 -1.980284e-016
      outer loop
         vertex 1.267716e+002 7.121798e+001 4.478994e+002
         vertex 1.047716e+002 7.121798e+001 4.388994e+002
         vertex 1.312716e+002 7.121798e+001 4.388994e+002
      endloop
   endfacet
   facet normal -1.132798e-015 -1.000000e+000 -1.980284e-016
      outer loop
         vertex 1.267716e+002 7.121798e+001 4.478994e+002
         vertex 1.312716e+002 7.121798e+001 4.388994e+002
         vertex 1.267716e+002 7.121798e+001 4.758994e+002
      endloop
   endfacet
   facet normal -1.000000e+000 7.368892e-016 -4.165888e-018
      outer loop
         vertex 1.312716e+002 7.121798e+001 4.388994e+002
         vertex 1.312716e+002 5.421797e+001 4.388994e+002
         vertex 1.312716e+002 7.121798e+001 4.858994e+002
      endloop
   endfacet
   facet normal -1.000000e+000 7.368892e-016 -4.165888e-018
      outer loop
         vertex 1.312716e+002 7.121798e+001 4.858994e+002
         vertex 1.312716e+002 5.421797e+001 4.388994e+002
         vertex 1.312716e+002 5.421797e+001 4.858994e+002
      endloop
   endfacet
   facet normal 1.124615e-015 1.000000e+000 1.980284e-016
      outer loop
         vertex 1.312716e+002 5.421797e+001 4.858994e+002
         vertex 1.312716e+002 5.421797e+001 4.388994e+002
         vertex 1.287716e+002 5.421797e+001 4.858994e+002
      endloop
   endfacet
   facet normal 1.124615e-015 1.000000e+000 1.980284e-016
      outer loop
         vertex 1.287716e+002 5.421797e+001 4.858994e+002
         vertex 1.312716e+002 5.421797e+001 4.388994e+002
         vertex 1.047716e+002 5.421797e+001 4.388994e+002
      endloop
   endfacet
   facet normal 1.124615e-015 1.000000e+000 1.980284e-016
      outer loop
         vertex 1.287716e+002 5.421797e+001 4.858994e+002
         vertex 1.047716e+002 5.421797e+001 4.388994e+002
         vertex 1.047716e+002 5.421797e+001 4.858994e+002
      endloop
   endfacet
   facet normal 1.000000e+000 -9.409743e-016 4.165888e-018
      outer loop
         vertex 1.047716e+002 5.421797e+001 4.858994e+002
         vertex 1.047716e+002 5.421797e+001 4.388994e+002
         vertex 1.047716e+002 5.521798e+001 4.858994e+002
      endloop
   endfacet
   facet normal 1.000000e+000 -9.409743e-016 4.165888e-018
      outer loop
         vertex 1.047716e+002 5.521798e+001 4.858994e+002
         vertex 1.047716e+002 5.421797e+001 4.388994e+002
         vertex 1.047716e+002 7.121798e+001 4.388994e+002
      endloop
   endfacet
   facet normal 1.000000e+000 -9.409743e-016 4.165888e-018
      outer loop
         vertex 1.047716e+002 5.521798e+001 4.858994e+002
         vertex 1.047716e+002 7.121798e+001 4.388994e+002
         vertex 1.047716e+002 7.021797e+001 4.858994e+002
      endloop
   endfacet
   facet normal 1.000000e+000 -9.409743e-016 4.165888e-018
      outer loop
         vertex 1.047716e+002 7.021797e+001 4.858994e+002
         vertex 1.047716e+002 7.121798e+001 4.388994e+002
         vertex 1.047716e+002 7.121798e+001 4.858994e+002
      endloop
   endfacet
   facet normal -4.165888e-018 -1.971877e-016 1.000000e+000
      outer loop
         vertex 1.047716e+002 7.121798e+001 4.388994e+002
         vertex 1.047716e+002 5.421797e+001 4.388994e+002
         vertex 1.312716e+002 7.121798e+001 4.388994e+002
      endloop
   endfacet
   facet normal -4.165888e-018 -1.971877e-016 1.000000e+000
      outer loop
         vertex 1.312716e+002 7.121798e+001 4.388994e+002
         vertex 1.047716e+002 5.421797e+001 4.388994e+002
         vertex 1.312716e+002 5.421797e+001 4.388994e+002
      endloop
   endfacet
   facet normal -1.132798e-015 -1.000000e+000 -1.980284e-016
      outer loop
         vertex 1.027716e+002 7.121798e+001 4.388994e+002
         vertex 1.027716e+002 7.121798e+001 4.858994e+002
         vertex 9.877158e+001 7.121798e+001 4.758994e+002
      endloop
   endfacet
   facet normal -1.132798e-015 -1.000000e+000 -1.980284e-016
      outer loop
         vertex 9.877158e+001 7.121798e+001 4.758994e+002
         vertex 1.027716e+002 7.121798e+001 4.858994e+002
         vertex 7.877158e+001 7.121798e+001 4.858994e+002
      endloop
   endfacet
   facet normal -1.132798e-015 -1.000000e+000 -1.980284e-016
      outer loop
         vertex 9.877158e+001 7.121798e+001 4.758994e+002
         vertex 7.877158e+001 7.121798e+001 4.858994e+002
         vertex 8.077158e+001 7.121798e+001 4.758994e+002
      endloop
   endfacet
   facet normal -1.132798e-015 -1.000000e+000 -1.980284e-016
      outer loop
         vertex 8.077158e+001 7.121798e+001 4.758994e+002
         vertex 7.877158e+001 7.121798e+001 4.858994e+002
         vertex 7.627158e+001 7.121798e+001 4.858994e+002
      endloop
   endfacet
   facet normal -1.132798e-015 -1.000000e+000 -1.980284e-016
      outer loop
         vertex 8.077158e+001 7.121798e+001 4.758994e+002
         vertex 7.627158e+001 7.121798e+001 4.858994e+002
         vertex 8.077158e+001 7.121798e+001 4.478994e+002
      endloop
   endfacet
   facet normal -1.132798e-015 -1.000000e+000 -1.980284e-016
      outer loop
         vertex 8.077158e+001 7.121798e+001 4.478994e+002
         vertex 7.627158e+001 7.121798e+001 4.858994e+002
         vertex 7.627158e+001 7.121798e+001 4.388994e+002
      endloop
   endfacet
   facet normal -1.132798e-015 -1.000000e+000 -1.980284e-016
      outer loop
         vertex 8.077158e+001 7.121798e+001 4.478994e+002
         vertex 7.627158e+001 7.121798e+001 4.388994e+002
         vertex 9.877158e+001 7.121798e+001 4.478994e+002
      endloop
   endfacet
   facet normal -1.132798e-015 -1.000000e+000 -1.980284e-016
      outer loop
         vertex 9.877158e+001 7.121798e+001 4.478994e+002
         vertex 7.627158e+001 7.121798e+001 4.388994e+002
         vertex 1.027716e+002 7.121798e+001 4.388994e+002
      endloop
   endfacet
   facet normal -1.132798e-015 -1.000000e+000 -1.980284e-016
      outer loop
         vertex 9.877158e+001 7.121798e+001 4.478994e+002
         vertex 1.027716e+002 7.121798e+001 4.388994e+002
         vertex 9.877158e+001 7.121798e+001 4.758994e+002
      endloop
   endfacet
   facet normal -1.000000e+000 1.017506e-015 -4.165888e-018
      outer loop
         vertex 1.027716e+002 7.121798e+001 4.858994e+002
         vertex 1.027716e+002 7.121798e+001 4.388994e+002
         vertex 1.027716e+002 7.021797e+001 4.858994e+002
      endloop
   endfacet
   facet normal -1.000000e+000 1.017506e-015 -4.165888e-018
      outer loop
         vertex 1.027716e+002 7.021797e+001 4.858994e+002
         vertex 1.027716e+002 7.121798e+001 4.388994e+002
         vertex 1.027716e+002 5.421797e+001 4.388994e+002
      endloop
   endfacet
   facet normal -1.000000e+000 1.017506e-015 -4.165888e-018
      outer loop
         vertex 1.027716e+002 7.021797e+001 4.858994e+002
         vertex 1.027716e+002 5.421797e+001 4.388994e+002
         vertex 1.027716e+002 5.521798e+001 4.858994e+002
      endloop
   endfacet
   facet normal -1.000000e+000 1.017506e-015 -4.165888e-018
      outer loop
         vertex 1.027716e+002 5.521798e+001 4.858994e+002
         vertex 1.027716e+002 5.421797e+001 4.388994e+002
         vertex 1.027716e+002 5.421797e+001 4.858994e+002
      endloop
   endfacet
   facet normal 1.124615e-015 1.000000e+000 1.980284e-016
      outer loop
         vertex 1.027716e+002 5.421797e+001 4.858994e+002
         vertex 1.027716e+002 5.421797e+001 4.388994e+002
         vertex 7.877158e+001 5.421797e+001 4.858994e+002
      endloop
   endfacet
   facet normal 1.124615e-015 1.000000e+000 1.980284e-016
      outer loop
         vertex 7.877158e+001 5.421797e+001 4.858994e+002
         vertex 1.027716e+002 5.421797e+001 4.388994e+002
         vertex 7.627158e+001 5.421797e+001 4.388994e+002
      endloop
   endfacet
   facet normal 1.124615e-015 1.000000e+000 1.980284e-016
      outer loop
         vertex 7.877158e+001 5.421797e+001 4.858994e+002
         vertex 7.627158e+001 5.421797e+001 4.388994e+002
         vertex 7.627158e+001 5.421797e+001 4.858994e+002
      endloop
   endfacet
   facet normal 1.000000e+000 -9.409743e-016 4.165888e-018
      outer loop
         vertex 7.627158e+001 5.421797e+001 4.388994e+002
         vertex 7.627158e+001 7.121798e+001 4.388994e+002
         vertex 7.627158e+001 5.421797e+001 4.858994e+002
      endloop
   endfacet
   facet normal 1.000000e+000 -9.409743e-016 4.165888e-018
      outer loop
         vertex 7.627158e+001 5.421797e+001 4.858994e+002
         vertex 7.627158e+001 7.121798e+001 4.388994e+002
         vertex 7.627158e+001 7.121798e+001 4.858994e+002
      endloop
   endfacet
   facet normal -4.165888e-018 -1.971877e-016 1.000000e+000
      outer loop
         vertex 7.627158e+001 7.121798e+001 4.388994e+002
         vertex 7.627158e+001 5.421797e+001 4.388994e+002
         vertex 1.027716e+002 7.121798e+001 4.388994e+002
      endloop
   endfacet
   facet normal -4.165888e-018 -1.971877e-016 1.000000e+000
      outer loop
         vertex 1.027716e+002 7.121798e+001 4.388994e+002
         vertex 7.627158e+001 5.421797e+001 4.388994e+002
         vertex 1.027716e+002 5.421797e+001 4.388994e+002
      endloop
   endfacet
   facet normal 4.165888e-018 1.971877e-016 -1.000000e+000
      outer loop
         vertex 7.877158e+001 5.421797e+001 4.858994e+002
         vertex 7.877158e+001 5.521798e+001 4.858994e+002
         vertex 1.027716e+002 5.421797e+001 4.858994e+002
      endloop
   endfacet
   facet normal 4.165888e-018 1.971877e-016 -1.000000e+000
      outer loop
         vertex 1.027716e+002 5.421797e+001 4.858994e+002
         vertex 7.877158e+001 5.521798e+001 4.858994e+002
         vertex 1.027716e+002 5.521798e+001 4.858994e+002
      endloop
   endfacet
   facet normal 1.000000e+000 2.427193e-016 4.165888e-018
      outer loop
         vertex 1.287716e+002 5.521798e+001 4.858994e+002
         vertex 1.287716e+002 5.341797e+001 4.898994e+002
         vertex 1.287716e+002 5.421797e+001 4.858994e+002
      endloop
   endfacet
   facet normal 1.000000e+000 2.427193e-016 4.165888e-018
      outer loop
         vertex 1.287716e+002 5.421797e+001 4.858994e+002
         vertex 1.287716e+002 5.341797e+001 4.898994e+002
         vertex 1.287716e+002 5.271797e+001 4.898994e+002
      endloop
   endfacet
   facet normal 1.000000e+000 2.427193e-016 4.165888e-018
      outer loop
         vertex 1.287716e+002 5.421797e+001 4.858994e+002
         vertex 1.287716e+002 5.271797e+001 4.898994e+002
         vertex 1.287716e+002 5.271797e+001 4.858994e+002
      endloop
   endfacet
   facet normal -1.000000e+000 -2.427193e-016 -4.165888e-018
      outer loop
         vertex 7.877158e+001 5.271797e+001 4.858994e+002
         vertex 7.877158e+001 5.271797e+001 4.898994e+002
         vertex 7.877158e+001 5.421797e+001 4.858994e+002
      endloop
   endfacet
   facet normal -1.000000e+000 -2.427193e-016 -4.165888e-018
      outer loop
         vertex 7.877158e+001 5.421797e+001 4.858994e+002
         vertex 7.877158e+001 5.271797e+001 4.898994e+002
         vertex 7.877158e+001 5.341797e+001 4.898994e+002
      endloop
   endfacet
   facet normal -1.000000e+000 -2.427193e-016 -4.165888e-018
      outer loop
         vertex 7.877158e+001 5.421797e+001 4.858994e+002
         vertex 7.877158e+001 5.341797e+001 4.898994e+002
         vertex 7.877158e+001 5.521798e+001 4.858994e+002
      endloop
   endfacet
   facet normal -4.165888e-018 -1.971877e-016 1.000000e+000
      outer loop
         vertex 7.877158e+001 5.271797e+001 4.898994e+002
         vertex 1.287716e+002 5.271797e+001 4.898994e+002
         vertex 7.877158e+001 5.341797e+001 4.898994e+002
      endloop
   endfacet
   facet normal -4.165888e-018 -1.971877e-016 1.000000e+000
      outer loop
         vertex 7.877158e+001 5.341797e+001 4.898994e+002
         vertex 1.287716e+002 5.271797e+001 4.898994e+002
         vertex 1.287716e+002 5.341797e+001 4.898994e+002
      endloop
   endfacet
   facet normal 4.165888e-018 1.971877e-016 -1.000000e+000
      outer loop
         vertex 1.047716e+002 5.521798e+001 4.858994e+002
         vertex 1.287716e+002 5.521798e+001 4.858994e+002
         vertex 1.047716e+002 5.421797e+001 4.858994e+002
      endloop
   endfacet
   facet normal 4.165888e-018 1.971877e-016 -1.000000e+000
      outer loop
         vertex 1.047716e+002 5.421797e+001 4.858994e+002
         vertex 1.287716e+002 5.521798e+001 4.858994e+002
         vertex 1.287716e+002 5.421797e+001 4.858994e+002
      endloop
   endfacet
   facet normal 4.165888e-018 1.971877e-016 -1.000000e+000
      outer loop
         vertex 1.287716e+002 7.121798e+001 4.858994e+002
         vertex 1.287716e+002 7.021797e+001 4.858994e+002
         vertex 1.047716e+002 7.121798e+001 4.858994e+002
      endloop
   endfacet
   facet normal 4.165888e-018 1.971877e-016 -1.000000e+000
      outer loop
         vertex 1.047716e+002 7.121798e+001 4.858994e+002
         vertex 1.287716e+002 7.021797e+001 4.858994e+002
         vertex 1.047716e+002 7.021797e+001 4.858994e+002
      endloop
   endfacet
   facet normal 4.165888e-018 1.971877e-016 -1.000000e+000
      outer loop
         vertex 1.027716e+002 7.121798e+001 4.858994e+002
         vertex 1.027716e+002 7.021797e+001 4.858994e+002
         vertex 7.877158e+001 7.121798e+001 4.858994e+002
      endloop
   endfacet
   facet normal 4.165888e-018 1.971877e-016 -1.000000e+000
      outer loop
         vertex 7.877158e+001 7.121798e+001 4.858994e+002
         vertex 1.027716e+002 7.021797e+001 4.858994e+002
         vertex 7.877158e+001 7.021797e+001 4.858994e+002
      endloop
   endfacet
   facet normal -1.000000e+000 2.532838e-015 -4.165888e-018
      outer loop
         vertex 7.877158e+001 7.021797e+001 4.858994e+002
         vertex 7.877158e+001 7.201797e+001 4.898994e+002
         vertex 7.877158e+001 7.121798e+001 4.858994e+002
      endloop
   endfacet
   facet normal -1.000000e+000 2.532838e-015 -4.165888e-018
      outer loop
         vertex 7.877158e+001 7.121798e+001 4.858994e+002
         vertex 7.877158e+001 7.201797e+001 4.898994e+002
         vertex 7.877158e+001 7.271797e+001 4.898994e+002
      endloop
   endfacet
   facet normal -1.000000e+000 2.532838e-015 -4.165888e-018
      outer loop
         vertex 7.877158e+001 7.121798e+001 4.858994e+002
         vertex 7.877158e+001 7.271797e+001 4.898994e+002
         vertex 7.877158e+001 7.271797e+001 4.858994e+002
      endloop
   endfacet
   facet normal 1.000000e+000 -2.532838e-015 4.165888e-018
      outer loop
         vertex 1.287716e+002 7.271797e+001 4.858994e+002
         vertex 1.287716e+002 7.271797e+001 4.898994e+002
         vertex 1.287716e+002 7.121798e+001 4.858994e+002
      endloop
   endfacet
   facet normal 1.000000e+000 -2.532838e-015 4.165888e-018
      outer loop
         vertex 1.287716e+002 7.121798e+001 4.858994e+002
         vertex 1.287716e+002 7.271797e+001 4.898994e+002
         vertex 1.287716e+002 7.201797e+001 4.898994e+002
      endloop
   endfacet
   facet normal 1.000000e+000 -2.532838e-015 4.165888e-018
      outer loop
         vertex 1.287716e+002 7.121798e+001 4.858994e+002
         vertex 1.287716e+002 7.201797e+001 4.898994e+002
         vertex 1.287716e+002 7.021797e+001 4.858994e+002
      endloop
   endfacet
   facet normal -4.165888e-018 -1.971877e-016 1.000000e+000
      outer loop
         vertex 1.287716e+002 7.271797e+001 4.898994e+002
         vertex 7.877158e+001 7.271797e+001 4.898994e+002
         vertex 1.287716e+002 7.201797e+001 4.898994e+002
      endloop
   endfacet
   facet normal -4.165888e-018 -1.971877e-016 1.000000e+000
      outer loop
         vertex 1.287716e+002 7.201797e+001 4.898994e+002
         vertex 7.877158e+001 7.271797e+001 4.898994e+002
         vertex 7.877158e+001 7.201797e+001 4.898994e+002
      endloop
   endfacet
   facet normal -2.342321e-016 9.119215e-001 4.103647e-001
      outer loop
         vertex 1.027716e+002 5.521798e+001 4.858994e+002
         vertex 7.877158e+001 5.521798e+001 4.858994e+002
         vertex 7.877158e+001 5.341797e+001 4.898994e+002
      endloop
   endfacet
   facet normal -2.342321e-016 9.119215e-001 4.103647e-001
      outer loop
         vertex 1.027716e+002 5.521798e+001 4.858994e+002
         vertex 7.877158e+001 5.341797e+001 4.898994e+002
         vertex 1.047716e+002 5.521798e+001 4.858994e+002
      endloop
   endfacet
   facet normal -2.342321e-016 9.119215e-001 4.103647e-001
      outer loop
         vertex 1.047716e+002 5.521798e+001 4.858994e+002
         vertex 7.877158e+001 5.341797e+001 4.898994e+002
         vertex 1.287716e+002 5.341797e+001 4.898994e+002
      endloop
   endfacet
   facet normal -2.342321e-016 9.119215e-001 4.103647e-001
      outer loop
         vertex 1.047716e+002 5.521798e+001 4.858994e+002
         vertex 1.287716e+002 5.341797e+001 4.898994e+002
         vertex 1.287716e+002 5.521798e+001 4.858994e+002
      endloop
   endfacet
   facet normal 2.308130e-016 -9.119215e-001 4.103647e-001
      outer loop
         vertex 1.047716e+002 7.021797e+001 4.858994e+002
         vertex 1.287716e+002 7.021797e+001 4.858994e+002
         vertex 1.287716e+002 7.201797e+001 4.898994e+002
      endloop
   endfacet
   facet normal 2.308130e-016 -9.119215e-001 4.103647e-001
      outer loop
         vertex 1.047716e+002 7.021797e+001 4.858994e+002
         vertex 1.287716e+002 7.201797e+001 4.898994e+002
         vertex 1.027716e+002 7.021797e+001 4.858994e+002
      endloop
   endfacet
   facet normal 2.308130e-016 -9.119215e-001 4.103647e-001
      outer loop
         vertex 1.027716e+002 7.021797e+001 4.858994e+002
         vertex 1.287716e+002 7.201797e+001 4.898994e+002
         vertex 7.877158e+001 7.201797e+001 4.898994e+002
      endloop
   endfacet
   facet normal 2.308130e-016 -9.119215e-001 4.103647e-001
      outer loop
         vertex 1.027716e+002 7.021797e+001 4.858994e+002
         vertex 7.877158e+001 7.201797e+001 4.898994e+002
         vertex 7.877158e+001 7.021797e+001 4.858994e+002
      endloop
   endfacet
   facet normal 5.807914e-002 -9.983120e-001 -1.974522e-016
      outer loop
         vertex 1.307716e+002 5.271797e+001 4.858994e+002
         vertex 1.307716e+002 5.271797e+001 4.378994e+002
         vertex 1.312925e+002 5.276355e+001 4.378994e+002
      endloop
   endfacet
   facet normal 1.161583e-001 -9.932307e-001 -1.962040e-016
      outer loop
         vertex 1.307716e+002 5.271797e+001 4.858994e+002
         vertex 1.312925e+002 5.276355e+001 4.378994e+002
         vertex 1.312925e+002 5.276355e+001 4.858994e+002
      endloop
   endfacet
   facet normal 2.305519e-001 -9.730600e-001 -1.917331e-016
      outer loop
         vertex 1.312925e+002 5.276355e+001 4.858994e+002
         vertex 1.312925e+002 5.276355e+001 4.378994e+002
         vertex 1.317976e+002 5.289890e+001 4.378994e+002
      endloop
   endfacet
   facet normal 2.868663e-001 -9.579706e-001 -1.885104e-016
      outer loop
         vertex 1.312925e+002 5.276355e+001 4.858994e+002
         vertex 1.317976e+002 5.289890e+001 4.378994e+002
         vertex 1.317976e+002 5.289890e+001 4.858994e+002
      endloop
   endfacet
   facet normal 3.960194e-001 -9.182422e-001 -1.801883e-016
      outer loop
         vertex 1.317976e+002 5.289890e+001 4.858994e+002
         vertex 1.317976e+002 5.289890e+001 4.378994e+002
         vertex 1.322716e+002 5.311990e+001 4.378994e+002
      endloop
   endfacet
   facet normal 4.488580e-001 -8.936031e-001 -1.750889e-016
      outer loop
         vertex 1.317976e+002 5.289890e+001 4.858994e+002
         vertex 1.322716e+002 5.311990e+001 4.378994e+002
         vertex 1.322716e+002 5.311990e+001 4.858994e+002
      endloop
   endfacet
   facet normal 5.494540e-001 -8.355240e-001 -1.631685e-016
      outer loop
         vertex 1.322716e+002 5.311990e+001 4.858994e+002
         vertex 1.322716e+002 5.311990e+001 4.378994e+002
         vertex 1.327000e+002 5.341984e+001 4.378994e+002
      endloop
   endfacet
   facet normal 5.972114e-001 -8.020839e-001 -1.563475e-016
      outer loop
         vertex 1.322716e+002 5.311990e+001 4.858994e+002
         vertex 1.327000e+002 5.341984e+001 4.378994e+002
         vertex 1.327000e+002 5.341984e+001 4.858994e+002
      endloop
   endfacet
   facet normal 6.861938e-001 -7.274188e-001 -1.411910e-016
      outer loop
         vertex 1.327000e+002 5.341984e+001 4.858994e+002
         vertex 1.327000e+002 5.341984e+001 4.378994e+002
         vertex 1.330697e+002 5.378961e+001 4.378994e+002
      endloop
   endfacet
   facet normal 7.274188e-001 -6.861938e-001 -1.328555e-016
      outer loop
         vertex 1.327000e+002 5.341984e+001 4.858994e+002
         vertex 1.330697e+002 5.378961e+001 4.378994e+002
         vertex 1.330697e+002 5.378961e+001 4.858994e+002
      endloop
   endfacet
   facet normal 8.020839e-001 -5.972114e-001 -1.149234e-016
      outer loop
         vertex 1.330697e+002 5.378961e+001 4.858994e+002
         vertex 1.330697e+002 5.378961e+001 4.378994e+002
         vertex 1.333697e+002 5.421797e+001 4.378994e+002
      endloop
   endfacet
   facet normal 8.355240e-001 -5.494540e-001 -1.053268e-016
      outer loop
         vertex 1.330697e+002 5.378961e+001 4.858994e+002
         vertex 1.333697e+002 5.421797e+001 4.378994e+002
         vertex 1.333697e+002 5.421797e+001 4.858994e+002
      endloop
   endfacet
   facet normal 8.936031e-001 -4.488580e-001 -8.516400e-017
      outer loop
         vertex 1.333697e+002 5.421797e+001 4.858994e+002
         vertex 1.333697e+002 5.421797e+001 4.378994e+002
         vertex 1.335907e+002 5.469191e+001 4.378994e+002
      endloop
   endfacet
   facet normal 9.182422e-001 -3.960194e-001 -7.459781e-017
      outer loop
         vertex 1.333697e+002 5.421797e+001 4.858994e+002
         vertex 1.335907e+002 5.469191e+001 4.378994e+002
         vertex 1.335907e+002 5.469191e+001 4.858994e+002
      endloop
   endfacet
   facet normal 9.579706e-001 -2.868663e-001 -5.281689e-017
      outer loop
         vertex 1.335907e+002 5.469191e+001 4.858994e+002
         vertex 1.335907e+002 5.469191e+001 4.378994e+002
         vertex 1.337260e+002 5.519703e+001 4.378994e+002
      endloop
   endfacet
   facet normal 9.730600e-001 -2.305519e-001 -4.160217e-017
      outer loop
         vertex 1.335907e+002 5.469191e+001 4.858994e+002
         vertex 1.337260e+002 5.519703e+001 4.378994e+002
         vertex 1.337260e+002 5.519703e+001 4.858994e+002
      endloop
   endfacet
   facet normal 9.932307e-001 -1.161583e-001 -1.886496e-017
      outer loop
         vertex 1.337260e+002 5.519703e+001 4.858994e+002
         vertex 1.337260e+002 5.519703e+001 4.378994e+002
         vertex 1.337716e+002 5.571797e+001 4.378994e+002
      endloop
   endfacet
   facet normal 9.983120e-001 -5.807914e-002 -7.342465e-018
      outer loop
         vertex 1.337260e+002 5.519703e+001 4.858994e+002
         vertex 1.337716e+002 5.571797e+001 4.378994e+002
         vertex 1.337716e+002 5.571797e+001 4.858994e+002
      endloop
   endfacet
endsolid