solid Hydra - middle_ringFingers-1 middleActuator-1
   facet normal 9.989784e-001 8.402567e-015 -4.518990e-002
      outer loop
         vertex 8.799728e+001 8.691111e+001 9.672769e+001
         vertex 8.797024e+001 8.695589e+001 9.612997e+001
         vertex 8.801077e+001 9.089996e+001 9.702592e+001
      endloop
   endfacet
   facet normal 9.989784e-001 8.402567e-015 -4.518990e-002
      outer loop
         vertex 8.801077e+001 9.089996e+001 9.702592e+001
         vertex 8.797024e+001 8.695589e+001 9.612997e+001
         vertex 8.798373e+001 9.094474e+001 9.642821e+001
      endloop
   endfacet
   facet normal 9.989784e-001 8.402567e-015 -4.518990e-002
      outer loop
         vertex 9.376069e+001 7.917545e+001 2.241351e+002
         vertex 9.376212e+001 7.936923e+001 2.241668e+002
         vertex 9.382854e+001 7.725364e+001 2.256350e+002
      endloop
   endfacet
   facet normal 9.989784e-001 8.402567e-015 -4.518990e-002
      outer loop
         vertex 9.382854e+001 7.725364e+001 2.256350e+002
         vertex 9.376212e+001 7.936923e+001 2.241668e+002
         vertex 9.384203e+001 8.124249e+001 2.259332e+002
      endloop
   endfacet
   facet normal 9.989784e-001 8.402567e-015 -4.518990e-002
      outer loop
         vertex 9.384203e+001 8.124249e+001 2.259332e+002
         vertex 9.376212e+001 7.936923e+001 2.241668e+002
         vertex 9.376201e+001 7.956557e+001 2.241643e+002
      endloop
   endfacet
   facet normal 9.989784e-001 8.402567e-015 -4.518990e-002
      outer loop
         vertex 9.384203e+001 8.124249e+001 2.259332e+002
         vertex 9.376201e+001 7.956557e+001 2.241643e+002
         vertex 9.376036e+001 7.975851e+001 2.241278e+002
      endloop
   endfacet
   facet normal 9.989784e-001 8.402567e-015 -4.518990e-002
      outer loop
         vertex 9.376036e+001 7.975851e+001 2.241278e+002
         vertex 9.375722e+001 7.994218e+001 2.240584e+002
         vertex 9.384203e+001 8.124249e+001 2.259332e+002
      endloop
   endfacet
   facet normal 9.989784e-001 8.402567e-015 -4.518990e-002
      outer loop
         vertex 9.384203e+001 8.124249e+001 2.259332e+002
         vertex 9.375722e+001 7.994218e+001 2.240584e+002
         vertex 9.375269e+001 8.011098e+001 2.239582e+002
      endloop
   endfacet
   facet normal 9.989784e-001 8.402567e-015 -4.518990e-002
      outer loop
         vertex 9.384203e+001 8.124249e+001 2.259332e+002
         vertex 9.375269e+001 8.011098e+001 2.239582e+002
         vertex 9.374690e+001 8.025980e+001 2.238302e+002
      endloop
   endfacet
   facet normal 9.989784e-001 8.402567e-015 -4.518990e-002
      outer loop
         vertex 9.374780e+001 7.866682e+001 2.238503e+002
         vertex 9.375342e+001 7.881881e+001 2.239744e+002
         vertex 9.382854e+001 7.725364e+001 2.256350e+002
      endloop
   endfacet
   facet normal 9.989784e-001 8.402567e-015 -4.518990e-002
      outer loop
         vertex 9.382854e+001 7.725364e+001 2.256350e+002
         vertex 9.375342e+001 7.881881e+001 2.239744e+002
         vertex 9.375777e+001 7.899009e+001 2.240704e+002
      endloop
   endfacet
   facet normal 9.989784e-001 8.402567e-015 -4.518990e-002
      outer loop
         vertex 9.382854e+001 7.725364e+001 2.256350e+002
         vertex 9.375777e+001 7.899009e+001 2.240704e+002
         vertex 9.376069e+001 7.917545e+001 2.241351e+002
      endloop
   endfacet
   facet normal 9.989784e-001 8.402567e-015 -4.518990e-002
      outer loop
         vertex 9.368926e+001 8.046820e+001 2.225562e+002
         vertex 9.368164e+001 8.036788e+001 2.223876e+002
         vertex 8.819102e+001 9.060143e+001 1.010107e+002
      endloop
   endfacet
   facet normal 9.989784e-001 8.402567e-015 -4.518990e-002
      outer loop
         vertex 8.819102e+001 9.060143e+001 1.010107e+002
         vertex 9.368164e+001 8.036788e+001 2.223876e+002
         vertex 9.367491e+001 8.023978e+001 2.222389e+002
      endloop
   endfacet
   facet normal 9.989784e-001 8.402567e-015 -4.518990e-002
      outer loop
         vertex 9.374690e+001 8.025980e+001 2.238302e+002
         vertex 9.374003e+001 8.038412e+001 2.236784e+002
         vertex 9.384203e+001 8.124249e+001 2.259332e+002
      endloop
   endfacet
   facet normal 9.989784e-001 8.402567e-015 -4.518990e-002
      outer loop
         vertex 9.384203e+001 8.124249e+001 2.259332e+002
         vertex 9.374003e+001 8.038412e+001 2.236784e+002
         vertex 9.373229e+001 8.048016e+001 2.235073e+002
      endloop
   endfacet
   facet normal 9.989784e-001 8.402567e-015 -4.518990e-002
      outer loop
         vertex 9.384203e+001 8.124249e+001 2.259332e+002
         vertex 9.373229e+001 8.048016e+001 2.235073e+002
         vertex 9.372392e+001 8.054500e+001 2.233222e+002
      endloop
   endfacet
   facet normal 9.989784e-001 8.402567e-015 -4.518990e-002
      outer loop
         vertex 9.367491e+001 8.023978e+001 2.222389e+002
         vertex 9.366930e+001 8.008780e+001 2.221147e+002
         vertex 8.819102e+001 9.060143e+001 1.010107e+002
      endloop
   endfacet
   facet normal 9.989784e-001 8.402567e-015 -4.518990e-002
      outer loop
         vertex 8.819102e+001 9.060143e+001 1.010107e+002
         vertex 9.366930e+001 8.008780e+001 2.221147e+002
         vertex 9.366496e+001 7.991652e+001 2.220188e+002
      endloop
   endfacet
   facet normal 9.989784e-001 8.402567e-015 -4.518990e-002
      outer loop
         vertex 8.819102e+001 9.060143e+001 1.010107e+002
         vertex 9.366496e+001 7.991652e+001 2.220188e+002
         vertex 8.817753e+001 8.661258e+001 1.007125e+002
      endloop
   endfacet
   facet normal 9.989784e-001 8.402567e-015 -4.518990e-002
      outer loop
         vertex 8.817753e+001 8.661258e+001 1.007125e+002
         vertex 9.366496e+001 7.991652e+001 2.220188e+002
         vertex 9.366203e+001 7.973117e+001 2.219540e+002
      endloop
   endfacet
   facet normal 9.989784e-001 8.402567e-015 -4.518990e-002
      outer loop
         vertex 8.817753e+001 8.661258e+001 1.007125e+002
         vertex 9.366203e+001 7.973117e+001 2.219540e+002
         vertex 9.366059e+001 7.953738e+001 2.219223e+002
      endloop
   endfacet
   facet normal 9.989784e-001 8.402567e-015 -4.518990e-002
      outer loop
         vertex 9.366059e+001 7.953738e+001 2.219223e+002
         vertex 9.366071e+001 7.934103e+001 2.219248e+002
         vertex 8.817753e+001 8.661258e+001 1.007125e+002
      endloop
   endfacet
   facet normal 9.989784e-001 8.402567e-015 -4.518990e-002
      outer loop
         vertex 8.817753e+001 8.661258e+001 1.007125e+002
         vertex 9.366071e+001 7.934103e+001 2.219248e+002
         vertex 9.366236e+001 7.914810e+001 2.219613e+002
      endloop
   endfacet
   facet normal 9.989784e-001 8.402567e-015 -4.518990e-002
      outer loop
         vertex 8.817753e+001 8.661258e+001 1.007125e+002
         vertex 9.366236e+001 7.914810e+001 2.219613e+002
         vertex 9.366550e+001 7.896443e+001 2.220307e+002
      endloop
   endfacet
   facet normal 9.989784e-001 8.402567e-015 -4.518990e-002
      outer loop
         vertex 9.371644e+001 7.833242e+001 2.231567e+002
         vertex 9.372515e+001 7.836894e+001 2.233495e+002
         vertex 9.382854e+001 7.725364e+001 2.256350e+002
      endloop
   endfacet
   facet normal 9.989784e-001 8.402567e-015 -4.518990e-002
      outer loop
         vertex 9.372515e+001 7.836894e+001 2.233495e+002
         vertex 9.373345e+001 7.843841e+001 2.235329e+002
         vertex 9.382854e+001 7.725364e+001 2.256350e+002
      endloop
   endfacet
   facet normal 9.989784e-001 8.402567e-015 -4.518990e-002
      outer loop
         vertex 9.382854e+001 7.725364e+001 2.256350e+002
         vertex 9.373345e+001 7.843841e+001 2.235329e+002
         vertex 9.374108e+001 7.853873e+001 2.237016e+002
      endloop
   endfacet
   facet normal 9.989784e-001 8.402567e-015 -4.518990e-002
      outer loop
         vertex 9.382854e+001 7.725364e+001 2.256350e+002
         vertex 9.374108e+001 7.853873e+001 2.237016e+002
         vertex 9.374780e+001 7.866682e+001 2.238503e+002
      endloop
   endfacet
   facet normal 9.989784e-001 8.402567e-015 -4.518990e-002
      outer loop
         vertex 9.372392e+001 8.054500e+001 2.233222e+002
         vertex 9.371516e+001 8.057667e+001 2.231286e+002
         vertex 9.384203e+001 8.124249e+001 2.259332e+002
      endloop
   endfacet
   facet normal 9.989784e-001 8.402567e-015 -4.518990e-002
      outer loop
         vertex 9.384203e+001 8.124249e+001 2.259332e+002
         vertex 9.371516e+001 8.057667e+001 2.231286e+002
         vertex 9.370629e+001 8.057420e+001 2.229324e+002
      endloop
   endfacet
   facet normal 9.989784e-001 8.402567e-015 -4.518990e-002
      outer loop
         vertex 9.384203e+001 8.124249e+001 2.259332e+002
         vertex 9.370629e+001 8.057420e+001 2.229324e+002
         vertex 8.819102e+001 9.060143e+001 1.010107e+002
      endloop
   endfacet
   facet normal 9.989784e-001 8.402567e-015 -4.518990e-002
      outer loop
         vertex 8.819102e+001 9.060143e+001 1.010107e+002
         vertex 9.370629e+001 8.057420e+001 2.229324e+002
         vertex 9.369756e+001 8.053767e+001 2.227397e+002
      endloop
   endfacet
   facet normal 9.989784e-001 8.402567e-015 -4.518990e-002
      outer loop
         vertex 8.819102e+001 9.060143e+001 1.010107e+002
         vertex 9.369756e+001 8.053767e+001 2.227397e+002
         vertex 9.368926e+001 8.046820e+001 2.225562e+002
      endloop
   endfacet
   facet normal 9.989784e-001 8.402567e-015 -4.518990e-002
      outer loop
         vertex 9.366550e+001 7.896443e+001 2.220307e+002
         vertex 9.367003e+001 7.879562e+001 2.221309e+002
         vertex 8.817753e+001 8.661258e+001 1.007125e+002
      endloop
   endfacet
   facet normal 9.989784e-001 8.402567e-015 -4.518990e-002
      outer loop
         vertex 8.817753e+001 8.661258e+001 1.007125e+002
         vertex 9.367003e+001 7.879562e+001 2.221309e+002
         vertex 9.367581e+001 7.864680e+001 2.222589e+002
      endloop
   endfacet
   facet normal 9.989784e-001 8.402567e-015 -4.518990e-002
      outer loop
         vertex 8.817753e+001 8.661258e+001 1.007125e+002
         vertex 9.367581e+001 7.864680e+001 2.222589e+002
         vertex 9.368269e+001 7.852249e+001 2.224107e+002
      endloop
   endfacet
   facet normal 9.989784e-001 8.402567e-015 -4.518990e-002
      outer loop
         vertex 9.368269e+001 7.852249e+001 2.224107e+002
         vertex 9.369042e+001 7.842645e+001 2.225818e+002
         vertex 8.817753e+001 8.661258e+001 1.007125e+002
      endloop
   endfacet
   facet normal 9.989784e-001 8.402567e-015 -4.518990e-002
      outer loop
         vertex 8.817753e+001 8.661258e+001 1.007125e+002
         vertex 9.369042e+001 7.842645e+001 2.225818e+002
         vertex 9.369880e+001 7.836162e+001 2.227670e+002
      endloop
   endfacet
   facet normal 9.989784e-001 8.402567e-015 -4.518990e-002
      outer loop
         vertex 8.817753e+001 8.661258e+001 1.007125e+002
         vertex 9.369880e+001 7.836162e+001 2.227670e+002
         vertex 9.382854e+001 7.725364e+001 2.256350e+002
      endloop
   endfacet
   facet normal 9.989784e-001 8.402567e-015 -4.518990e-002
      outer loop
         vertex 9.382854e+001 7.725364e+001 2.256350e+002
         vertex 9.369880e+001 7.836162e+001 2.227670e+002
         vertex 9.370757e+001 7.832994e+001 2.229606e+002
      endloop
   endfacet
   facet normal 9.989784e-001 8.402567e-015 -4.518990e-002
      outer loop
         vertex 9.382854e+001 7.725364e+001 2.256350e+002
         vertex 9.370757e+001 7.832994e+001 2.229606e+002
         vertex 9.371644e+001 7.833242e+001 2.231567e+002
      endloop
   endfacet
   facet normal -9.989784e-001 -8.402567e-015 4.518990e-002
      outer loop
         vertex 8.398781e+001 9.094474e+001 9.660896e+001
         vertex 8.397433e+001 8.695589e+001 9.631075e+001
         vertex 8.399681e+001 9.092984e+001 9.680781e+001
      endloop
   endfacet
   facet normal -9.989784e-001 -8.402567e-015 4.518990e-002
      outer loop
         vertex 8.399681e+001 9.092984e+001 9.680781e+001
         vertex 8.397433e+001 8.695589e+001 9.631075e+001
         vertex 8.398331e+001 8.694099e+001 9.650958e+001
      endloop
   endfacet
   facet normal -9.989784e-001 -8.402567e-015 4.518990e-002
      outer loop
         vertex 8.976477e+001 7.917545e+001 2.243159e+002
         vertex 8.976185e+001 7.899009e+001 2.242511e+002
         vertex 8.983263e+001 7.725364e+001 2.258158e+002
      endloop
   endfacet
   facet normal -9.989784e-001 -8.402567e-015 4.518990e-002
      outer loop
         vertex 8.966958e+001 7.896443e+001 2.222115e+002
         vertex 8.966644e+001 7.914810e+001 2.221421e+002
         vertex 8.416357e+001 8.664246e+001 1.004943e+002
      endloop
   endfacet
   facet normal -9.989784e-001 -8.402567e-015 4.518990e-002
      outer loop
         vertex 8.966644e+001 7.914810e+001 2.221421e+002
         vertex 8.966479e+001 7.934103e+001 2.221056e+002
         vertex 8.416357e+001 8.664246e+001 1.004943e+002
      endloop
   endfacet
   facet normal -9.989784e-001 -8.402567e-015 4.518990e-002
      outer loop
         vertex 8.416357e+001 8.664246e+001 1.004943e+002
         vertex 8.966479e+001 7.934103e+001 2.221056e+002
         vertex 8.966468e+001 7.953738e+001 2.221031e+002
      endloop
   endfacet
   facet normal -9.989784e-001 -8.402567e-015 4.518990e-002
      outer loop
         vertex 8.416357e+001 8.664246e+001 1.004943e+002
         vertex 8.966468e+001 7.953738e+001 2.221031e+002
         vertex 8.417706e+001 9.063132e+001 1.007926e+002
      endloop
   endfacet
   facet normal -9.989784e-001 -8.402567e-015 4.518990e-002
      outer loop
         vertex 8.417706e+001 9.063132e+001 1.007926e+002
         vertex 8.966468e+001 7.953738e+001 2.221031e+002
         vertex 8.966611e+001 7.973117e+001 2.221348e+002
      endloop
   endfacet
   facet normal -9.989784e-001 -8.402567e-015 4.518990e-002
      outer loop
         vertex 8.417706e+001 9.063132e+001 1.007926e+002
         vertex 8.966611e+001 7.973117e+001 2.221348e+002
         vertex 8.966904e+001 7.991652e+001 2.221995e+002
      endloop
   endfacet
   facet normal -9.989784e-001 -8.402567e-015 4.518990e-002
      outer loop
         vertex 8.976131e+001 7.994218e+001 2.242392e+002
         vertex 8.984612e+001 8.124249e+001 2.261140e+002
         vertex 8.975677e+001 8.011098e+001 2.241390e+002
      endloop
   endfacet
   facet normal -9.989784e-001 -8.402567e-015 4.518990e-002
      outer loop
         vertex 8.975677e+001 8.011098e+001 2.241390e+002
         vertex 8.984612e+001 8.124249e+001 2.261140e+002
         vertex 8.975098e+001 8.025980e+001 2.240110e+002
      endloop
   endfacet
   facet normal -9.989784e-001 -8.402567e-015 4.518990e-002
      outer loop
         vertex 8.976131e+001 7.994218e+001 2.242392e+002
         vertex 8.976444e+001 7.975851e+001 2.243086e+002
         vertex 8.984612e+001 8.124249e+001 2.261140e+002
      endloop
   endfacet
   facet normal -9.989784e-001 -8.402567e-015 4.518990e-002
      outer loop
         vertex 8.984612e+001 8.124249e+001 2.261140e+002
         vertex 8.976444e+001 7.975851e+001 2.243086e+002
         vertex 8.976610e+001 7.956557e+001 2.243451e+002
      endloop
   endfacet
   facet normal -9.989784e-001 -8.402567e-015 4.518990e-002
      outer loop
         vertex 8.984612e+001 8.124249e+001 2.261140e+002
         vertex 8.976610e+001 7.956557e+001 2.243451e+002
         vertex 8.983263e+001 7.725364e+001 2.258158e+002
      endloop
   endfacet
   facet normal -9.989784e-001 -8.402567e-015 4.518990e-002
      outer loop
         vertex 8.983263e+001 7.725364e+001 2.258158e+002
         vertex 8.976610e+001 7.956557e+001 2.243451e+002
         vertex 8.976621e+001 7.936923e+001 2.243475e+002
      endloop
   endfacet
   facet normal -9.989784e-001 -8.402567e-015 4.518990e-002
      outer loop
         vertex 8.983263e+001 7.725364e+001 2.258158e+002
         vertex 8.976621e+001 7.936923e+001 2.243475e+002
         vertex 8.976477e+001 7.917545e+001 2.243159e+002
      endloop
   endfacet
   facet normal -9.989784e-001 -8.402567e-015 4.518990e-002
      outer loop
         vertex 8.976185e+001 7.899009e+001 2.242511e+002
         vertex 8.975751e+001 7.881881e+001 2.241552e+002
         vertex 8.983263e+001 7.725364e+001 2.258158e+002
      endloop
   endfacet
   facet normal -9.989784e-001 -8.402567e-015 4.518990e-002
      outer loop
         vertex 8.983263e+001 7.725364e+001 2.258158e+002
         vertex 8.975751e+001 7.881881e+001 2.241552e+002
         vertex 8.975189e+001 7.866682e+001 2.240310e+002
      endloop
   endfacet
   facet normal -9.989784e-001 -8.402567e-015 4.518990e-002
      outer loop
         vertex 8.983263e+001 7.725364e+001 2.258158e+002
         vertex 8.975189e+001 7.866682e+001 2.240310e+002
         vertex 8.974516e+001 7.853873e+001 2.238823e+002
      endloop
   endfacet
   facet normal -9.989784e-001 -8.402567e-015 4.518990e-002
      outer loop
         vertex 8.968572e+001 8.036788e+001 2.225683e+002
         vertex 8.969335e+001 8.046820e+001 2.227370e+002
         vertex 8.417706e+001 9.063132e+001 1.007926e+002
      endloop
   endfacet
   facet normal -9.989784e-001 -8.402567e-015 4.518990e-002
      outer loop
         vertex 8.972800e+001 8.054500e+001 2.235029e+002
         vertex 8.973638e+001 8.048016e+001 2.236881e+002
         vertex 8.984612e+001 8.124249e+001 2.261140e+002
      endloop
   endfacet
   facet normal -9.989784e-001 -8.402567e-015 4.518990e-002
      outer loop
         vertex 8.984612e+001 8.124249e+001 2.261140e+002
         vertex 8.973638e+001 8.048016e+001 2.236881e+002
         vertex 8.974411e+001 8.038412e+001 2.238592e+002
      endloop
   endfacet
   facet normal -9.989784e-001 -8.402567e-015 4.518990e-002
      outer loop
         vertex 8.984612e+001 8.124249e+001 2.261140e+002
         vertex 8.974411e+001 8.038412e+001 2.238592e+002
         vertex 8.975098e+001 8.025980e+001 2.240110e+002
      endloop
   endfacet
   facet normal -9.989784e-001 -8.402567e-015 4.518990e-002
      outer loop
         vertex 8.974516e+001 7.853873e+001 2.238823e+002
         vertex 8.973753e+001 7.843841e+001 2.237137e+002
         vertex 8.983263e+001 7.725364e+001 2.258158e+002
      endloop
   endfacet
   facet normal -9.989784e-001 -8.402567e-015 4.518990e-002
      outer loop
         vertex 8.983263e+001 7.725364e+001 2.258158e+002
         vertex 8.973753e+001 7.843841e+001 2.237137e+002
         vertex 8.972923e+001 7.836894e+001 2.235302e+002
      endloop
   endfacet
   facet normal -9.989784e-001 -8.402567e-015 4.518990e-002
      outer loop
         vertex 8.983263e+001 7.725364e+001 2.258158e+002
         vertex 8.972923e+001 7.836894e+001 2.235302e+002
         vertex 8.972052e+001 7.833242e+001 2.233375e+002
      endloop
   endfacet
   facet normal -9.989784e-001 -8.402567e-015 4.518990e-002
      outer loop
         vertex 8.966904e+001 7.991652e+001 2.221995e+002
         vertex 8.967338e+001 8.008780e+001 2.222955e+002
         vertex 8.417706e+001 9.063132e+001 1.007926e+002
      endloop
   endfacet
   facet normal -9.989784e-001 -8.402567e-015 4.518990e-002
      outer loop
         vertex 8.417706e+001 9.063132e+001 1.007926e+002
         vertex 8.967338e+001 8.008780e+001 2.222955e+002
         vertex 8.967899e+001 8.023978e+001 2.224196e+002
      endloop
   endfacet
   facet normal -9.989784e-001 -8.402567e-015 4.518990e-002
      outer loop
         vertex 8.417706e+001 9.063132e+001 1.007926e+002
         vertex 8.967899e+001 8.023978e+001 2.224196e+002
         vertex 8.968572e+001 8.036788e+001 2.225683e+002
      endloop
   endfacet
   facet normal -9.989784e-001 -8.402567e-015 4.518990e-002
      outer loop
         vertex 8.969335e+001 8.046820e+001 2.227370e+002
         vertex 8.970165e+001 8.053767e+001 2.229204e+002
         vertex 8.417706e+001 9.063132e+001 1.007926e+002
      endloop
   endfacet
   facet normal -9.989784e-001 -8.402567e-015 4.518990e-002
      outer loop
         vertex 8.417706e+001 9.063132e+001 1.007926e+002
         vertex 8.970165e+001 8.053767e+001 2.229204e+002
         vertex 8.971037e+001 8.057420e+001 2.231132e+002
      endloop
   endfacet
   facet normal -9.989784e-001 -8.402567e-015 4.518990e-002
      outer loop
         vertex 8.417706e+001 9.063132e+001 1.007926e+002
         vertex 8.971037e+001 8.057420e+001 2.231132e+002
         vertex 8.984612e+001 8.124249e+001 2.261140e+002
      endloop
   endfacet
   facet normal -9.989784e-001 -8.402567e-015 4.518990e-002
      outer loop
         vertex 8.984612e+001 8.124249e+001 2.261140e+002
         vertex 8.971037e+001 8.057420e+001 2.231132e+002
         vertex 8.971925e+001 8.057667e+001 2.233093e+002
      endloop
   endfacet
   facet normal -9.989784e-001 -8.402567e-015 4.518990e-002
      outer loop
         vertex 8.984612e+001 8.124249e+001 2.261140e+002
         vertex 8.971925e+001 8.057667e+001 2.233093e+002
         vertex 8.972800e+001 8.054500e+001 2.235029e+002
      endloop
   endfacet
   facet normal -9.989784e-001 -8.402567e-015 4.518990e-002
      outer loop
         vertex 8.968678e+001 7.852249e+001 2.225915e+002
         vertex 8.967990e+001 7.864680e+001 2.224397e+002
         vertex 8.416357e+001 8.664246e+001 1.004943e+002
      endloop
   endfacet
   facet normal -9.989784e-001 -8.402567e-015 4.518990e-002
      outer loop
         vertex 8.416357e+001 8.664246e+001 1.004943e+002
         vertex 8.967990e+001 7.864680e+001 2.224397e+002
         vertex 8.967412e+001 7.879562e+001 2.223117e+002
      endloop
   endfacet
   facet normal -9.989784e-001 -8.402567e-015 4.518990e-002
      outer loop
         vertex 8.416357e+001 8.664246e+001 1.004943e+002
         vertex 8.967412e+001 7.879562e+001 2.223117e+002
         vertex 8.966958e+001 7.896443e+001 2.222115e+002
      endloop
   endfacet
   facet normal -9.989784e-001 -8.402567e-015 4.518990e-002
      outer loop
         vertex 8.972052e+001 7.833242e+001 2.233375e+002
         vertex 8.971165e+001 7.832994e+001 2.231413e+002
         vertex 8.983263e+001 7.725364e+001 2.258158e+002
      endloop
   endfacet
   facet normal -9.989784e-001 -8.402567e-015 4.518990e-002
      outer loop
         vertex 8.983263e+001 7.725364e+001 2.258158e+002
         vertex 8.971165e+001 7.832994e+001 2.231413e+002
         vertex 8.970289e+001 7.836162e+001 2.229478e+002
      endloop
   endfacet
   facet normal -9.989784e-001 -8.402567e-015 4.518990e-002
      outer loop
         vertex 8.983263e+001 7.725364e+001 2.258158e+002
         vertex 8.970289e+001 7.836162e+001 2.229478e+002
         vertex 8.416357e+001 8.664246e+001 1.004943e+002
      endloop
   endfacet
   facet normal -9.989784e-001 -8.402567e-015 4.518990e-002
      outer loop
         vertex 8.416357e+001 8.664246e+001 1.004943e+002
         vertex 8.970289e+001 7.836162e+001 2.229478e+002
         vertex 8.969451e+001 7.842645e+001 2.227626e+002
      endloop
   endfacet
   facet normal -9.989784e-001 -8.402567e-015 4.518990e-002
      outer loop
         vertex 8.416357e+001 8.664246e+001 1.004943e+002
         vertex 8.969451e+001 7.842645e+001 2.227626e+002
         vertex 8.968678e+001 7.852249e+001 2.225915e+002
      endloop
   endfacet
   facet normal -4.506387e-002 7.463271e-002 -9.961923e-001
      outer loop
         vertex 8.798373e+001 9.094474e+001 9.642821e+001
         vertex 8.797024e+001 8.695589e+001 9.612997e+001
         vertex 8.398781e+001 9.094474e+001 9.660896e+001
      endloop
   endfacet
   facet normal -4.506387e-002 7.463271e-002 -9.961923e-001
      outer loop
         vertex 8.398781e+001 9.094474e+001 9.660896e+001
         vertex 8.797024e+001 8.695589e+001 9.612997e+001
         vertex 8.397433e+001 8.695589e+001 9.631075e+001
      endloop
   endfacet
   facet normal 3.372645e-003 9.972111e-001 7.455647e-002
      outer loop
         vertex 9.250401e+001 9.086651e+001 9.727008e+001
         vertex 8.801077e+001 9.089996e+001 9.702592e+001
         vertex 9.268427e+001 9.056798e+001 1.012549e+002
      endloop
   endfacet
   facet normal 3.372645e-003 9.972111e-001 7.455647e-002
      outer loop
         vertex 9.268427e+001 9.056798e+001 1.012549e+002
         vertex 8.801077e+001 9.089996e+001 9.702592e+001
         vertex 8.819102e+001 9.060143e+001 1.010107e+002
      endloop
   endfacet
   facet normal 3.372645e-003 9.972111e-001 7.455647e-002
      outer loop
         vertex 7.966136e+001 9.066493e+001 1.005472e+002
         vertex 8.417706e+001 9.063132e+001 1.007926e+002
         vertex 7.948110e+001 9.096346e+001 9.656242e+001
      endloop
   endfacet
   facet normal 3.372645e-003 9.972111e-001 7.455647e-002
      outer loop
         vertex 7.948110e+001 9.096346e+001 9.656242e+001
         vertex 8.417706e+001 9.063132e+001 1.007926e+002
         vertex 8.399681e+001 9.092984e+001 9.680781e+001
      endloop
   endfacet
   facet normal 3.372645e-003 9.972111e-001 7.455647e-002
      outer loop
         vertex 8.984612e+001 8.124249e+001 2.261140e+002
         vertex 9.384203e+001 8.124249e+001 2.259332e+002
         vertex 8.417706e+001 9.063132e+001 1.007926e+002
      endloop
   endfacet
   facet normal 3.372645e-003 9.972111e-001 7.455647e-002
      outer loop
         vertex 8.417706e+001 9.063132e+001 1.007926e+002
         vertex 9.384203e+001 8.124249e+001 2.259332e+002
         vertex 8.819102e+001 9.060143e+001 1.010107e+002
      endloop
   endfacet
   facet normal 3.372645e-003 9.972111e-001 7.455647e-002
      outer loop
         vertex 8.417706e+001 9.063132e+001 1.007926e+002
         vertex 8.819102e+001 9.060143e+001 1.010107e+002
         vertex 8.399681e+001 9.092984e+001 9.680781e+001
      endloop
   endfacet
   facet normal 3.372645e-003 9.972111e-001 7.455647e-002
      outer loop
         vertex 8.399681e+001 9.092984e+001 9.680781e+001
         vertex 8.819102e+001 9.060143e+001 1.010107e+002
         vertex 8.801077e+001 9.089996e+001 9.702592e+001
      endloop
   endfacet
   facet normal 3.372645e-003 9.972111e-001 7.455647e-002
      outer loop
         vertex 8.399681e+001 9.092984e+001 9.680781e+001
         vertex 8.801077e+001 9.089996e+001 9.702592e+001
         vertex 8.398781e+001 9.094474e+001 9.660896e+001
      endloop
   endfacet
   facet normal 3.372645e-003 9.972111e-001 7.455647e-002
      outer loop
         vertex 8.398781e+001 9.094474e+001 9.660896e+001
         vertex 8.801077e+001 9.089996e+001 9.702592e+001
         vertex 8.798373e+001 9.094474e+001 9.642821e+001
      endloop
   endfacet
   facet normal 4.506387e-002 -7.463271e-002 9.961923e-001
      outer loop
         vertex 9.382854e+001 7.725364e+001 2.256350e+002
         vertex 9.384203e+001 8.124249e+001 2.259332e+002
         vertex 8.983263e+001 7.725364e+001 2.258158e+002
      endloop
   endfacet
   facet normal 4.506387e-002 -7.463271e-002 9.961923e-001
      outer loop
         vertex 8.983263e+001 7.725364e+001 2.258158e+002
         vertex 9.384203e+001 8.124249e+001 2.259332e+002
         vertex 8.984612e+001 8.124249e+001 2.261140e+002
      endloop
   endfacet
   facet normal -3.372645e-003 -9.972111e-001 -7.455647e-002
      outer loop
         vertex 8.797024e+001 8.695589e+001 9.612997e+001
         vertex 8.799728e+001 8.691111e+001 9.672769e+001
         vertex 8.397433e+001 8.695589e+001 9.631075e+001
      endloop
   endfacet
   facet normal -3.372645e-003 -9.972111e-001 -7.455647e-002
      outer loop
         vertex 8.397433e+001 8.695589e+001 9.631075e+001
         vertex 8.799728e+001 8.691111e+001 9.672769e+001
         vertex 8.398331e+001 8.694099e+001 9.650958e+001
      endloop
   endfacet
   facet normal -3.372645e-003 -9.972111e-001 -7.455647e-002
      outer loop
         vertex 9.382854e+001 7.725364e+001 2.256350e+002
         vertex 8.983263e+001 7.725364e+001 2.258158e+002
         vertex 8.817753e+001 8.661258e+001 1.007125e+002
      endloop
   endfacet
   facet normal -3.372645e-003 -9.972111e-001 -7.455647e-002
      outer loop
         vertex 8.817753e+001 8.661258e+001 1.007125e+002
         vertex 8.983263e+001 7.725364e+001 2.258158e+002
         vertex 8.416357e+001 8.664246e+001 1.004943e+002
      endloop
   endfacet
   facet normal -3.372645e-003 -9.972111e-001 -7.455647e-002
      outer loop
         vertex 7.964787e+001 8.667609e+001 1.002490e+002
         vertex 7.946761e+001 8.697462e+001 9.626420e+001
         vertex 8.416357e+001 8.664246e+001 1.004943e+002
      endloop
   endfacet
   facet normal -3.372645e-003 -9.972111e-001 -7.455647e-002
      outer loop
         vertex 8.416357e+001 8.664246e+001 1.004943e+002
         vertex 7.946761e+001 8.697462e+001 9.626420e+001
         vertex 8.398331e+001 8.694099e+001 9.650958e+001
      endloop
   endfacet
   facet normal -3.372645e-003 -9.972111e-001 -7.455647e-002
      outer loop
         vertex 8.416357e+001 8.664246e+001 1.004943e+002
         vertex 8.398331e+001 8.694099e+001 9.650958e+001
         vertex 8.817753e+001 8.661258e+001 1.007125e+002
      endloop
   endfacet
   facet normal -3.372645e-003 -9.972111e-001 -7.455647e-002
      outer loop
         vertex 8.817753e+001 8.661258e+001 1.007125e+002
         vertex 8.398331e+001 8.694099e+001 9.650958e+001
         vertex 8.799728e+001 8.691111e+001 9.672769e+001
      endloop
   endfacet
   facet normal -3.372645e-003 -9.972111e-001 -7.455647e-002
      outer loop
         vertex 8.817753e+001 8.661258e+001 1.007125e+002
         vertex 8.799728e+001 8.691111e+001 9.672769e+001
         vertex 9.267078e+001 8.657914e+001 1.009566e+002
      endloop
   endfacet
   facet normal -3.372645e-003 -9.972111e-001 -7.455647e-002
      outer loop
         vertex 9.267078e+001 8.657914e+001 1.009566e+002
         vertex 8.799728e+001 8.691111e+001 9.672769e+001
         vertex 9.249052e+001 8.687766e+001 9.697186e+001
      endloop
   endfacet
   facet normal -9.989784e-001 -8.402567e-015 4.518990e-002
      outer loop
         vertex 7.951631e+001 8.909110e+001 9.734077e+001
         vertex 7.948110e+001 9.096346e+001 9.656242e+001
         vertex 7.951492e+001 8.890187e+001 9.730988e+001
      endloop
   endfacet
   facet normal -9.989784e-001 -8.402567e-015 4.518990e-002
      outer loop
         vertex 7.951492e+001 8.890187e+001 9.730988e+001
         vertex 7.948110e+001 9.096346e+001 9.656242e+001
         vertex 7.946761e+001 8.697462e+001 9.626420e+001
      endloop
   endfacet
   facet normal -9.989784e-001 -8.402567e-015 4.518990e-002
      outer loop
         vertex 7.951492e+001 8.890187e+001 9.730988e+001
         vertex 7.946761e+001 8.697462e+001 9.626420e+001
         vertex 7.951502e+001 8.871014e+001 9.731229e+001
      endloop
   endfacet
   facet normal -9.989784e-001 -8.402567e-015 4.518990e-002
      outer loop
         vertex 7.961266e+001 8.854845e+001 9.947061e+001
         vertex 7.960979e+001 8.836745e+001 9.940736e+001
         vertex 7.964787e+001 8.667609e+001 1.002490e+002
      endloop
   endfacet
   facet normal -9.989784e-001 -8.402567e-015 4.518990e-002
      outer loop
         vertex 7.964787e+001 8.667609e+001 1.002490e+002
         vertex 7.960979e+001 8.836745e+001 9.940736e+001
         vertex 7.960557e+001 8.820021e+001 9.931369e+001
      endloop
   endfacet
   facet normal -9.989784e-001 -8.402567e-015 4.518990e-002
      outer loop
         vertex 7.964787e+001 8.667609e+001 1.002490e+002
         vertex 7.960557e+001 8.820021e+001 9.931369e+001
         vertex 7.960007e+001 8.805179e+001 9.919242e+001
      endloop
   endfacet
   facet normal -9.989784e-001 -8.402567e-015 4.518990e-002
      outer loop
         vertex 7.966136e+001 9.066493e+001 1.005472e+002
         vertex 7.960484e+001 8.946198e+001 9.929785e+001
         vertex 7.960928e+001 8.929714e+001 9.939570e+001
      endloop
   endfacet
   facet normal -9.989784e-001 -8.402567e-015 4.518990e-002
      outer loop
         vertex 7.952413e+001 8.817757e+001 9.751353e+001
         vertex 7.951971e+001 8.834241e+001 9.741569e+001
         vertex 7.946761e+001 8.697462e+001 9.626420e+001
      endloop
   endfacet
   facet normal -9.989784e-001 -8.402567e-015 4.518990e-002
      outer loop
         vertex 7.946761e+001 8.697462e+001 9.626420e+001
         vertex 7.951971e+001 8.834241e+001 9.741569e+001
         vertex 7.951663e+001 8.852175e+001 9.734792e+001
      endloop
   endfacet
   facet normal -9.989784e-001 -8.402567e-015 4.518990e-002
      outer loop
         vertex 7.946761e+001 8.697462e+001 9.626420e+001
         vertex 7.951663e+001 8.852175e+001 9.734792e+001
         vertex 7.951502e+001 8.871014e+001 9.731229e+001
      endloop
   endfacet
   facet normal -9.989784e-001 -8.402567e-015 4.518990e-002
      outer loop
         vertex 7.951631e+001 8.909110e+001 9.734077e+001
         vertex 7.951917e+001 8.927209e+001 9.740401e+001
         vertex 7.948110e+001 9.096346e+001 9.656242e+001
      endloop
   endfacet
   facet normal -9.989784e-001 -8.402567e-015 4.518990e-002
      outer loop
         vertex 7.948110e+001 9.096346e+001 9.656242e+001
         vertex 7.951917e+001 8.927209e+001 9.740401e+001
         vertex 7.952341e+001 8.943934e+001 9.749770e+001
      endloop
   endfacet
   facet normal -9.989784e-001 -8.402567e-015 4.518990e-002
      outer loop
         vertex 7.948110e+001 9.096346e+001 9.656242e+001
         vertex 7.952341e+001 8.943934e+001 9.749770e+001
         vertex 7.952890e+001 8.958775e+001 9.761897e+001
      endloop
   endfacet
   facet normal -9.989784e-001 -8.402567e-015 4.518990e-002
      outer loop
         vertex 7.960928e+001 8.929714e+001 9.939570e+001
         vertex 7.961234e+001 8.911781e+001 9.946347e+001
         vertex 7.966136e+001 9.066493e+001 1.005472e+002
      endloop
   endfacet
   facet normal -9.989784e-001 -8.402567e-015 4.518990e-002
      outer loop
         vertex 7.966136e+001 9.066493e+001 1.005472e+002
         vertex 7.961234e+001 8.911781e+001 9.946347e+001
         vertex 7.961395e+001 8.892941e+001 9.949910e+001
      endloop
   endfacet
   facet normal -9.989784e-001 -8.402567e-015 4.518990e-002
      outer loop
         vertex 7.966136e+001 9.066493e+001 1.005472e+002
         vertex 7.961395e+001 8.892941e+001 9.949910e+001
         vertex 7.964787e+001 8.667609e+001 1.002490e+002
      endloop
   endfacet
   facet normal -9.989784e-001 -8.402567e-015 4.518990e-002
      outer loop
         vertex 7.964787e+001 8.667609e+001 1.002490e+002
         vertex 7.961395e+001 8.892941e+001 9.949910e+001
         vertex 7.961406e+001 8.873767e+001 9.950150e+001
      endloop
   endfacet
   facet normal -9.989784e-001 -8.402567e-015 4.518990e-002
      outer loop
         vertex 7.964787e+001 8.667609e+001 1.002490e+002
         vertex 7.961406e+001 8.873767e+001 9.950150e+001
         vertex 7.961266e+001 8.854845e+001 9.947061e+001
      endloop
   endfacet
   facet normal -9.989784e-001 -8.402567e-015 4.518990e-002
      outer loop
         vertex 7.958492e+001 8.982247e+001 9.885754e+001
         vertex 7.959249e+001 8.972870e+001 9.902462e+001
         vertex 7.966136e+001 9.066493e+001 1.005472e+002
      endloop
   endfacet
   facet normal -9.989784e-001 -8.402567e-015 4.518990e-002
      outer loop
         vertex 7.966136e+001 9.066493e+001 1.005472e+002
         vertex 7.959249e+001 8.972870e+001 9.902462e+001
         vertex 7.959920e+001 8.960730e+001 9.917290e+001
      endloop
   endfacet
   facet normal -9.989784e-001 -8.402567e-015 4.518990e-002
      outer loop
         vertex 7.966136e+001 9.066493e+001 1.005472e+002
         vertex 7.959920e+001 8.960730e+001 9.917290e+001
         vertex 7.960484e+001 8.946198e+001 9.929785e+001
      endloop
   endfacet
   facet normal -9.989784e-001 -8.402567e-015 4.518990e-002
      outer loop
         vertex 7.960007e+001 8.805179e+001 9.919242e+001
         vertex 7.959351e+001 8.792670e+001 9.904725e+001
         vertex 7.964787e+001 8.667609e+001 1.002490e+002
      endloop
   endfacet
   facet normal -9.989784e-001 -8.402567e-015 4.518990e-002
      outer loop
         vertex 7.964787e+001 8.667609e+001 1.002490e+002
         vertex 7.959351e+001 8.792670e+001 9.904725e+001
         vertex 7.958606e+001 8.782876e+001 9.888257e+001
      endloop
   endfacet
   facet normal -9.989784e-001 -8.402567e-015 4.518990e-002
      outer loop
         vertex 7.964787e+001 8.667609e+001 1.002490e+002
         vertex 7.958606e+001 8.782876e+001 9.888257e+001
         vertex 7.957795e+001 8.776092e+001 9.870341e+001
      endloop
   endfacet
   facet normal -9.989784e-001 -8.402567e-015 4.518990e-002
      outer loop
         vertex 7.957795e+001 8.776092e+001 9.870341e+001
         vertex 7.956944e+001 8.772525e+001 9.851521e+001
         vertex 7.964787e+001 8.667609e+001 1.002490e+002
      endloop
   endfacet
   facet normal -9.989784e-001 -8.402567e-015 4.518990e-002
      outer loop
         vertex 7.964787e+001 8.667609e+001 1.002490e+002
         vertex 7.956944e+001 8.772525e+001 9.851521e+001
         vertex 7.956078e+001 8.772284e+001 9.832368e+001
      endloop
   endfacet
   facet normal -9.989784e-001 -8.402567e-015 4.518990e-002
      outer loop
         vertex 7.964787e+001 8.667609e+001 1.002490e+002
         vertex 7.956078e+001 8.772284e+001 9.832368e+001
         vertex 7.946761e+001 8.697462e+001 9.626420e+001
      endloop
   endfacet
   facet normal -9.989784e-001 -8.402567e-015 4.518990e-002
      outer loop
         vertex 7.946761e+001 8.697462e+001 9.626420e+001
         vertex 7.956078e+001 8.772284e+001 9.832368e+001
         vertex 7.955222e+001 8.775377e+001 9.813464e+001
      endloop
   endfacet
   facet normal -9.989784e-001 -8.402567e-015 4.518990e-002
      outer loop
         vertex 7.946761e+001 8.697462e+001 9.626420e+001
         vertex 7.955222e+001 8.775377e+001 9.813464e+001
         vertex 7.954404e+001 8.781707e+001 9.795384e+001
      endloop
   endfacet
   facet normal -9.989784e-001 -8.402567e-015 4.518990e-002
      outer loop
         vertex 7.952890e+001 8.958775e+001 9.761897e+001
         vertex 7.953547e+001 8.971284e+001 9.776415e+001
         vertex 7.948110e+001 9.096346e+001 9.656242e+001
      endloop
   endfacet
   facet normal -9.989784e-001 -8.402567e-015 4.518990e-002
      outer loop
         vertex 7.948110e+001 9.096346e+001 9.656242e+001
         vertex 7.953547e+001 8.971284e+001 9.776415e+001
         vertex 7.954292e+001 8.981080e+001 9.792882e+001
      endloop
   endfacet
   facet normal -9.989784e-001 -8.402567e-015 4.518990e-002
      outer loop
         vertex 7.948110e+001 9.096346e+001 9.656242e+001
         vertex 7.954292e+001 8.981080e+001 9.792882e+001
         vertex 7.955102e+001 8.987863e+001 9.810797e+001
      endloop
   endfacet
   facet normal -9.989784e-001 -8.402567e-015 4.518990e-002
      outer loop
         vertex 7.954404e+001 8.781707e+001 9.795384e+001
         vertex 7.953649e+001 8.791085e+001 9.778676e+001
         vertex 7.946761e+001 8.697462e+001 9.626420e+001
      endloop
   endfacet
   facet normal -9.989784e-001 -8.402567e-015 4.518990e-002
      outer loop
         vertex 7.946761e+001 8.697462e+001 9.626420e+001
         vertex 7.953649e+001 8.791085e+001 9.778676e+001
         vertex 7.952979e+001 8.803224e+001 9.763850e+001
      endloop
   endfacet
   facet normal -9.989784e-001 -8.402567e-015 4.518990e-002
      outer loop
         vertex 7.946761e+001 8.697462e+001 9.626420e+001
         vertex 7.952979e+001 8.803224e+001 9.763850e+001
         vertex 7.952413e+001 8.817757e+001 9.751353e+001
      endloop
   endfacet
   facet normal -9.989784e-001 -8.402567e-015 4.518990e-002
      outer loop
         vertex 7.955102e+001 8.987863e+001 9.810797e+001
         vertex 7.955953e+001 8.991430e+001 9.829617e+001
         vertex 7.948110e+001 9.096346e+001 9.656242e+001
      endloop
   endfacet
   facet normal -9.989784e-001 -8.402567e-015 4.518990e-002
      outer loop
         vertex 7.948110e+001 9.096346e+001 9.656242e+001
         vertex 7.955953e+001 8.991430e+001 9.829617e+001
         vertex 7.956820e+001 8.991670e+001 9.848771e+001
      endloop
   endfacet
   facet normal -9.989784e-001 -8.402567e-015 4.518990e-002
      outer loop
         vertex 7.948110e+001 9.096346e+001 9.656242e+001
         vertex 7.956820e+001 8.991670e+001 9.848771e+001
         vertex 7.966136e+001 9.066493e+001 1.005472e+002
      endloop
   endfacet
   facet normal -9.989784e-001 -8.402567e-015 4.518990e-002
      outer loop
         vertex 7.966136e+001 9.066493e+001 1.005472e+002
         vertex 7.956820e+001 8.991670e+001 9.848771e+001
         vertex 7.957674e+001 8.988579e+001 9.867675e+001
      endloop
   endfacet
   facet normal -9.989784e-001 -8.402567e-015 4.518990e-002
      outer loop
         vertex 7.966136e+001 9.066493e+001 1.005472e+002
         vertex 7.957674e+001 8.988579e+001 9.867675e+001
         vertex 7.958492e+001 8.982247e+001 9.885754e+001
      endloop
   endfacet
   facet normal -5.466077e-002 -7.426158e-002 9.957396e-001
      outer loop
         vertex 8.417706e+001 9.063132e+001 1.007926e+002
         vertex 7.966136e+001 9.066493e+001 1.005472e+002
         vertex 8.416357e+001 8.664246e+001 1.004943e+002
      endloop
   endfacet
   facet normal -5.466077e-002 -7.426158e-002 9.957396e-001
      outer loop
         vertex 8.416357e+001 8.664246e+001 1.004943e+002
         vertex 7.966136e+001 9.066493e+001 1.005472e+002
         vertex 7.964787e+001 8.667609e+001 1.002490e+002
      endloop
   endfacet
   facet normal 5.466077e-002 7.426158e-002 -9.957396e-001
      outer loop
         vertex 8.398331e+001 8.694099e+001 9.650958e+001
         vertex 7.946761e+001 8.697462e+001 9.626420e+001
         vertex 8.399681e+001 9.092984e+001 9.680781e+001
      endloop
   endfacet
   facet normal 5.466077e-002 7.426158e-002 -9.957396e-001
      outer loop
         vertex 8.399681e+001 9.092984e+001 9.680781e+001
         vertex 7.946761e+001 8.697462e+001 9.626420e+001
         vertex 7.948110e+001 9.096346e+001 9.656242e+001
      endloop
   endfacet
   facet normal 5.466077e-002 7.426158e-002 -9.957396e-001
      outer loop
         vertex 9.250401e+001 9.086651e+001 9.727008e+001
         vertex 9.249052e+001 8.687766e+001 9.697186e+001
         vertex 8.801077e+001 9.089996e+001 9.702592e+001
      endloop
   endfacet
   facet normal 5.466077e-002 7.426158e-002 -9.957396e-001
      outer loop
         vertex 8.801077e+001 9.089996e+001 9.702592e+001
         vertex 9.249052e+001 8.687766e+001 9.697186e+001
         vertex 8.799728e+001 8.691111e+001 9.672769e+001
      endloop
   endfacet
   facet normal -5.466077e-002 -7.426158e-002 9.957396e-001
      outer loop
         vertex 9.267078e+001 8.657914e+001 1.009566e+002
         vertex 9.268427e+001 9.056798e+001 1.012549e+002
         vertex 8.817753e+001 8.661258e+001 1.007125e+002
      endloop
   endfacet
   facet normal -5.466077e-002 -7.426158e-002 9.957396e-001
      outer loop
         vertex 8.817753e+001 8.661258e+001 1.007125e+002
         vertex 9.268427e+001 9.056798e+001 1.012549e+002
         vertex 8.819102e+001 9.060143e+001 1.010107e+002
      endloop
   endfacet
   facet normal 9.989784e-001 8.402567e-015 -4.518990e-002
      outer loop
         vertex 9.263557e+001 8.845149e+001 1.001783e+002
         vertex 9.263696e+001 8.864072e+001 1.002092e+002
         vertex 9.267078e+001 8.657914e+001 1.009566e+002
      endloop
   endfacet
   facet normal 9.989784e-001 8.402567e-015 -4.518990e-002
      outer loop
         vertex 9.267078e+001 8.657914e+001 1.009566e+002
         vertex 9.263696e+001 8.864072e+001 1.002092e+002
         vertex 9.268427e+001 9.056798e+001 1.012549e+002
      endloop
   endfacet
   facet normal 9.989784e-001 8.402567e-015 -4.518990e-002
      outer loop
         vertex 9.263696e+001 8.864072e+001 1.002092e+002
         vertex 9.263686e+001 8.883245e+001 1.002068e+002
         vertex 9.268427e+001 9.056798e+001 1.012549e+002
      endloop
   endfacet
   facet normal 9.989784e-001 8.402567e-015 -4.518990e-002
      outer loop
         vertex 9.268427e+001 9.056798e+001 1.012549e+002
         vertex 9.263686e+001 8.883245e+001 1.002068e+002
         vertex 9.263525e+001 8.902085e+001 1.001711e+002
      endloop
   endfacet
   facet normal 9.989784e-001 8.402567e-015 -4.518990e-002
      outer loop
         vertex 9.268427e+001 9.056798e+001 1.012549e+002
         vertex 9.263525e+001 8.902085e+001 1.001711e+002
         vertex 9.263217e+001 8.920019e+001 1.001034e+002
      endloop
   endfacet
   facet normal 9.989784e-001 8.402567e-015 -4.518990e-002
      outer loop
         vertex 9.250401e+001 9.086651e+001 9.727008e+001
         vertex 9.255180e+001 8.949080e+001 9.832662e+001
         vertex 9.254632e+001 8.934238e+001 9.820536e+001
      endloop
   endfacet
   facet normal 9.989784e-001 8.402567e-015 -4.518990e-002
      outer loop
         vertex 9.258244e+001 8.981734e+001 9.900383e+001
         vertex 9.257393e+001 8.978168e+001 9.881563e+001
         vertex 9.250401e+001 9.086651e+001 9.727008e+001
      endloop
   endfacet
   facet normal 9.989784e-001 8.402567e-015 -4.518990e-002
      outer loop
         vertex 9.253793e+001 8.861319e+001 9.801994e+001
         vertex 9.253954e+001 8.842480e+001 9.805558e+001
         vertex 9.249052e+001 8.687766e+001 9.697186e+001
      endloop
   endfacet
   facet normal 9.989784e-001 8.402567e-015 -4.518990e-002
      outer loop
         vertex 9.249052e+001 8.687766e+001 9.697186e+001
         vertex 9.253954e+001 8.842480e+001 9.805558e+001
         vertex 9.254261e+001 8.824545e+001 9.812334e+001
      endloop
   endfacet
   facet normal 9.989784e-001 8.402567e-015 -4.518990e-002
      outer loop
         vertex 9.249052e+001 8.687766e+001 9.697186e+001
         vertex 9.254261e+001 8.824545e+001 9.812334e+001
         vertex 9.254704e+001 8.808061e+001 9.822119e+001
      endloop
   endfacet
   facet normal 9.989784e-001 8.402567e-015 -4.518990e-002
      outer loop
         vertex 9.263217e+001 8.920019e+001 1.001034e+002
         vertex 9.262775e+001 8.936503e+001 1.000055e+002
         vertex 9.268427e+001 9.056798e+001 1.012549e+002
      endloop
   endfacet
   facet normal 9.989784e-001 8.402567e-015 -4.518990e-002
      outer loop
         vertex 9.268427e+001 9.056798e+001 1.012549e+002
         vertex 9.262775e+001 8.936503e+001 1.000055e+002
         vertex 9.262210e+001 8.951035e+001 9.988055e+001
      endloop
   endfacet
   facet normal 9.989784e-001 8.402567e-015 -4.518990e-002
      outer loop
         vertex 9.268427e+001 9.056798e+001 1.012549e+002
         vertex 9.262210e+001 8.951035e+001 9.988055e+001
         vertex 9.261539e+001 8.963174e+001 9.973228e+001
      endloop
   endfacet
   facet normal 9.989784e-001 8.402567e-015 -4.518990e-002
      outer loop
         vertex 9.254632e+001 8.934238e+001 9.820536e+001
         vertex 9.254208e+001 8.917514e+001 9.811167e+001
         vertex 9.250401e+001 9.086651e+001 9.727008e+001
      endloop
   endfacet
   facet normal 9.989784e-001 8.402567e-015 -4.518990e-002
      outer loop
         vertex 9.250401e+001 9.086651e+001 9.727008e+001
         vertex 9.254208e+001 8.917514e+001 9.811167e+001
         vertex 9.253922e+001 8.899416e+001 9.804842e+001
      endloop
   endfacet
   facet normal 9.989784e-001 8.402567e-015 -4.518990e-002
      outer loop
         vertex 9.250401e+001 9.086651e+001 9.727008e+001
         vertex 9.253922e+001 8.899416e+001 9.804842e+001
         vertex 9.249052e+001 8.687766e+001 9.697186e+001
      endloop
   endfacet
   facet normal 9.989784e-001 8.402567e-015 -4.518990e-002
      outer loop
         vertex 9.249052e+001 8.687766e+001 9.697186e+001
         vertex 9.253922e+001 8.899416e+001 9.804842e+001
         vertex 9.253782e+001 8.880492e+001 9.801753e+001
      endloop
   endfacet
   facet normal 9.989784e-001 8.402567e-015 -4.518990e-002
      outer loop
         vertex 9.249052e+001 8.687766e+001 9.697186e+001
         vertex 9.253782e+001 8.880492e+001 9.801753e+001
         vertex 9.253793e+001 8.861319e+001 9.801994e+001
      endloop
   endfacet
   facet normal 9.989784e-001 8.402567e-015 -4.518990e-002
      outer loop
         vertex 9.262298e+001 8.795483e+001 9.990008e+001
         vertex 9.262846e+001 8.810326e+001 1.000213e+002
         vertex 9.267078e+001 8.657914e+001 1.009566e+002
      endloop
   endfacet
   facet normal 9.989784e-001 8.402567e-015 -4.518990e-002
      outer loop
         vertex 9.267078e+001 8.657914e+001 1.009566e+002
         vertex 9.262846e+001 8.810326e+001 1.000213e+002
         vertex 9.263271e+001 8.827050e+001 1.001150e+002
      endloop
   endfacet
   facet normal 9.989784e-001 8.402567e-015 -4.518990e-002
      outer loop
         vertex 9.267078e+001 8.657914e+001 1.009566e+002
         vertex 9.263271e+001 8.827050e+001 1.001150e+002
         vertex 9.263557e+001 8.845149e+001 1.001783e+002
      endloop
   endfacet
   facet normal 9.989784e-001 8.402567e-015 -4.518990e-002
      outer loop
         vertex 9.257393e+001 8.978168e+001 9.881563e+001
         vertex 9.256582e+001 8.971384e+001 9.863647e+001
         vertex 9.250401e+001 9.086651e+001 9.727008e+001
      endloop
   endfacet
   facet normal 9.989784e-001 8.402567e-015 -4.518990e-002
      outer loop
         vertex 9.250401e+001 9.086651e+001 9.727008e+001
         vertex 9.256582e+001 8.971384e+001 9.863647e+001
         vertex 9.255837e+001 8.961589e+001 9.847180e+001
      endloop
   endfacet
   facet normal 9.989784e-001 8.402567e-015 -4.518990e-002
      outer loop
         vertex 9.250401e+001 9.086651e+001 9.727008e+001
         vertex 9.255837e+001 8.961589e+001 9.847180e+001
         vertex 9.255180e+001 8.949080e+001 9.832662e+001
      endloop
   endfacet
   facet normal 9.989784e-001 8.402567e-015 -4.518990e-002
      outer loop
         vertex 9.261539e+001 8.963174e+001 9.973228e+001
         vertex 9.260783e+001 8.972552e+001 9.956521e+001
         vertex 9.268427e+001 9.056798e+001 1.012549e+002
      endloop
   endfacet
   facet normal 9.989784e-001 8.402567e-015 -4.518990e-002
      outer loop
         vertex 9.268427e+001 9.056798e+001 1.012549e+002
         vertex 9.260783e+001 8.972552e+001 9.956521e+001
         vertex 9.259966e+001 8.978883e+001 9.938441e+001
      endloop
   endfacet
   facet normal 9.989784e-001 8.402567e-015 -4.518990e-002
      outer loop
         vertex 9.268427e+001 9.056798e+001 1.012549e+002
         vertex 9.259966e+001 8.978883e+001 9.938441e+001
         vertex 9.250401e+001 9.086651e+001 9.727008e+001
      endloop
   endfacet
   facet normal 9.989784e-001 8.402567e-015 -4.518990e-002
      outer loop
         vertex 9.250401e+001 9.086651e+001 9.727008e+001
         vertex 9.259966e+001 8.978883e+001 9.938441e+001
         vertex 9.259110e+001 8.981975e+001 9.919537e+001
      endloop
   endfacet
   facet normal 9.989784e-001 8.402567e-015 -4.518990e-002
      outer loop
         vertex 9.250401e+001 9.086651e+001 9.727008e+001
         vertex 9.259110e+001 8.981975e+001 9.919537e+001
         vertex 9.258244e+001 8.981734e+001 9.900383e+001
      endloop
   endfacet
   facet normal 9.989784e-001 8.402567e-015 -4.518990e-002
      outer loop
         vertex 9.254704e+001 8.808061e+001 9.822119e+001
         vertex 9.255268e+001 8.793529e+001 9.834615e+001
         vertex 9.249052e+001 8.687766e+001 9.697186e+001
      endloop
   endfacet
   facet normal 9.989784e-001 8.402567e-015 -4.518990e-002
      outer loop
         vertex 9.249052e+001 8.687766e+001 9.697186e+001
         vertex 9.255268e+001 8.793529e+001 9.834615e+001
         vertex 9.255939e+001 8.781390e+001 9.849442e+001
      endloop
   endfacet
   facet normal 9.989784e-001 8.402567e-015 -4.518990e-002
      outer loop
         vertex 9.249052e+001 8.687766e+001 9.697186e+001
         vertex 9.255939e+001 8.781390e+001 9.849442e+001
         vertex 9.256696e+001 8.772012e+001 9.866150e+001
      endloop
   endfacet
   facet normal 9.989784e-001 8.402567e-015 -4.518990e-002
      outer loop
         vertex 9.256696e+001 8.772012e+001 9.866150e+001
         vertex 9.257513e+001 8.765681e+001 9.884230e+001
         vertex 9.249052e+001 8.687766e+001 9.697186e+001
      endloop
   endfacet
   facet normal 9.989784e-001 8.402567e-015 -4.518990e-002
      outer loop
         vertex 9.249052e+001 8.687766e+001 9.697186e+001
         vertex 9.257513e+001 8.765681e+001 9.884230e+001
         vertex 9.258369e+001 8.762589e+001 9.903134e+001
      endloop
   endfacet
   facet normal 9.989784e-001 8.402567e-015 -4.518990e-002
      outer loop
         vertex 9.249052e+001 8.687766e+001 9.697186e+001
         vertex 9.258369e+001 8.762589e+001 9.903134e+001
         vertex 9.267078e+001 8.657914e+001 1.009566e+002
      endloop
   endfacet
   facet normal 9.989784e-001 8.402567e-015 -4.518990e-002
      outer loop
         vertex 9.267078e+001 8.657914e+001 1.009566e+002
         vertex 9.258369e+001 8.762589e+001 9.903134e+001
         vertex 9.259235e+001 8.762830e+001 9.922287e+001
      endloop
   endfacet
   facet normal 9.989784e-001 8.402567e-015 -4.518990e-002
      outer loop
         vertex 9.267078e+001 8.657914e+001 1.009566e+002
         vertex 9.259235e+001 8.762830e+001 9.922287e+001
         vertex 9.260086e+001 8.766396e+001 9.941107e+001
      endloop
   endfacet
   facet normal 9.989784e-001 8.402567e-015 -4.518990e-002
      outer loop
         vertex 9.260086e+001 8.766396e+001 9.941107e+001
         vertex 9.260896e+001 8.773180e+001 9.959023e+001
         vertex 9.267078e+001 8.657914e+001 1.009566e+002
      endloop
   endfacet
   facet normal 9.989784e-001 8.402567e-015 -4.518990e-002
      outer loop
         vertex 9.267078e+001 8.657914e+001 1.009566e+002
         vertex 9.260896e+001 8.773180e+001 9.959023e+001
         vertex 9.261642e+001 8.782975e+001 9.975491e+001
      endloop
   endfacet
   facet normal 9.989784e-001 8.402567e-015 -4.518990e-002
      outer loop
         vertex 9.267078e+001 8.657914e+001 1.009566e+002
         vertex 9.261642e+001 8.782975e+001 9.975491e+001
         vertex 9.262298e+001 8.795483e+001 9.990008e+001
      endloop
   endfacet
   facet normal 5.437447e-002 1.650157e-002 -9.983842e-001
      outer loop
         vertex 7.961395e+001 8.892941e+001 9.949910e+001
         vertex 9.263696e+001 8.864072e+001 1.002092e+002
         vertex 7.961406e+001 8.873767e+001 9.950150e+001
      endloop
   endfacet
   facet normal 5.476433e-002 1.317733e-001 -9.897659e-001
      outer loop
         vertex 7.961406e+001 8.873767e+001 9.950150e+001
         vertex 9.263696e+001 8.864072e+001 1.002092e+002
         vertex 9.263557e+001 8.845149e+001 1.001783e+002
      endloop
   endfacet
   facet normal 5.468421e-002 1.890355e-001 -9.804465e-001
      outer loop
         vertex 7.961406e+001 8.873767e+001 9.950150e+001
         vertex 9.263557e+001 8.845149e+001 1.001783e+002
         vertex 7.961266e+001 8.854845e+001 9.947061e+001
      endloop
   endfacet
   facet normal 5.397600e-002 3.011219e-001 -9.520568e-001
      outer loop
         vertex 7.961266e+001 8.854845e+001 9.947061e+001
         vertex 9.263557e+001 8.845149e+001 1.001783e+002
         vertex 9.263271e+001 8.827050e+001 1.001150e+002
      endloop
   endfacet
   facet normal 5.334767e-002 3.559451e-001 -9.329829e-001
      outer loop
         vertex 7.961266e+001 8.854845e+001 9.947061e+001
         vertex 9.263271e+001 8.827050e+001 1.001150e+002
         vertex 7.960979e+001 8.836745e+001 9.940736e+001
      endloop
   endfacet
   facet normal 5.156047e-002 4.615231e-001 -8.856286e-001
      outer loop
         vertex 7.960979e+001 8.836745e+001 9.940736e+001
         vertex 9.263271e+001 8.827050e+001 1.001150e+002
         vertex 9.262846e+001 8.810326e+001 1.000213e+002
      endloop
   endfacet
   facet normal 5.040119e-002 5.122749e-001 -8.573413e-001
      outer loop
         vertex 7.960979e+001 8.836745e+001 9.940736e+001
         vertex 9.262846e+001 8.810326e+001 1.000213e+002
         vertex 7.960557e+001 8.820021e+001 9.931369e+001
      endloop
   endfacet
   facet normal 4.758474e-002 6.081807e-001 -7.923711e-001
      outer loop
         vertex 7.960557e+001 8.820021e+001 9.931369e+001
         vertex 9.262846e+001 8.810326e+001 1.000213e+002
         vertex 9.262298e+001 8.795483e+001 9.990008e+001
      endloop
   endfacet
   facet normal 4.592707e-002 6.533290e-001 -7.556797e-001
      outer loop
         vertex 7.960557e+001 8.820021e+001 9.931369e+001
         vertex 9.262298e+001 8.795483e+001 9.990008e+001
         vertex 7.960007e+001 8.805179e+001 9.919242e+001
      endloop
   endfacet
   facet normal 4.216146e-002 7.366418e-001 -6.749676e-001
      outer loop
         vertex 7.960007e+001 8.805179e+001 9.919242e+001
         vertex 9.262298e+001 8.795483e+001 9.990008e+001
         vertex 9.261642e+001 8.782975e+001 9.975491e+001
      endloop
   endfacet
   facet normal 4.005302e-002 7.747983e-001 -6.309385e-001
      outer loop
         vertex 7.960007e+001 8.805179e+001 9.919242e+001
         vertex 9.261642e+001 8.782975e+001 9.975491e+001
         vertex 7.959351e+001 8.792670e+001 9.904725e+001
      endloop
   endfacet
   facet normal 3.544771e-002 8.429307e-001 -5.368532e-001
      outer loop
         vertex 7.959351e+001 8.792670e+001 9.904725e+001
         vertex 9.261642e+001 8.782975e+001 9.975491e+001
         vertex 9.260896e+001 8.773180e+001 9.959023e+001
      endloop
   endfacet
   facet normal 3.295041e-002 8.728973e-001 -4.867902e-001
      outer loop
         vertex 7.959351e+001 8.792670e+001 9.904725e+001
         vertex 9.260896e+001 8.773180e+001 9.959023e+001
         vertex 7.958606e+001 8.782876e+001 9.888257e+001
      endloop
   endfacet
   facet normal 2.764223e-002 9.236885e-001 -3.821460e-001
      outer loop
         vertex 7.958606e+001 8.782876e+001 9.888257e+001
         vertex 9.260896e+001 8.773180e+001 9.959023e+001
         vertex 9.260086e+001 8.766396e+001 9.941107e+001
      endloop
   endfacet
   facet normal 2.483104e-002 9.445040e-001 -3.275602e-001
      outer loop
         vertex 7.958606e+001 8.782876e+001 9.888257e+001
         vertex 9.260086e+001 8.766396e+001 9.941107e+001
         vertex 7.957795e+001 8.776092e+001 9.870341e+001
      endloop
   endfacet
   facet normal 1.898089e-002 9.763098e-001 -2.155433e-001
      outer loop
         vertex 7.957795e+001 8.776092e+001 9.870341e+001
         vertex 9.260086e+001 8.766396e+001 9.941107e+001
         vertex 9.259235e+001 8.762830e+001 9.922287e+001
      endloop
   endfacet
   facet normal 1.594177e-002 9.872928e-001 -1.581101e-001
      outer loop
         vertex 7.957795e+001 8.776092e+001 9.870341e+001
         vertex 9.259235e+001 8.762830e+001 9.922287e+001
         vertex 7.956944e+001 8.772525e+001 9.851521e+001
      endloop
   endfacet
   facet normal 9.729871e-003 9.990626e-001 -4.218093e-002
      outer loop
         vertex 7.956944e+001 8.772525e+001 9.851521e+001
         vertex 9.259235e+001 8.762830e+001 9.922287e+001
         vertex 9.258369e+001 8.762589e+001 9.903134e+001
      endloop
   endfacet
   facet normal 6.557036e-003 9.998454e-001 1.631551e-002
      outer loop
         vertex 7.956944e+001 8.772525e+001 9.851521e+001
         vertex 9.258369e+001 8.762589e+001 9.903134e+001
         vertex 7.956078e+001 8.772284e+001 9.832368e+001
      endloop
   endfacet
   facet normal 1.767559e-004 9.911772e-001 1.325433e-001
      outer loop
         vertex 7.956078e+001 8.772284e+001 9.832368e+001
         vertex 9.258369e+001 8.762589e+001 9.903134e+001
         vertex 9.257513e+001 8.765681e+001 9.884230e+001
      endloop
   endfacet
   facet normal -3.030690e-003 9.817262e-001 1.902746e-001
      outer loop
         vertex 7.956078e+001 8.772284e+001 9.832368e+001
         vertex 9.257513e+001 8.765681e+001 9.884230e+001
         vertex 7.955222e+001 8.775377e+001 9.813464e+001
      endloop
   endfacet
   facet normal -9.379921e-003 9.528910e-001 3.031679e-001
      outer loop
         vertex 7.955222e+001 8.775377e+001 9.813464e+001
         vertex 9.257513e+001 8.765681e+001 9.884230e+001
         vertex 9.256696e+001 8.772012e+001 9.866150e+001
      endloop
   endfacet
   facet normal -1.252173e-002 9.335106e-001 3.583310e-001
      outer loop
         vertex 7.955222e+001 8.775377e+001 9.813464e+001
         vertex 9.256696e+001 8.772012e+001 9.866150e+001
         vertex 7.954404e+001 8.781707e+001 9.795384e+001
      endloop
   endfacet
   facet normal -1.864202e-002 8.854419e-001 4.643761e-001
      outer loop
         vertex 7.954404e+001 8.781707e+001 9.795384e+001
         vertex 9.256696e+001 8.772012e+001 9.866150e+001
         vertex 9.255939e+001 8.781390e+001 9.849442e+001
      endloop
   endfacet
   facet normal -2.162062e-002 8.567604e-001 5.152612e-001
      outer loop
         vertex 7.954404e+001 8.781707e+001 9.795384e+001
         vertex 9.255939e+001 8.781390e+001 9.849442e+001
         vertex 7.953649e+001 8.791085e+001 9.778676e+001
      endloop
   endfacet
   facet normal -2.732294e-002 7.910104e-001 6.111923e-001
      outer loop
         vertex 7.953649e+001 8.791085e+001 9.778676e+001
         vertex 9.255939e+001 8.781390e+001 9.849442e+001
         vertex 9.255268e+001 8.793529e+001 9.834615e+001
      endloop
   endfacet
   facet normal -3.004693e-002 7.539503e-001 6.562439e-001
      outer loop
         vertex 7.953649e+001 8.791085e+001 9.778676e+001
         vertex 9.255268e+001 8.793529e+001 9.834615e+001
         vertex 7.952979e+001 8.803224e+001 9.763850e+001
      endloop
   endfacet
   facet normal -3.515774e-002 6.726177e-001 7.391545e-001
      outer loop
         vertex 7.952979e+001 8.803224e+001 9.763850e+001
         vertex 9.255268e+001 8.793529e+001 9.834615e+001
         vertex 9.254704e+001 8.808061e+001 9.822119e+001
      endloop
   endfacet
   facet normal -3.754495e-002 6.283535e-001 7.770214e-001
      outer loop
         vertex 7.952979e+001 8.803224e+001 9.763850e+001
         vertex 9.254704e+001 8.808061e+001 9.822119e+001
         vertex 7.952413e+001 8.817757e+001 9.751353e+001
      endloop
   endfacet
   facet normal -4.191146e-002 5.339925e-001 8.444498e-001
      outer loop
         vertex 7.952413e+001 8.817757e+001 9.751353e+001
         vertex 9.254704e+001 8.808061e+001 9.822119e+001
         vertex 9.254261e+001 8.824545e+001 9.812334e+001
      endloop
   endfacet
   facet normal -4.389123e-002 4.839023e-001 8.740206e-001
      outer loop
         vertex 7.952413e+001 8.817757e+001 9.751353e+001
         vertex 9.254261e+001 8.824545e+001 9.812334e+001
         vertex 7.951971e+001 8.834241e+001 9.741569e+001
      endloop
   endfacet
   facet normal -4.738540e-002 3.794230e-001 9.240091e-001
      outer loop
         vertex 7.951971e+001 8.834241e+001 9.741569e+001
         vertex 9.254261e+001 8.824545e+001 9.812334e+001
         vertex 9.253954e+001 8.842480e+001 9.805558e+001
      endloop
   endfacet
   facet normal -4.890027e-002 3.250381e-001 9.444358e-001
      outer loop
         vertex 7.951971e+001 8.834241e+001 9.741569e+001
         vertex 9.253954e+001 8.842480e+001 9.805558e+001
         vertex 7.951663e+001 8.852175e+001 9.734792e+001
      endloop
   endfacet
   facet normal -5.142140e-002 2.136068e-001 9.755655e-001
      outer loop
         vertex 7.951663e+001 8.852175e+001 9.734792e+001
         vertex 9.253954e+001 8.842480e+001 9.805558e+001
         vertex 9.253793e+001 8.861319e+001 9.801994e+001
      endloop
   endfacet
   facet normal -5.242807e-002 1.565624e-001 9.862756e-001
      outer loop
         vertex 7.951663e+001 8.852175e+001 9.734792e+001
         vertex 9.253793e+001 8.861319e+001 9.801994e+001
         vertex 7.951502e+001 8.871014e+001 9.731229e+001
      endloop
   endfacet
   facet normal -5.390450e-002 4.150797e-002 9.976830e-001
      outer loop
         vertex 7.951502e+001 8.871014e+001 9.731229e+001
         vertex 9.253793e+001 8.861319e+001 9.801994e+001
         vertex 9.253782e+001 8.880492e+001 9.801753e+001
      endloop
   endfacet
   facet normal -5.437447e-002 -1.650157e-002 9.983842e-001
      outer loop
         vertex 7.951502e+001 8.871014e+001 9.731229e+001
         vertex 9.253782e+001 8.880492e+001 9.801753e+001
         vertex 7.951492e+001 8.890187e+001 9.730988e+001
      endloop
   endfacet
   facet normal -5.476433e-002 -1.317733e-001 9.897659e-001
      outer loop
         vertex 7.951492e+001 8.890187e+001 9.730988e+001
         vertex 9.253782e+001 8.880492e+001 9.801753e+001
         vertex 9.253922e+001 8.899416e+001 9.804842e+001
      endloop
   endfacet
   facet normal -5.468421e-002 -1.890355e-001 9.804465e-001
      outer loop
         vertex 7.951492e+001 8.890187e+001 9.730988e+001
         vertex 9.253922e+001 8.899416e+001 9.804842e+001
         vertex 7.951631e+001 8.909110e+001 9.734077e+001
      endloop
   endfacet
   facet normal -5.397600e-002 -3.011219e-001 9.520568e-001
      outer loop
         vertex 7.951631e+001 8.909110e+001 9.734077e+001
         vertex 9.253922e+001 8.899416e+001 9.804842e+001
         vertex 9.254208e+001 8.917514e+001 9.811167e+001
      endloop
   endfacet
   facet normal -5.334767e-002 -3.559451e-001 9.329829e-001
      outer loop
         vertex 7.951631e+001 8.909110e+001 9.734077e+001
         vertex 9.254208e+001 8.917514e+001 9.811167e+001
         vertex 7.951917e+001 8.927209e+001 9.740401e+001
      endloop
   endfacet
   facet normal -5.156047e-002 -4.615231e-001 8.856286e-001
      outer loop
         vertex 7.951917e+001 8.927209e+001 9.740401e+001
         vertex 9.254208e+001 8.917514e+001 9.811167e+001
         vertex 9.254632e+001 8.934238e+001 9.820536e+001
      endloop
   endfacet
   facet normal -5.040119e-002 -5.122749e-001 8.573413e-001
      outer loop
         vertex 7.951917e+001 8.927209e+001 9.740401e+001
         vertex 9.254632e+001 8.934238e+001 9.820536e+001
         vertex 7.952341e+001 8.943934e+001 9.749770e+001
      endloop
   endfacet
   facet normal -4.758474e-002 -6.081807e-001 7.923711e-001
      outer loop
         vertex 7.952341e+001 8.943934e+001 9.749770e+001
         vertex 9.254632e+001 8.934238e+001 9.820536e+001
         vertex 9.255180e+001 8.949080e+001 9.832662e+001
      endloop
   endfacet
   facet normal -4.592707e-002 -6.533290e-001 7.556797e-001
      outer loop
         vertex 7.952341e+001 8.943934e+001 9.749770e+001
         vertex 9.255180e+001 8.949080e+001 9.832662e+001
         vertex 7.952890e+001 8.958775e+001 9.761897e+001
      endloop
   endfacet
   facet normal -4.216146e-002 -7.366418e-001 6.749676e-001
      outer loop
         vertex 7.952890e+001 8.958775e+001 9.761897e+001
         vertex 9.255180e+001 8.949080e+001 9.832662e+001
         vertex 9.255837e+001 8.961589e+001 9.847180e+001
      endloop
   endfacet
   facet normal -4.005302e-002 -7.747983e-001 6.309385e-001
      outer loop
         vertex 7.952890e+001 8.958775e+001 9.761897e+001
         vertex 9.255837e+001 8.961589e+001 9.847180e+001
         vertex 7.953547e+001 8.971284e+001 9.776415e+001
      endloop
   endfacet
   facet normal -3.544771e-002 -8.429307e-001 5.368532e-001
      outer loop
         vertex 7.953547e+001 8.971284e+001 9.776415e+001
         vertex 9.255837e+001 8.961589e+001 9.847180e+001
         vertex 9.256582e+001 8.971384e+001 9.863647e+001
      endloop
   endfacet
   facet normal -3.295041e-002 -8.728973e-001 4.867902e-001
      outer loop
         vertex 7.953547e+001 8.971284e+001 9.776415e+001
         vertex 9.256582e+001 8.971384e+001 9.863647e+001
         vertex 7.954292e+001 8.981080e+001 9.792882e+001
      endloop
   endfacet
   facet normal -2.764223e-002 -9.236885e-001 3.821460e-001
      outer loop
         vertex 7.954292e+001 8.981080e+001 9.792882e+001
         vertex 9.256582e+001 8.971384e+001 9.863647e+001
         vertex 9.257393e+001 8.978168e+001 9.881563e+001
      endloop
   endfacet
   facet normal -2.483104e-002 -9.445040e-001 3.275602e-001
      outer loop
         vertex 7.954292e+001 8.981080e+001 9.792882e+001
         vertex 9.257393e+001 8.978168e+001 9.881563e+001
         vertex 7.955102e+001 8.987863e+001 9.810797e+001
      endloop
   endfacet
   facet normal -1.898089e-002 -9.763098e-001 2.155433e-001
      outer loop
         vertex 7.955102e+001 8.987863e+001 9.810797e+001
         vertex 9.257393e+001 8.978168e+001 9.881563e+001
         vertex 9.258244e+001 8.981734e+001 9.900383e+001
      endloop
   endfacet
   facet normal -1.594177e-002 -9.872928e-001 1.581101e-001
      outer loop
         vertex 7.955102e+001 8.987863e+001 9.810797e+001
         vertex 9.258244e+001 8.981734e+001 9.900383e+001
         vertex 7.955953e+001 8.991430e+001 9.829617e+001
      endloop
   endfacet
   facet normal -9.729871e-003 -9.990626e-001 4.218093e-002
      outer loop
         vertex 7.955953e+001 8.991430e+001 9.829617e+001
         vertex 9.258244e+001 8.981734e+001 9.900383e+001
         vertex 9.259110e+001 8.981975e+001 9.919537e+001
      endloop
   endfacet
   facet normal -6.557036e-003 -9.998454e-001 -1.631551e-002
      outer loop
         vertex 7.955953e+001 8.991430e+001 9.829617e+001
         vertex 9.259110e+001 8.981975e+001 9.919537e+001
         vertex 7.956820e+001 8.991670e+001 9.848771e+001
      endloop
   endfacet
   facet normal -1.767559e-004 -9.911772e-001 -1.325433e-001
      outer loop
         vertex 7.956820e+001 8.991670e+001 9.848771e+001
         vertex 9.259110e+001 8.981975e+001 9.919537e+001
         vertex 9.259966e+001 8.978883e+001 9.938441e+001
      endloop
   endfacet
   facet normal 3.030690e-003 -9.817262e-001 -1.902746e-001
      outer loop
         vertex 7.956820e+001 8.991670e+001 9.848771e+001
         vertex 9.259966e+001 8.978883e+001 9.938441e+001
         vertex 7.957674e+001 8.988579e+001 9.867675e+001
      endloop
   endfacet
   facet normal 9.379921e-003 -9.528910e-001 -3.031679e-001
      outer loop
         vertex 7.957674e+001 8.988579e+001 9.867675e+001
         vertex 9.259966e+001 8.978883e+001 9.938441e+001
         vertex 9.260783e+001 8.972552e+001 9.956521e+001
      endloop
   endfacet
   facet normal 1.252173e-002 -9.335106e-001 -3.583310e-001
      outer loop
         vertex 7.957674e+001 8.988579e+001 9.867675e+001
         vertex 9.260783e+001 8.972552e+001 9.956521e+001
         vertex 7.958492e+001 8.982247e+001 9.885754e+001
      endloop
   endfacet
   facet normal 1.864202e-002 -8.854419e-001 -4.643761e-001
      outer loop
         vertex 7.958492e+001 8.982247e+001 9.885754e+001
         vertex 9.260783e+001 8.972552e+001 9.956521e+001
         vertex 9.261539e+001 8.963174e+001 9.973228e+001
      endloop
   endfacet
   facet normal 2.162062e-002 -8.567604e-001 -5.152612e-001
      outer loop
         vertex 7.958492e+001 8.982247e+001 9.885754e+001
         vertex 9.261539e+001 8.963174e+001 9.973228e+001
         vertex 7.959249e+001 8.972870e+001 9.902462e+001
      endloop
   endfacet
   facet normal 2.732294e-002 -7.910104e-001 -6.111923e-001
      outer loop
         vertex 7.959249e+001 8.972870e+001 9.902462e+001
         vertex 9.261539e+001 8.963174e+001 9.973228e+001
         vertex 9.262210e+001 8.951035e+001 9.988055e+001
      endloop
   endfacet
   facet normal 3.004693e-002 -7.539503e-001 -6.562439e-001
      outer loop
         vertex 7.959249e+001 8.972870e+001 9.902462e+001
         vertex 9.262210e+001 8.951035e+001 9.988055e+001
         vertex 7.959920e+001 8.960730e+001 9.917290e+001
      endloop
   endfacet
   facet normal 3.515774e-002 -6.726177e-001 -7.391545e-001
      outer loop
         vertex 7.959920e+001 8.960730e+001 9.917290e+001
         vertex 9.262210e+001 8.951035e+001 9.988055e+001
         vertex 9.262775e+001 8.936503e+001 1.000055e+002
      endloop
   endfacet
   facet normal 3.754495e-002 -6.283535e-001 -7.770214e-001
      outer loop
         vertex 7.959920e+001 8.960730e+001 9.917290e+001
         vertex 9.262775e+001 8.936503e+001 1.000055e+002
         vertex 7.960484e+001 8.946198e+001 9.929785e+001
      endloop
   endfacet
   facet normal 4.191146e-002 -5.339925e-001 -8.444498e-001
      outer loop
         vertex 7.960484e+001 8.946198e+001 9.929785e+001
         vertex 9.262775e+001 8.936503e+001 1.000055e+002
         vertex 9.263217e+001 8.920019e+001 1.001034e+002
      endloop
   endfacet
   facet normal 4.389123e-002 -4.839023e-001 -8.740206e-001
      outer loop
         vertex 7.960484e+001 8.946198e+001 9.929785e+001
         vertex 9.263217e+001 8.920019e+001 1.001034e+002
         vertex 7.960928e+001 8.929714e+001 9.939570e+001
      endloop
   endfacet
   facet normal 4.738540e-002 -3.794230e-001 -9.240091e-001
      outer loop
         vertex 7.960928e+001 8.929714e+001 9.939570e+001
         vertex 9.263217e+001 8.920019e+001 1.001034e+002
         vertex 9.263525e+001 8.902085e+001 1.001711e+002
      endloop
   endfacet
   facet normal 4.890027e-002 -3.250381e-001 -9.444358e-001
      outer loop
         vertex 7.960928e+001 8.929714e+001 9.939570e+001
         vertex 9.263525e+001 8.902085e+001 1.001711e+002
         vertex 7.961234e+001 8.911781e+001 9.946347e+001
      endloop
   endfacet
   facet normal 5.142140e-002 -2.136068e-001 -9.755655e-001
      outer loop
         vertex 7.961234e+001 8.911781e+001 9.946347e+001
         vertex 9.263525e+001 8.902085e+001 1.001711e+002
         vertex 9.263686e+001 8.883245e+001 1.002068e+002
      endloop
   endfacet
   facet normal 5.242807e-002 -1.565624e-001 -9.862756e-001
      outer loop
         vertex 7.961234e+001 8.911781e+001 9.946347e+001
         vertex 9.263686e+001 8.883245e+001 1.002068e+002
         vertex 7.961395e+001 8.892941e+001 9.949910e+001
      endloop
   endfacet
   facet normal 5.390450e-002 -4.150797e-002 -9.976830e-001
      outer loop
         vertex 7.961395e+001 8.892941e+001 9.949910e+001
         vertex 9.263686e+001 8.883245e+001 1.002068e+002
         vertex 9.263696e+001 8.864072e+001 1.002092e+002
      endloop
   endfacet
   facet normal 4.518368e-002 -1.658957e-002 9.988409e-001
      outer loop
         vertex 9.366059e+001 7.953738e+001 2.219223e+002
         vertex 8.966468e+001 7.953738e+001 2.221031e+002
         vertex 9.366071e+001 7.934103e+001 2.219248e+002
      endloop
   endfacet
   facet normal 4.515058e-002 4.170682e-002 9.981092e-001
      outer loop
         vertex 9.366071e+001 7.934103e+001 2.219248e+002
         vertex 8.966468e+001 7.953738e+001 2.221031e+002
         vertex 8.966479e+001 7.934103e+001 2.221056e+002
      endloop
   endfacet
   facet normal 4.462742e-002 1.572868e-001 9.865441e-001
      outer loop
         vertex 9.366071e+001 7.934103e+001 2.219248e+002
         vertex 8.966479e+001 7.934103e+001 2.221056e+002
         vertex 9.366236e+001 7.914810e+001 2.219613e+002
      endloop
   endfacet
   facet normal 4.413736e-002 2.145703e-001 9.757107e-001
      outer loop
         vertex 9.366236e+001 7.914810e+001 2.219613e+002
         vertex 8.966479e+001 7.934103e+001 2.221056e+002
         vertex 8.966644e+001 7.914810e+001 2.221421e+002
      endloop
   endfacet
   facet normal 4.271518e-002 3.263840e-001 9.442716e-001
      outer loop
         vertex 9.366236e+001 7.914810e+001 2.219613e+002
         vertex 8.966644e+001 7.914810e+001 2.221421e+002
         vertex 9.366550e+001 7.896443e+001 2.220307e+002
      endloop
   endfacet
   facet normal 4.178305e-002 3.809142e-001 9.236658e-001
      outer loop
         vertex 9.366550e+001 7.896443e+001 2.220307e+002
         vertex 8.966644e+001 7.914810e+001 2.221421e+002
         vertex 8.966958e+001 7.896443e+001 2.222115e+002
      endloop
   endfacet
   facet normal 3.950506e-002 4.855642e-001 8.733079e-001
      outer loop
         vertex 9.366550e+001 7.896443e+001 2.220307e+002
         vertex 8.966958e+001 7.896443e+001 2.222115e+002
         vertex 9.367003e+001 7.879562e+001 2.221309e+002
      endloop
   endfacet
   facet normal 3.815918e-002 5.356841e-001 8.435558e-001
      outer loop
         vertex 9.367003e+001 7.879562e+001 2.221309e+002
         vertex 8.966958e+001 7.896443e+001 2.222115e+002
         vertex 8.967412e+001 7.879562e+001 2.223117e+002
      endloop
   endfacet
   facet normal 3.509459e-002 6.299908e-001 7.758092e-001
      outer loop
         vertex 9.367003e+001 7.879562e+001 2.221309e+002
         vertex 8.967412e+001 7.879562e+001 2.223117e+002
         vertex 9.367581e+001 7.864680e+001 2.222589e+002
      endloop
   endfacet
   facet normal 3.337587e-002 6.741776e-001 7.378148e-001
      outer loop
         vertex 9.367581e+001 7.864680e+001 2.222589e+002
         vertex 8.967412e+001 7.879562e+001 2.223117e+002
         vertex 8.967990e+001 7.864680e+001 2.224397e+002
      endloop
   endfacet
   facet normal 2.961780e-002 7.552754e-001 6.547379e-001
      outer loop
         vertex 9.367581e+001 7.864680e+001 2.222589e+002
         vertex 8.967990e+001 7.864680e+001 2.224397e+002
         vertex 9.368269e+001 7.852249e+001 2.224107e+002
      endloop
   endfacet
   facet normal 2.757845e-002 7.921865e-001 6.096556e-001
      outer loop
         vertex 9.368269e+001 7.852249e+001 2.224107e+002
         vertex 8.967990e+001 7.864680e+001 2.224397e+002
         vertex 8.968678e+001 7.852249e+001 2.225915e+002
      endloop
   endfacet
   facet normal 2.324108e-002 8.576114e-001 5.137728e-001
      outer loop
         vertex 9.368269e+001 7.852249e+001 2.224107e+002
         vertex 8.968678e+001 7.852249e+001 2.225915e+002
         vertex 9.369042e+001 7.842645e+001 2.225818e+002
      endloop
   endfacet
   facet normal 2.094307e-002 8.861253e-001 4.629724e-001
      outer loop
         vertex 9.369042e+001 7.842645e+001 2.225818e+002
         vertex 8.968678e+001 7.852249e+001 2.225915e+002
         vertex 8.969451e+001 7.842645e+001 2.227626e+002
      endloop
   endfacet
   facet normal 1.615820e-002 9.338893e-001 3.571969e-001
      outer loop
         vertex 9.369042e+001 7.842645e+001 2.225818e+002
         vertex 8.969451e+001 7.842645e+001 2.227626e+002
         vertex 9.369880e+001 7.836162e+001 2.227670e+002
      endloop
   endfacet
   facet normal 1.367135e-002 9.531395e-001 3.022219e-001
      outer loop
         vertex 9.369880e+001 7.836162e+001 2.227670e+002
         vertex 8.969451e+001 7.842645e+001 2.227626e+002
         vertex 8.970289e+001 7.836162e+001 2.229478e+002
      endloop
   endfacet
   facet normal 8.584356e-003 9.817915e-001 1.897678e-001
      outer loop
         vertex 9.369880e+001 7.836162e+001 2.227670e+002
         vertex 8.970289e+001 7.836162e+001 2.229478e+002
         vertex 9.370757e+001 7.832994e+001 2.229606e+002
      endloop
   endfacet
   facet normal 5.984223e-003 9.911932e-001 1.322886e-001
      outer loop
         vertex 9.370757e+001 7.832994e+001 2.229606e+002
         vertex 8.970289e+001 7.836162e+001 2.229478e+002
         vertex 8.971165e+001 7.832994e+001 2.231413e+002
      endloop
   endfacet
   facet normal 7.496810e-004 9.998624e-001 1.657262e-002
      outer loop
         vertex 9.370757e+001 7.832994e+001 2.229606e+002
         vertex 8.971165e+001 7.832994e+001 2.231413e+002
         vertex 9.371644e+001 7.833242e+001 2.231567e+002
      endloop
   endfacet
   facet normal -1.884727e-003 9.991299e-001 -4.166422e-002
      outer loop
         vertex 9.371644e+001 7.833242e+001 2.231567e+002
         vertex 8.971165e+001 7.832994e+001 2.231413e+002
         vertex 8.972052e+001 7.833242e+001 2.233375e+002
      endloop
   endfacet
   facet normal -7.107773e-003 9.875530e-001 -1.571261e-001
      outer loop
         vertex 9.371644e+001 7.833242e+001 2.231567e+002
         vertex 8.972052e+001 7.833242e+001 2.233375e+002
         vertex 9.372515e+001 7.836894e+001 2.233495e+002
      endloop
   endfacet
   facet normal -9.696410e-003 9.767085e-001 -2.143511e-001
      outer loop
         vertex 9.372515e+001 7.836894e+001 2.233495e+002
         vertex 8.972052e+001 7.833242e+001 2.233375e+002
         vertex 8.972923e+001 7.836894e+001 2.235302e+002
      endloop
   endfacet
   facet normal -1.474926e-002 9.452373e-001 -3.260506e-001
      outer loop
         vertex 9.372515e+001 7.836894e+001 2.233495e+002
         vertex 8.972923e+001 7.836894e+001 2.235302e+002
         vertex 9.373345e+001 7.843841e+001 2.235329e+002
      endloop
   endfacet
   facet normal -1.721347e-002 9.246104e-001 -3.805250e-001
      outer loop
         vertex 9.373345e+001 7.843841e+001 2.235329e+002
         vertex 8.972923e+001 7.836894e+001 2.235302e+002
         vertex 8.973753e+001 7.843841e+001 2.237137e+002
      endloop
   endfacet
   facet normal -2.194260e-002 8.742010e-001 -4.850682e-001
      outer loop
         vertex 9.373345e+001 7.843841e+001 2.235329e+002
         vertex 8.973753e+001 7.843841e+001 2.237137e+002
         vertex 9.374108e+001 7.853873e+001 2.237016e+002
      endloop
   endfacet
   facet normal -2.420751e-002 8.444185e-001 -5.351369e-001
      outer loop
         vertex 9.374108e+001 7.853873e+001 2.237016e+002
         vertex 8.973753e+001 7.843841e+001 2.237137e+002
         vertex 8.974516e+001 7.853873e+001 2.238823e+002
      endloop
   endfacet
   facet normal -2.846922e-002 7.766026e-001 -6.293472e-001
      outer loop
         vertex 9.374108e+001 7.853873e+001 2.237016e+002
         vertex 8.974516e+001 7.853873e+001 2.238823e+002
         vertex 9.374780e+001 7.866682e+001 2.238503e+002
      endloop
   endfacet
   facet normal -3.046602e-002 7.385693e-001 -6.734889e-001
      outer loop
         vertex 9.374780e+001 7.866682e+001 2.238503e+002
         vertex 8.974516e+001 7.853873e+001 2.238823e+002
         vertex 8.975189e+001 7.866682e+001 2.240310e+002
      endloop
   endfacet
   facet normal -3.413082e-002 6.554075e-001 -7.545038e-001
      outer loop
         vertex 9.374780e+001 7.866682e+001 2.238503e+002
         vertex 8.975189e+001 7.866682e+001 2.240310e+002
         vertex 9.375342e+001 7.881881e+001 2.239744e+002
      endloop
   endfacet
   facet normal -3.579883e-002 6.102791e-001 -7.913772e-001
      outer loop
         vertex 9.375342e+001 7.881881e+001 2.239744e+002
         vertex 8.975189e+001 7.866682e+001 2.240310e+002
         vertex 8.975751e+001 7.881881e+001 2.241552e+002
      endloop
   endfacet
   facet normal -3.875538e-002 5.142982e-001 -8.567353e-001
      outer loop
         vertex 9.375342e+001 7.881881e+001 2.239744e+002
         vertex 8.975751e+001 7.881881e+001 2.241552e+002
         vertex 9.375777e+001 7.899009e+001 2.240704e+002
      endloop
   endfacet
   facet normal -4.004391e-002 4.634458e-001 -8.852200e-001
      outer loop
         vertex 9.375777e+001 7.899009e+001 2.240704e+002
         vertex 8.975751e+001 7.881881e+001 2.241552e+002
         vertex 8.976185e+001 7.899009e+001 2.242511e+002
      endloop
   endfacet
   facet normal -4.220236e-002 3.575622e-001 -9.329353e-001
      outer loop
         vertex 9.375777e+001 7.899009e+001 2.240704e+002
         vertex 8.976185e+001 7.899009e+001 2.242511e+002
         vertex 9.376069e+001 7.917545e+001 2.241351e+002
      endloop
   endfacet
   facet normal -4.307228e-002 3.025310e-001 -9.521658e-001
      outer loop
         vertex 9.376069e+001 7.917545e+001 2.241351e+002
         vertex 8.976185e+001 7.899009e+001 2.242511e+002
         vertex 8.976477e+001 7.917545e+001 2.243159e+002
      endloop
   endfacet
   facet normal -4.436706e-002 1.899618e-001 -9.807885e-001
      outer loop
         vertex 9.376069e+001 7.917545e+001 2.241351e+002
         vertex 8.976477e+001 7.917545e+001 2.243159e+002
         vertex 9.376212e+001 7.936923e+001 2.241668e+002
      endloop
   endfacet
   facet normal -4.479192e-002 1.324239e-001 -9.901806e-001
      outer loop
         vertex 9.376212e+001 7.936923e+001 2.241668e+002
         vertex 8.976477e+001 7.917545e+001 2.243159e+002
         vertex 8.976621e+001 7.936923e+001 2.243475e+002
      endloop
   endfacet
   facet normal -4.518368e-002 1.658957e-002 -9.988409e-001
      outer loop
         vertex 9.376212e+001 7.936923e+001 2.241668e+002
         vertex 8.976621e+001 7.936923e+001 2.243475e+002
         vertex 9.376201e+001 7.956557e+001 2.241643e+002
      endloop
   endfacet
   facet normal -4.515058e-002 -4.170682e-002 -9.981092e-001
      outer loop
         vertex 9.376201e+001 7.956557e+001 2.241643e+002
         vertex 8.976621e+001 7.936923e+001 2.243475e+002
         vertex 8.976610e+001 7.956557e+001 2.243451e+002
      endloop
   endfacet
   facet normal -4.462742e-002 -1.572868e-001 -9.865441e-001
      outer loop
         vertex 9.376201e+001 7.956557e+001 2.241643e+002
         vertex 8.976610e+001 7.956557e+001 2.243451e+002
         vertex 9.376036e+001 7.975851e+001 2.241278e+002
      endloop
   endfacet
   facet normal -4.413736e-002 -2.145703e-001 -9.757107e-001
      outer loop
         vertex 9.376036e+001 7.975851e+001 2.241278e+002
         vertex 8.976610e+001 7.956557e+001 2.243451e+002
         vertex 8.976444e+001 7.975851e+001 2.243086e+002
      endloop
   endfacet
   facet normal -4.271518e-002 -3.263840e-001 -9.442716e-001
      outer loop
         vertex 9.376036e+001 7.975851e+001 2.241278e+002
         vertex 8.976444e+001 7.975851e+001 2.243086e+002
         vertex 9.375722e+001 7.994218e+001 2.240584e+002
      endloop
   endfacet
   facet normal -4.178305e-002 -3.809142e-001 -9.236658e-001
      outer loop
         vertex 9.375722e+001 7.994218e+001 2.240584e+002
         vertex 8.976444e+001 7.975851e+001 2.243086e+002
         vertex 8.976131e+001 7.994218e+001 2.242392e+002
      endloop
   endfacet
   facet normal -3.950506e-002 -4.855642e-001 -8.733079e-001
      outer loop
         vertex 9.375722e+001 7.994218e+001 2.240584e+002
         vertex 8.976131e+001 7.994218e+001 2.242392e+002
         vertex 9.375269e+001 8.011098e+001 2.239582e+002
      endloop
   endfacet
   facet normal -3.815918e-002 -5.356841e-001 -8.435558e-001
      outer loop
         vertex 9.375269e+001 8.011098e+001 2.239582e+002
         vertex 8.976131e+001 7.994218e+001 2.242392e+002
         vertex 8.975677e+001 8.011098e+001 2.241390e+002
      endloop
   endfacet
   facet normal -3.509459e-002 -6.299908e-001 -7.758092e-001
      outer loop
         vertex 9.375269e+001 8.011098e+001 2.239582e+002
         vertex 8.975677e+001 8.011098e+001 2.241390e+002
         vertex 9.374690e+001 8.025980e+001 2.238302e+002
      endloop
   endfacet
   facet normal -3.337587e-002 -6.741776e-001 -7.378148e-001
      outer loop
         vertex 9.374690e+001 8.025980e+001 2.238302e+002
         vertex 8.975677e+001 8.011098e+001 2.241390e+002
         vertex 8.975098e+001 8.025980e+001 2.240110e+002
      endloop
   endfacet
   facet normal -2.961780e-002 -7.552754e-001 -6.547379e-001
      outer loop
         vertex 9.374690e+001 8.025980e+001 2.238302e+002
         vertex 8.975098e+001 8.025980e+001 2.240110e+002
         vertex 9.374003e+001 8.038412e+001 2.236784e+002
      endloop
   endfacet
   facet normal -2.757845e-002 -7.921865e-001 -6.096556e-001
      outer loop
         vertex 9.374003e+001 8.038412e+001 2.236784e+002
         vertex 8.975098e+001 8.025980e+001 2.240110e+002
         vertex 8.974411e+001 8.038412e+001 2.238592e+002
      endloop
   endfacet
   facet normal -2.324108e-002 -8.576114e-001 -5.137728e-001
      outer loop
         vertex 9.374003e+001 8.038412e+001 2.236784e+002
         vertex 8.974411e+001 8.038412e+001 2.238592e+002
         vertex 9.373229e+001 8.048016e+001 2.235073e+002
      endloop
   endfacet
   facet normal -2.094307e-002 -8.861253e-001 -4.629724e-001
      outer loop
         vertex 9.373229e+001 8.048016e+001 2.235073e+002
         vertex 8.974411e+001 8.038412e+001 2.238592e+002
         vertex 8.973638e+001 8.048016e+001 2.236881e+002
      endloop
   endfacet
   facet normal -1.615820e-002 -9.338893e-001 -3.571969e-001
      outer loop
         vertex 9.373229e+001 8.048016e+001 2.235073e+002
         vertex 8.973638e+001 8.048016e+001 2.236881e+002
         vertex 9.372392e+001 8.054500e+001 2.233222e+002
      endloop
   endfacet
   facet normal -1.367135e-002 -9.531395e-001 -3.022219e-001
      outer loop
         vertex 9.372392e+001 8.054500e+001 2.233222e+002
         vertex 8.973638e+001 8.048016e+001 2.236881e+002
         vertex 8.972800e+001 8.054500e+001 2.235029e+002
      endloop
   endfacet
   facet normal -8.584356e-003 -9.817915e-001 -1.897678e-001
      outer loop
         vertex 9.372392e+001 8.054500e+001 2.233222e+002
         vertex 8.972800e+001 8.054500e+001 2.235029e+002
         vertex 9.371516e+001 8.057667e+001 2.231286e+002
      endloop
   endfacet
   facet normal -5.984223e-003 -9.911932e-001 -1.322886e-001
      outer loop
         vertex 9.371516e+001 8.057667e+001 2.231286e+002
         vertex 8.972800e+001 8.054500e+001 2.235029e+002
         vertex 8.971925e+001 8.057667e+001 2.233093e+002
      endloop
   endfacet
   facet normal -7.496810e-004 -9.998624e-001 -1.657262e-002
      outer loop
         vertex 9.371516e+001 8.057667e+001 2.231286e+002
         vertex 8.971925e+001 8.057667e+001 2.233093e+002
         vertex 9.370629e+001 8.057420e+001 2.229324e+002
      endloop
   endfacet
   facet normal 1.884727e-003 -9.991299e-001 4.166422e-002
      outer loop
         vertex 9.370629e+001 8.057420e+001 2.229324e+002
         vertex 8.971925e+001 8.057667e+001 2.233093e+002
         vertex 8.971037e+001 8.057420e+001 2.231132e+002
      endloop
   endfacet
   facet normal 7.107773e-003 -9.875530e-001 1.571261e-001
      outer loop
         vertex 9.370629e+001 8.057420e+001 2.229324e+002
         vertex 8.971037e+001 8.057420e+001 2.231132e+002
         vertex 9.369756e+001 8.053767e+001 2.227397e+002
      endloop
   endfacet
   facet normal 9.696410e-003 -9.767085e-001 2.143511e-001
      outer loop
         vertex 9.369756e+001 8.053767e+001 2.227397e+002
         vertex 8.971037e+001 8.057420e+001 2.231132e+002
         vertex 8.970165e+001 8.053767e+001 2.229204e+002
      endloop
   endfacet
   facet normal 1.474926e-002 -9.452373e-001 3.260506e-001
      outer loop
         vertex 9.369756e+001 8.053767e+001 2.227397e+002
         vertex 8.970165e+001 8.053767e+001 2.229204e+002
         vertex 9.368926e+001 8.046820e+001 2.225562e+002
      endloop
   endfacet
   facet normal 1.721347e-002 -9.246104e-001 3.805250e-001
      outer loop
         vertex 9.368926e+001 8.046820e+001 2.225562e+002
         vertex 8.970165e+001 8.053767e+001 2.229204e+002
         vertex 8.969335e+001 8.046820e+001 2.227370e+002
      endloop
   endfacet
   facet normal 2.194260e-002 -8.742010e-001 4.850682e-001
      outer loop
         vertex 9.368926e+001 8.046820e+001 2.225562e+002
         vertex 8.969335e+001 8.046820e+001 2.227370e+002
         vertex 9.368164e+001 8.036788e+001 2.223876e+002
      endloop
   endfacet
   facet normal 2.420751e-002 -8.444185e-001 5.351369e-001
      outer loop
         vertex 9.368164e+001 8.036788e+001 2.223876e+002
         vertex 8.969335e+001 8.046820e+001 2.227370e+002
         vertex 8.968572e+001 8.036788e+001 2.225683e+002
      endloop
   endfacet
   facet normal 2.846922e-002 -7.766026e-001 6.293472e-001
      outer loop
         vertex 9.368164e+001 8.036788e+001 2.223876e+002
         vertex 8.968572e+001 8.036788e+001 2.225683e+002
         vertex 9.367491e+001 8.023978e+001 2.222389e+002
      endloop
   endfacet
   facet normal 3.046602e-002 -7.385693e-001 6.734889e-001
      outer loop
         vertex 9.367491e+001 8.023978e+001 2.222389e+002
         vertex 8.968572e+001 8.036788e+001 2.225683e+002
         vertex 8.967899e+001 8.023978e+001 2.224196e+002
      endloop
   endfacet
   facet normal 3.413082e-002 -6.554075e-001 7.545038e-001
      outer loop
         vertex 9.367491e+001 8.023978e+001 2.222389e+002
         vertex 8.967899e+001 8.023978e+001 2.224196e+002
         vertex 9.366930e+001 8.008780e+001 2.221147e+002
      endloop
   endfacet
   facet normal 3.579883e-002 -6.102791e-001 7.913772e-001
      outer loop
         vertex 9.366930e+001 8.008780e+001 2.221147e+002
         vertex 8.967899e+001 8.023978e+001 2.224196e+002
         vertex 8.967338e+001 8.008780e+001 2.222955e+002
      endloop
   endfacet
   facet normal 3.875538e-002 -5.142982e-001 8.567353e-001
      outer loop
         vertex 9.366930e+001 8.008780e+001 2.221147e+002
         vertex 8.967338e+001 8.008780e+001 2.222955e+002
         vertex 9.366496e+001 7.991652e+001 2.220188e+002
      endloop
   endfacet
   facet normal 4.004391e-002 -4.634458e-001 8.852200e-001
      outer loop
         vertex 9.366496e+001 7.991652e+001 2.220188e+002
         vertex 8.967338e+001 8.008780e+001 2.222955e+002
         vertex 8.966904e+001 7.991652e+001 2.221995e+002
      endloop
   endfacet
   facet normal 4.220236e-002 -3.575622e-001 9.329353e-001
      outer loop
         vertex 9.366496e+001 7.991652e+001 2.220188e+002
         vertex 8.966904e+001 7.991652e+001 2.221995e+002
         vertex 9.366203e+001 7.973117e+001 2.219540e+002
      endloop
   endfacet
   facet normal 4.307228e-002 -3.025310e-001 9.521658e-001
      outer loop
         vertex 9.366203e+001 7.973117e+001 2.219540e+002
         vertex 8.966904e+001 7.991652e+001 2.221995e+002
         vertex 8.966611e+001 7.973117e+001 2.221348e+002
      endloop
   endfacet
   facet normal 4.436706e-002 -1.899618e-001 9.807885e-001
      outer loop
         vertex 9.366203e+001 7.973117e+001 2.219540e+002
         vertex 8.966611e+001 7.973117e+001 2.221348e+002
         vertex 9.366059e+001 7.953738e+001 2.219223e+002
      endloop
   endfacet
   facet normal 4.479192e-002 -1.324239e-001 9.901806e-001
      outer loop
         vertex 9.366059e+001 7.953738e+001 2.219223e+002
         vertex 8.966611e+001 7.973117e+001 2.221348e+002
         vertex 8.966468e+001 7.953738e+001 2.221031e+002
      endloop
   endfacet
endsolid