solid Hydra - pinkFinger-1 pinkyActuator-1
   facet normal -9.600822e-001 9.568886e-003 -2.795542e-001
      outer loop
         vertex 1.337334e+002 9.055548e+001 9.990556e+001
         vertex 1.339011e+002 9.059828e+001 9.933107e+001
         vertex 1.337765e+002 8.656585e+001 9.962088e+001
      endloop
   endfacet
   facet normal -9.600822e-001 9.568886e-003 -2.795542e-001
      outer loop
         vertex 1.337765e+002 8.656585e+001 9.962088e+001
         vertex 1.339011e+002 9.059828e+001 9.933107e+001
         vertex 1.339442e+002 8.660867e+001 9.904639e+001
      endloop
   endfacet
   facet normal -9.600822e-001 9.568886e-003 -2.795542e-001
      outer loop
         vertex 9.860180e+001 7.978349e+001 2.201903e+002
         vertex 9.859912e+001 7.958716e+001 2.201928e+002
         vertex 9.812377e+001 8.146615e+001 2.218896e+002
      endloop
   endfacet
   facet normal -9.600822e-001 9.568886e-003 -2.795542e-001
      outer loop
         vertex 9.812377e+001 8.146615e+001 2.218896e+002
         vertex 9.859912e+001 7.958716e+001 2.201928e+002
         vertex 9.816691e+001 7.747652e+001 2.216049e+002
      endloop
   endfacet
   facet normal -9.600822e-001 9.568886e-003 -2.795542e-001
      outer loop
         vertex 9.816691e+001 7.747652e+001 2.216049e+002
         vertex 9.859912e+001 7.958716e+001 2.201928e+002
         vertex 9.860602e+001 7.939327e+001 2.201624e+002
      endloop
   endfacet
   facet normal -9.600822e-001 9.568886e-003 -2.795542e-001
      outer loop
         vertex 9.816691e+001 7.747652e+001 2.216049e+002
         vertex 9.860602e+001 7.939327e+001 2.201624e+002
         vertex 9.862227e+001 7.920773e+001 2.201003e+002
      endloop
   endfacet
   facet normal -9.600822e-001 9.568886e-003 -2.795542e-001
      outer loop
         vertex 9.862227e+001 7.920773e+001 2.201003e+002
         vertex 9.864738e+001 7.903614e+001 2.200082e+002
         vertex 9.816691e+001 7.747652e+001 2.216049e+002
      endloop
   endfacet
   facet normal -9.600822e-001 9.568886e-003 -2.795542e-001
      outer loop
         vertex 9.816691e+001 7.747652e+001 2.216049e+002
         vertex 9.864738e+001 7.903614e+001 2.200082e+002
         vertex 9.868060e+001 7.888374e+001 2.198889e+002
      endloop
   endfacet
   facet normal -9.600822e-001 9.568886e-003 -2.795542e-001
      outer loop
         vertex 9.816691e+001 7.747652e+001 2.216049e+002
         vertex 9.868060e+001 7.888374e+001 2.198889e+002
         vertex 9.872090e+001 7.875517e+001 2.197460e+002
      endloop
   endfacet
   facet normal -9.600822e-001 9.568886e-003 -2.795542e-001
      outer loop
         vertex 9.866499e+001 8.032819e+001 2.199920e+002
         vertex 9.863523e+001 8.015971e+001 2.200883e+002
         vertex 9.812377e+001 8.146615e+001 2.218896e+002
      endloop
   endfacet
   facet normal -9.600822e-001 9.568886e-003 -2.795542e-001
      outer loop
         vertex 9.812377e+001 8.146615e+001 2.218896e+002
         vertex 9.863523e+001 8.015971e+001 2.200883e+002
         vertex 9.861396e+001 7.997630e+001 2.201551e+002
      endloop
   endfacet
   facet normal -9.600822e-001 9.568886e-003 -2.795542e-001
      outer loop
         vertex 9.812377e+001 8.146615e+001 2.218896e+002
         vertex 9.861396e+001 7.997630e+001 2.201551e+002
         vertex 9.860180e+001 7.978349e+001 2.201903e+002
      endloop
   endfacet
   facet normal -9.600822e-001 9.568886e-003 -2.795542e-001
      outer loop
         vertex 9.908195e+001 7.873467e+001 2.185054e+002
         vertex 9.912569e+001 7.885849e+001 2.183594e+002
         vertex 1.326584e+002 8.628047e+001 1.034508e+002
      endloop
   endfacet
   facet normal -9.600822e-001 9.568886e-003 -2.795542e-001
      outer loop
         vertex 1.326584e+002 8.628047e+001 1.034508e+002
         vertex 9.912569e+001 7.885849e+001 2.183594e+002
         vertex 9.916300e+001 7.900688e+001 2.182364e+002
      endloop
   endfacet
   facet normal -9.600822e-001 9.568886e-003 -2.795542e-001
      outer loop
         vertex 9.872090e+001 7.875517e+001 2.197460e+002
         vertex 9.876708e+001 7.865430e+001 2.195840e+002
         vertex 9.816691e+001 7.747652e+001 2.216049e+002
      endloop
   endfacet
   facet normal -9.600822e-001 9.568886e-003 -2.795542e-001
      outer loop
         vertex 9.816691e+001 7.747652e+001 2.216049e+002
         vertex 9.876708e+001 7.865430e+001 2.195840e+002
         vertex 9.881771e+001 7.858422e+001 2.194077e+002
      endloop
   endfacet
   facet normal -9.600822e-001 9.568886e-003 -2.795542e-001
      outer loop
         vertex 9.816691e+001 7.747652e+001 2.216049e+002
         vertex 9.881771e+001 7.858422e+001 2.194077e+002
         vertex 9.887128e+001 7.854707e+001 2.192225e+002
      endloop
   endfacet
   facet normal -9.600822e-001 9.568886e-003 -2.795542e-001
      outer loop
         vertex 9.916300e+001 7.900688e+001 2.182364e+002
         vertex 9.919275e+001 7.917535e+001 2.181400e+002
         vertex 1.326584e+002 8.628047e+001 1.034508e+002
      endloop
   endfacet
   facet normal -9.600822e-001 9.568886e-003 -2.795542e-001
      outer loop
         vertex 1.326584e+002 8.628047e+001 1.034508e+002
         vertex 9.919275e+001 7.917535e+001 2.181400e+002
         vertex 9.921403e+001 7.935877e+001 2.180732e+002
      endloop
   endfacet
   facet normal -9.600822e-001 9.568886e-003 -2.795542e-001
      outer loop
         vertex 1.326584e+002 8.628047e+001 1.034508e+002
         vertex 9.921403e+001 7.935877e+001 2.180732e+002
         vertex 1.326153e+002 9.027010e+001 1.037355e+002
      endloop
   endfacet
   facet normal -9.600822e-001 9.568886e-003 -2.795542e-001
      outer loop
         vertex 1.326153e+002 9.027010e+001 1.037355e+002
         vertex 9.921403e+001 7.935877e+001 2.180732e+002
         vertex 9.922618e+001 7.955157e+001 2.180380e+002
      endloop
   endfacet
   facet normal -9.600822e-001 9.568886e-003 -2.795542e-001
      outer loop
         vertex 1.326153e+002 9.027010e+001 1.037355e+002
         vertex 9.922618e+001 7.955157e+001 2.180380e+002
         vertex 9.922886e+001 7.974790e+001 2.180356e+002
      endloop
   endfacet
   facet normal -9.600822e-001 9.568886e-003 -2.795542e-001
      outer loop
         vertex 9.922886e+001 7.974790e+001 2.180356e+002
         vertex 9.922197e+001 7.994179e+001 2.180659e+002
         vertex 1.326153e+002 9.027010e+001 1.037355e+002
      endloop
   endfacet
   facet normal -9.600822e-001 9.568886e-003 -2.795542e-001
      outer loop
         vertex 1.326153e+002 9.027010e+001 1.037355e+002
         vertex 9.922197e+001 7.994179e+001 2.180659e+002
         vertex 9.920572e+001 8.012734e+001 2.181280e+002
      endloop
   endfacet
   facet normal -9.600822e-001 9.568886e-003 -2.795542e-001
      outer loop
         vertex 1.326153e+002 9.027010e+001 1.037355e+002
         vertex 9.920572e+001 8.012734e+001 2.181280e+002
         vertex 9.918060e+001 8.029892e+001 2.182201e+002
      endloop
   endfacet
   facet normal -9.600822e-001 9.568886e-003 -2.795542e-001
      outer loop
         vertex 9.884735e+001 8.076009e+001 2.193804e+002
         vertex 9.879488e+001 8.069586e+001 2.195584e+002
         vertex 9.812377e+001 8.146615e+001 2.218896e+002
      endloop
   endfacet
   facet normal -9.600822e-001 9.568886e-003 -2.795542e-001
      outer loop
         vertex 9.879488e+001 8.069586e+001 2.195584e+002
         vertex 9.874604e+001 8.060040e+001 2.197229e+002
         vertex 9.812377e+001 8.146615e+001 2.218896e+002
      endloop
   endfacet
   facet normal -9.600822e-001 9.568886e-003 -2.795542e-001
      outer loop
         vertex 9.812377e+001 8.146615e+001 2.218896e+002
         vertex 9.874604e+001 8.060040e+001 2.197229e+002
         vertex 9.870229e+001 8.047659e+001 2.198689e+002
      endloop
   endfacet
   facet normal -9.600822e-001 9.568886e-003 -2.795542e-001
      outer loop
         vertex 9.812377e+001 8.146615e+001 2.218896e+002
         vertex 9.870229e+001 8.047659e+001 2.198689e+002
         vertex 9.866499e+001 8.032819e+001 2.199920e+002
      endloop
   endfacet
   facet normal -9.600822e-001 9.568886e-003 -2.795542e-001
      outer loop
         vertex 9.887128e+001 7.854707e+001 2.192225e+002
         vertex 9.892614e+001 7.854395e+001 2.190340e+002
         vertex 9.816691e+001 7.747652e+001 2.216049e+002
      endloop
   endfacet
   facet normal -9.600822e-001 9.568886e-003 -2.795542e-001
      outer loop
         vertex 9.816691e+001 7.747652e+001 2.216049e+002
         vertex 9.892614e+001 7.854395e+001 2.190340e+002
         vertex 9.898063e+001 7.857497e+001 2.188479e+002
      endloop
   endfacet
   facet normal -9.600822e-001 9.568886e-003 -2.795542e-001
      outer loop
         vertex 9.816691e+001 7.747652e+001 2.216049e+002
         vertex 9.898063e+001 7.857497e+001 2.188479e+002
         vertex 1.326584e+002 8.628047e+001 1.034508e+002
      endloop
   endfacet
   facet normal -9.600822e-001 9.568886e-003 -2.795542e-001
      outer loop
         vertex 1.326584e+002 8.628047e+001 1.034508e+002
         vertex 9.898063e+001 7.857497e+001 2.188479e+002
         vertex 9.903310e+001 7.863920e+001 2.186699e+002
      endloop
   endfacet
   facet normal -9.600822e-001 9.568886e-003 -2.795542e-001
      outer loop
         vertex 1.326584e+002 8.628047e+001 1.034508e+002
         vertex 9.903310e+001 7.863920e+001 2.186699e+002
         vertex 9.908195e+001 7.873467e+001 2.185054e+002
      endloop
   endfacet
   facet normal -9.600822e-001 9.568886e-003 -2.795542e-001
      outer loop
         vertex 9.918060e+001 8.029892e+001 2.182201e+002
         vertex 9.914738e+001 8.045132e+001 2.183394e+002
         vertex 1.326153e+002 9.027010e+001 1.037355e+002
      endloop
   endfacet
   facet normal -9.600822e-001 9.568886e-003 -2.795542e-001
      outer loop
         vertex 1.326153e+002 9.027010e+001 1.037355e+002
         vertex 9.914738e+001 8.045132e+001 2.183394e+002
         vertex 9.910708e+001 8.057991e+001 2.184823e+002
      endloop
   endfacet
   facet normal -9.600822e-001 9.568886e-003 -2.795542e-001
      outer loop
         vertex 1.326153e+002 9.027010e+001 1.037355e+002
         vertex 9.910708e+001 8.057991e+001 2.184823e+002
         vertex 9.906091e+001 8.068076e+001 2.186443e+002
      endloop
   endfacet
   facet normal -9.600822e-001 9.568886e-003 -2.795542e-001
      outer loop
         vertex 9.906091e+001 8.068076e+001 2.186443e+002
         vertex 9.901027e+001 8.075084e+001 2.188206e+002
         vertex 1.326153e+002 9.027010e+001 1.037355e+002
      endloop
   endfacet
   facet normal -9.600822e-001 9.568886e-003 -2.795542e-001
      outer loop
         vertex 1.326153e+002 9.027010e+001 1.037355e+002
         vertex 9.901027e+001 8.075084e+001 2.188206e+002
         vertex 9.895670e+001 8.078799e+001 2.190058e+002
      endloop
   endfacet
   facet normal -9.600822e-001 9.568886e-003 -2.795542e-001
      outer loop
         vertex 1.326153e+002 9.027010e+001 1.037355e+002
         vertex 9.895670e+001 8.078799e+001 2.190058e+002
         vertex 9.812377e+001 8.146615e+001 2.218896e+002
      endloop
   endfacet
   facet normal -9.600822e-001 9.568886e-003 -2.795542e-001
      outer loop
         vertex 9.812377e+001 8.146615e+001 2.218896e+002
         vertex 9.895670e+001 8.078799e+001 2.190058e+002
         vertex 9.890185e+001 8.079111e+001 2.191943e+002
      endloop
   endfacet
   facet normal -9.600822e-001 9.568886e-003 -2.795542e-001
      outer loop
         vertex 9.812377e+001 8.146615e+001 2.218896e+002
         vertex 9.890185e+001 8.079111e+001 2.191943e+002
         vertex 9.884735e+001 8.076009e+001 2.193804e+002
      endloop
   endfacet
   facet normal 9.600822e-001 -9.568886e-003 2.795542e-001
      outer loop
         vertex 1.377845e+002 8.657039e+001 1.001646e+002
         vertex 1.377414e+002 9.056001e+001 1.004493e+002
         vertex 1.374701e+002 8.649013e+001 1.012417e+002
      endloop
   endfacet
   facet normal 9.600822e-001 -9.568886e-003 2.795542e-001
      outer loop
         vertex 1.374701e+002 8.649013e+001 1.012417e+002
         vertex 1.377414e+002 9.056001e+001 1.004493e+002
         vertex 1.374269e+002 9.047975e+001 1.015264e+002
      endloop
   endfacet
   facet normal 9.600822e-001 -9.568886e-003 2.795542e-001
      outer loop
         vertex 1.024421e+002 7.974522e+001 2.213085e+002
         vertex 1.024543e+002 7.993803e+001 2.212733e+002
         vertex 1.019641e+002 8.142787e+001 2.230078e+002
      endloop
   endfacet
   facet normal 9.600822e-001 -9.568886e-003 2.795542e-001
      outer loop
         vertex 1.030209e+002 8.026065e+001 2.193384e+002
         vertex 1.030460e+002 8.008907e+001 2.192462e+002
         vertex 1.363089e+002 9.019437e+001 1.053564e+002
      endloop
   endfacet
   facet normal 9.600822e-001 -9.568886e-003 2.795542e-001
      outer loop
         vertex 1.030460e+002 8.008907e+001 2.192462e+002
         vertex 1.030623e+002 7.990351e+001 2.191841e+002
         vertex 1.363089e+002 9.019437e+001 1.053564e+002
      endloop
   endfacet
   facet normal 9.600822e-001 -9.568886e-003 2.795542e-001
      outer loop
         vertex 1.363089e+002 9.019437e+001 1.053564e+002
         vertex 1.030623e+002 7.990351e+001 2.191841e+002
         vertex 1.030692e+002 7.970963e+001 2.191538e+002
      endloop
   endfacet
   facet normal 9.600822e-001 -9.568886e-003 2.795542e-001
      outer loop
         vertex 1.363089e+002 9.019437e+001 1.053564e+002
         vertex 1.030692e+002 7.970963e+001 2.191538e+002
         vertex 1.363521e+002 8.620474e+001 1.050717e+002
      endloop
   endfacet
   facet normal 9.600822e-001 -9.568886e-003 2.795542e-001
      outer loop
         vertex 1.363521e+002 8.620474e+001 1.050717e+002
         vertex 1.030692e+002 7.970963e+001 2.191538e+002
         vertex 1.030665e+002 7.951330e+001 2.191562e+002
      endloop
   endfacet
   facet normal 9.600822e-001 -9.568886e-003 2.795542e-001
      outer loop
         vertex 1.363521e+002 8.620474e+001 1.050717e+002
         vertex 1.030665e+002 7.951330e+001 2.191562e+002
         vertex 1.030544e+002 7.932050e+001 2.191914e+002
      endloop
   endfacet
   facet normal 9.600822e-001 -9.568886e-003 2.795542e-001
      outer loop
         vertex 1.024877e+002 7.899786e+001 2.211264e+002
         vertex 1.020072e+002 7.743825e+001 2.227231e+002
         vertex 1.025209e+002 7.884547e+001 2.210071e+002
      endloop
   endfacet
   facet normal 9.600822e-001 -9.568886e-003 2.795542e-001
      outer loop
         vertex 1.025209e+002 7.884547e+001 2.210071e+002
         vertex 1.020072e+002 7.743825e+001 2.227231e+002
         vertex 1.025612e+002 7.871689e+001 2.208643e+002
      endloop
   endfacet
   facet normal 9.600822e-001 -9.568886e-003 2.795542e-001
      outer loop
         vertex 1.024877e+002 7.899786e+001 2.211264e+002
         vertex 1.024626e+002 7.916945e+001 2.212185e+002
         vertex 1.020072e+002 7.743825e+001 2.227231e+002
      endloop
   endfacet
   facet normal 9.600822e-001 -9.568886e-003 2.795542e-001
      outer loop
         vertex 1.020072e+002 7.743825e+001 2.227231e+002
         vertex 1.024626e+002 7.916945e+001 2.212185e+002
         vertex 1.024464e+002 7.935500e+001 2.212807e+002
      endloop
   endfacet
   facet normal 9.600822e-001 -9.568886e-003 2.795542e-001
      outer loop
         vertex 1.020072e+002 7.743825e+001 2.227231e+002
         vertex 1.024464e+002 7.935500e+001 2.212807e+002
         vertex 1.019641e+002 8.142787e+001 2.230078e+002
      endloop
   endfacet
   facet normal 9.600822e-001 -9.568886e-003 2.795542e-001
      outer loop
         vertex 1.019641e+002 8.142787e+001 2.230078e+002
         vertex 1.024464e+002 7.935500e+001 2.212807e+002
         vertex 1.024395e+002 7.954889e+001 2.213110e+002
      endloop
   endfacet
   facet normal 9.600822e-001 -9.568886e-003 2.795542e-001
      outer loop
         vertex 1.019641e+002 8.142787e+001 2.230078e+002
         vertex 1.024395e+002 7.954889e+001 2.213110e+002
         vertex 1.024421e+002 7.974522e+001 2.213085e+002
      endloop
   endfacet
   facet normal 9.600822e-001 -9.568886e-003 2.795542e-001
      outer loop
         vertex 1.024543e+002 7.993803e+001 2.212733e+002
         vertex 1.024756e+002 8.012144e+001 2.212066e+002
         vertex 1.019641e+002 8.142787e+001 2.230078e+002
      endloop
   endfacet
   facet normal 9.600822e-001 -9.568886e-003 2.795542e-001
      outer loop
         vertex 1.019641e+002 8.142787e+001 2.230078e+002
         vertex 1.024756e+002 8.012144e+001 2.212066e+002
         vertex 1.025053e+002 8.028992e+001 2.211102e+002
      endloop
   endfacet
   facet normal 9.600822e-001 -9.568886e-003 2.795542e-001
      outer loop
         vertex 1.019641e+002 8.142787e+001 2.230078e+002
         vertex 1.025053e+002 8.028992e+001 2.211102e+002
         vertex 1.025426e+002 8.043831e+001 2.209871e+002
      endloop
   endfacet
   facet normal 9.600822e-001 -9.568886e-003 2.795542e-001
      outer loop
         vertex 1.029660e+002 7.882021e+001 2.194776e+002
         vertex 1.029223e+002 7.869640e+001 2.196236e+002
         vertex 1.363521e+002 8.620474e+001 1.050717e+002
      endloop
   endfacet
   facet normal 9.600822e-001 -9.568886e-003 2.795542e-001
      outer loop
         vertex 1.027116e+002 7.850880e+001 2.203407e+002
         vertex 1.026580e+002 7.854595e+001 2.205259e+002
         vertex 1.020072e+002 7.743825e+001 2.227231e+002
      endloop
   endfacet
   facet normal 9.600822e-001 -9.568886e-003 2.795542e-001
      outer loop
         vertex 1.020072e+002 7.743825e+001 2.227231e+002
         vertex 1.026580e+002 7.854595e+001 2.205259e+002
         vertex 1.026074e+002 7.861602e+001 2.207022e+002
      endloop
   endfacet
   facet normal 9.600822e-001 -9.568886e-003 2.795542e-001
      outer loop
         vertex 1.020072e+002 7.743825e+001 2.227231e+002
         vertex 1.026074e+002 7.861602e+001 2.207022e+002
         vertex 1.025612e+002 7.871689e+001 2.208643e+002
      endloop
   endfacet
   facet normal 9.600822e-001 -9.568886e-003 2.795542e-001
      outer loop
         vertex 1.025426e+002 8.043831e+001 2.209871e+002
         vertex 1.025864e+002 8.056212e+001 2.208411e+002
         vertex 1.019641e+002 8.142787e+001 2.230078e+002
      endloop
   endfacet
   facet normal 9.600822e-001 -9.568886e-003 2.795542e-001
      outer loop
         vertex 1.019641e+002 8.142787e+001 2.230078e+002
         vertex 1.025864e+002 8.056212e+001 2.208411e+002
         vertex 1.026352e+002 8.065759e+001 2.206766e+002
      endloop
   endfacet
   facet normal 9.600822e-001 -9.568886e-003 2.795542e-001
      outer loop
         vertex 1.019641e+002 8.142787e+001 2.230078e+002
         vertex 1.026352e+002 8.065759e+001 2.206766e+002
         vertex 1.026877e+002 8.072181e+001 2.204986e+002
      endloop
   endfacet
   facet normal 9.600822e-001 -9.568886e-003 2.795542e-001
      outer loop
         vertex 1.030544e+002 7.932050e+001 2.191914e+002
         vertex 1.030331e+002 7.913707e+001 2.192582e+002
         vertex 1.363521e+002 8.620474e+001 1.050717e+002
      endloop
   endfacet
   facet normal 9.600822e-001 -9.568886e-003 2.795542e-001
      outer loop
         vertex 1.363521e+002 8.620474e+001 1.050717e+002
         vertex 1.030331e+002 7.913707e+001 2.192582e+002
         vertex 1.030033e+002 7.896861e+001 2.193546e+002
      endloop
   endfacet
   facet normal 9.600822e-001 -9.568886e-003 2.795542e-001
      outer loop
         vertex 1.363521e+002 8.620474e+001 1.050717e+002
         vertex 1.030033e+002 7.896861e+001 2.193546e+002
         vertex 1.029660e+002 7.882021e+001 2.194776e+002
      endloop
   endfacet
   facet normal 9.600822e-001 -9.568886e-003 2.795542e-001
      outer loop
         vertex 1.029223e+002 7.869640e+001 2.196236e+002
         vertex 1.028734e+002 7.860093e+001 2.197881e+002
         vertex 1.363521e+002 8.620474e+001 1.050717e+002
      endloop
   endfacet
   facet normal 9.600822e-001 -9.568886e-003 2.795542e-001
      outer loop
         vertex 1.363521e+002 8.620474e+001 1.050717e+002
         vertex 1.028734e+002 7.860093e+001 2.197881e+002
         vertex 1.028210e+002 7.853671e+001 2.199661e+002
      endloop
   endfacet
   facet normal 9.600822e-001 -9.568886e-003 2.795542e-001
      outer loop
         vertex 1.363521e+002 8.620474e+001 1.050717e+002
         vertex 1.028210e+002 7.853671e+001 2.199661e+002
         vertex 1.020072e+002 7.743825e+001 2.227231e+002
      endloop
   endfacet
   facet normal 9.600822e-001 -9.568886e-003 2.795542e-001
      outer loop
         vertex 1.020072e+002 7.743825e+001 2.227231e+002
         vertex 1.028210e+002 7.853671e+001 2.199661e+002
         vertex 1.027665e+002 7.850568e+001 2.201522e+002
      endloop
   endfacet
   facet normal 9.600822e-001 -9.568886e-003 2.795542e-001
      outer loop
         vertex 1.020072e+002 7.743825e+001 2.227231e+002
         vertex 1.027665e+002 7.850568e+001 2.201522e+002
         vertex 1.027116e+002 7.850880e+001 2.203407e+002
      endloop
   endfacet
   facet normal 9.600822e-001 -9.568886e-003 2.795542e-001
      outer loop
         vertex 1.029012e+002 8.064249e+001 2.197625e+002
         vertex 1.029474e+002 8.054163e+001 2.196005e+002
         vertex 1.363089e+002 9.019437e+001 1.053564e+002
      endloop
   endfacet
   facet normal 9.600822e-001 -9.568886e-003 2.795542e-001
      outer loop
         vertex 1.363089e+002 9.019437e+001 1.053564e+002
         vertex 1.029474e+002 8.054163e+001 2.196005e+002
         vertex 1.029877e+002 8.041304e+001 2.194576e+002
      endloop
   endfacet
   facet normal 9.600822e-001 -9.568886e-003 2.795542e-001
      outer loop
         vertex 1.363089e+002 9.019437e+001 1.053564e+002
         vertex 1.029877e+002 8.041304e+001 2.194576e+002
         vertex 1.030209e+002 8.026065e+001 2.193384e+002
      endloop
   endfacet
   facet normal 9.600822e-001 -9.568886e-003 2.795542e-001
      outer loop
         vertex 1.026877e+002 8.072181e+001 2.204986e+002
         vertex 1.027422e+002 8.075284e+001 2.203125e+002
         vertex 1.019641e+002 8.142787e+001 2.230078e+002
      endloop
   endfacet
   facet normal 9.600822e-001 -9.568886e-003 2.795542e-001
      outer loop
         vertex 1.019641e+002 8.142787e+001 2.230078e+002
         vertex 1.027422e+002 8.075284e+001 2.203125e+002
         vertex 1.027970e+002 8.074972e+001 2.201240e+002
      endloop
   endfacet
   facet normal 9.600822e-001 -9.568886e-003 2.795542e-001
      outer loop
         vertex 1.019641e+002 8.142787e+001 2.230078e+002
         vertex 1.027970e+002 8.074972e+001 2.201240e+002
         vertex 1.363089e+002 9.019437e+001 1.053564e+002
      endloop
   endfacet
   facet normal 9.600822e-001 -9.568886e-003 2.795542e-001
      outer loop
         vertex 1.363089e+002 9.019437e+001 1.053564e+002
         vertex 1.027970e+002 8.074972e+001 2.201240e+002
         vertex 1.028506e+002 8.071256e+001 2.199388e+002
      endloop
   endfacet
   facet normal 9.600822e-001 -9.568886e-003 2.795542e-001
      outer loop
         vertex 1.363089e+002 9.019437e+001 1.053564e+002
         vertex 1.028506e+002 8.071256e+001 2.199388e+002
         vertex 1.029012e+002 8.064249e+001 2.197625e+002
      endloop
   endfacet
   facet normal 2.795100e-001 7.134483e-002 -9.574884e-001
      outer loop
         vertex 1.339442e+002 8.660867e+001 9.904639e+001
         vertex 1.339011e+002 9.059828e+001 9.933107e+001
         vertex 1.377845e+002 8.657039e+001 1.001646e+002
      endloop
   endfacet
   facet normal 2.795100e-001 7.134483e-002 -9.574884e-001
      outer loop
         vertex 1.377845e+002 8.657039e+001 1.001646e+002
         vertex 1.339011e+002 9.059828e+001 9.933107e+001
         vertex 1.377414e+002 9.056001e+001 1.004493e+002
      endloop
   endfacet
   facet normal 1.078265e-002 -9.974058e-001 -7.117151e-002
      outer loop
         vertex 1.339442e+002 8.660867e+001 9.904639e+001
         vertex 1.377845e+002 8.657039e+001 1.001646e+002
         vertex 1.337765e+002 8.656585e+001 9.962088e+001
      endloop
   endfacet
   facet normal 1.078265e-002 -9.974058e-001 -7.117151e-002
      outer loop
         vertex 1.337765e+002 8.656585e+001 9.962088e+001
         vertex 1.377845e+002 8.657039e+001 1.001646e+002
         vertex 1.374701e+002 8.649013e+001 1.012417e+002
      endloop
   endfacet
   facet normal 1.078265e-002 -9.974058e-001 -7.117151e-002
      outer loop
         vertex 9.816691e+001 7.747652e+001 2.216049e+002
         vertex 1.326584e+002 8.628047e+001 1.034508e+002
         vertex 1.020072e+002 7.743825e+001 2.227231e+002
      endloop
   endfacet
   facet normal 1.078265e-002 -9.974058e-001 -7.117151e-002
      outer loop
         vertex 1.020072e+002 7.743825e+001 2.227231e+002
         vertex 1.326584e+002 8.628047e+001 1.034508e+002
         vertex 1.363521e+002 8.620474e+001 1.050717e+002
      endloop
   endfacet
   facet normal 1.078265e-002 -9.974058e-001 -7.117151e-002
      outer loop
         vertex 1.416254e+002 8.640494e+001 1.030652e+002
         vertex 1.405073e+002 8.611955e+001 1.068951e+002
         vertex 1.374701e+002 8.649013e+001 1.012417e+002
      endloop
   endfacet
   facet normal 1.078265e-002 -9.974058e-001 -7.117151e-002
      outer loop
         vertex 1.374701e+002 8.649013e+001 1.012417e+002
         vertex 1.405073e+002 8.611955e+001 1.068951e+002
         vertex 1.363521e+002 8.620474e+001 1.050717e+002
      endloop
   endfacet
   facet normal 1.078265e-002 -9.974058e-001 -7.117151e-002
      outer loop
         vertex 1.374701e+002 8.649013e+001 1.012417e+002
         vertex 1.363521e+002 8.620474e+001 1.050717e+002
         vertex 1.337765e+002 8.656585e+001 9.962088e+001
      endloop
   endfacet
   facet normal 1.078265e-002 -9.974058e-001 -7.117151e-002
      outer loop
         vertex 1.337765e+002 8.656585e+001 9.962088e+001
         vertex 1.363521e+002 8.620474e+001 1.050717e+002
         vertex 1.326584e+002 8.628047e+001 1.034508e+002
      endloop
   endfacet
   facet normal 1.078265e-002 -9.974058e-001 -7.117151e-002
      outer loop
         vertex 1.337765e+002 8.656585e+001 9.962088e+001
         vertex 1.326584e+002 8.628047e+001 1.034508e+002
         vertex 1.296565e+002 8.665033e+001 9.781293e+001
      endloop
   endfacet
   facet normal 1.078265e-002 -9.974058e-001 -7.117151e-002
      outer loop
         vertex 1.296565e+002 8.665033e+001 9.781293e+001
         vertex 1.326584e+002 8.628047e+001 1.034508e+002
         vertex 1.285385e+002 8.636494e+001 1.016429e+002
      endloop
   endfacet
   facet normal -2.795100e-001 -7.134483e-002 9.574884e-001
      outer loop
         vertex 9.812377e+001 8.146615e+001 2.218896e+002
         vertex 9.816691e+001 7.747652e+001 2.216049e+002
         vertex 1.019641e+002 8.142787e+001 2.230078e+002
      endloop
   endfacet
   facet normal -2.795100e-001 -7.134483e-002 9.574884e-001
      outer loop
         vertex 1.019641e+002 8.142787e+001 2.230078e+002
         vertex 9.816691e+001 7.747652e+001 2.216049e+002
         vertex 1.020072e+002 7.743825e+001 2.227231e+002
      endloop
   endfacet
   facet normal -1.078265e-002 9.974058e-001 7.117151e-002
      outer loop
         vertex 1.296134e+002 9.063995e+001 9.809763e+001
         vertex 1.284953e+002 9.035457e+001 1.019276e+002
         vertex 1.337334e+002 9.055548e+001 9.990556e+001
      endloop
   endfacet
   facet normal -1.078265e-002 9.974058e-001 7.117151e-002
      outer loop
         vertex 1.337334e+002 9.055548e+001 9.990556e+001
         vertex 1.284953e+002 9.035457e+001 1.019276e+002
         vertex 1.326153e+002 9.027010e+001 1.037355e+002
      endloop
   endfacet
   facet normal -1.078265e-002 9.974058e-001 7.117151e-002
      outer loop
         vertex 1.404642e+002 9.010918e+001 1.071798e+002
         vertex 1.415822e+002 9.039455e+001 1.033499e+002
         vertex 1.363089e+002 9.019437e+001 1.053564e+002
      endloop
   endfacet
   facet normal -1.078265e-002 9.974058e-001 7.117151e-002
      outer loop
         vertex 1.363089e+002 9.019437e+001 1.053564e+002
         vertex 1.415822e+002 9.039455e+001 1.033499e+002
         vertex 1.374269e+002 9.047975e+001 1.015264e+002
      endloop
   endfacet
   facet normal -1.078265e-002 9.974058e-001 7.117151e-002
      outer loop
         vertex 1.377414e+002 9.056001e+001 1.004493e+002
         vertex 1.339011e+002 9.059828e+001 9.933107e+001
         vertex 1.374269e+002 9.047975e+001 1.015264e+002
      endloop
   endfacet
   facet normal -1.078265e-002 9.974058e-001 7.117151e-002
      outer loop
         vertex 1.374269e+002 9.047975e+001 1.015264e+002
         vertex 1.339011e+002 9.059828e+001 9.933107e+001
         vertex 1.337334e+002 9.055548e+001 9.990556e+001
      endloop
   endfacet
   facet normal -1.078265e-002 9.974058e-001 7.117151e-002
      outer loop
         vertex 1.374269e+002 9.047975e+001 1.015264e+002
         vertex 1.337334e+002 9.055548e+001 9.990556e+001
         vertex 1.363089e+002 9.019437e+001 1.053564e+002
      endloop
   endfacet
   facet normal -1.078265e-002 9.974058e-001 7.117151e-002
      outer loop
         vertex 1.363089e+002 9.019437e+001 1.053564e+002
         vertex 1.337334e+002 9.055548e+001 9.990556e+001
         vertex 1.326153e+002 9.027010e+001 1.037355e+002
      endloop
   endfacet
   facet normal -1.078265e-002 9.974058e-001 7.117151e-002
      outer loop
         vertex 1.363089e+002 9.019437e+001 1.053564e+002
         vertex 1.326153e+002 9.027010e+001 1.037355e+002
         vertex 1.019641e+002 8.142787e+001 2.230078e+002
      endloop
   endfacet
   facet normal -1.078265e-002 9.974058e-001 7.117151e-002
      outer loop
         vertex 1.019641e+002 8.142787e+001 2.230078e+002
         vertex 1.326153e+002 9.027010e+001 1.037355e+002
         vertex 9.812377e+001 8.146615e+001 2.218896e+002
      endloop
   endfacet
   facet normal 9.600822e-001 -9.568886e-003 2.795542e-001
      outer loop
         vertex 1.413496e+002 8.814383e+001 1.040717e+002
         vertex 1.416254e+002 8.640494e+001 1.030652e+002
         vertex 1.413523e+002 8.833553e+001 1.040693e+002
      endloop
   endfacet
   facet normal 9.600822e-001 -9.568886e-003 2.795542e-001
      outer loop
         vertex 1.413523e+002 8.833553e+001 1.040693e+002
         vertex 1.416254e+002 8.640494e+001 1.030652e+002
         vertex 1.415822e+002 9.039455e+001 1.033499e+002
      endloop
   endfacet
   facet normal 9.600822e-001 -9.568886e-003 2.795542e-001
      outer loop
         vertex 1.413523e+002 8.833553e+001 1.040693e+002
         vertex 1.415822e+002 9.039455e+001 1.033499e+002
         vertex 1.413455e+002 8.852486e+001 1.040988e+002
      endloop
   endfacet
   facet normal 9.600822e-001 -9.568886e-003 2.795542e-001
      outer loop
         vertex 1.407399e+002 8.837029e+001 1.061733e+002
         vertex 1.407518e+002 8.855856e+001 1.061390e+002
         vertex 1.404642e+002 9.010918e+001 1.071798e+002
      endloop
   endfacet
   facet normal 9.600822e-001 -9.568886e-003 2.795542e-001
      outer loop
         vertex 1.404642e+002 9.010918e+001 1.071798e+002
         vertex 1.407518e+002 8.855856e+001 1.061390e+002
         vertex 1.407726e+002 8.873766e+001 1.060738e+002
      endloop
   endfacet
   facet normal 9.600822e-001 -9.568886e-003 2.795542e-001
      outer loop
         vertex 1.404642e+002 9.010918e+001 1.071798e+002
         vertex 1.407726e+002 8.873766e+001 1.060738e+002
         vertex 1.408017e+002 8.890217e+001 1.059796e+002
      endloop
   endfacet
   facet normal 9.600822e-001 -9.568886e-003 2.795542e-001
      outer loop
         vertex 1.405073e+002 8.611955e+001 1.068951e+002
         vertex 1.408169e+002 8.749171e+001 1.058790e+002
         vertex 1.407845e+002 8.764052e+001 1.059955e+002
      endloop
   endfacet
   facet normal 9.600822e-001 -9.568886e-003 2.795542e-001
      outer loop
         vertex 1.412727e+002 8.902241e+001 1.043660e+002
         vertex 1.413051e+002 8.887360e+001 1.042495e+002
         vertex 1.415822e+002 9.039455e+001 1.033499e+002
      endloop
   endfacet
   facet normal 9.600822e-001 -9.568886e-003 2.795542e-001
      outer loop
         vertex 1.415822e+002 9.039455e+001 1.033499e+002
         vertex 1.413051e+002 8.887360e+001 1.042495e+002
         vertex 1.413297e+002 8.870605e+001 1.041595e+002
      endloop
   endfacet
   facet normal 9.600822e-001 -9.568886e-003 2.795542e-001
      outer loop
         vertex 1.415822e+002 9.039455e+001 1.033499e+002
         vertex 1.413297e+002 8.870605e+001 1.041595e+002
         vertex 1.413455e+002 8.852486e+001 1.040988e+002
      endloop
   endfacet
   facet normal 9.600822e-001 -9.568886e-003 2.795542e-001
      outer loop
         vertex 1.413496e+002 8.814383e+001 1.040717e+002
         vertex 1.413378e+002 8.795556e+001 1.041060e+002
         vertex 1.416254e+002 8.640494e+001 1.030652e+002
      endloop
   endfacet
   facet normal 9.600822e-001 -9.568886e-003 2.795542e-001
      outer loop
         vertex 1.416254e+002 8.640494e+001 1.030652e+002
         vertex 1.413378e+002 8.795556e+001 1.041060e+002
         vertex 1.413170e+002 8.777644e+001 1.041712e+002
      endloop
   endfacet
   facet normal 9.600822e-001 -9.568886e-003 2.795542e-001
      outer loop
         vertex 1.416254e+002 8.640494e+001 1.030652e+002
         vertex 1.413170e+002 8.777644e+001 1.041712e+002
         vertex 1.412879e+002 8.761195e+001 1.042653e+002
      endloop
   endfacet
   facet normal 9.600822e-001 -9.568886e-003 2.795542e-001
      outer loop
         vertex 1.407845e+002 8.764052e+001 1.059955e+002
         vertex 1.407599e+002 8.780807e+001 1.060854e+002
         vertex 1.405073e+002 8.611955e+001 1.068951e+002
      endloop
   endfacet
   facet normal 9.600822e-001 -9.568886e-003 2.795542e-001
      outer loop
         vertex 1.405073e+002 8.611955e+001 1.068951e+002
         vertex 1.407599e+002 8.780807e+001 1.060854e+002
         vertex 1.407441e+002 8.798925e+001 1.061461e+002
      endloop
   endfacet
   facet normal 9.600822e-001 -9.568886e-003 2.795542e-001
      outer loop
         vertex 1.405073e+002 8.611955e+001 1.068951e+002
         vertex 1.407441e+002 8.798925e+001 1.061461e+002
         vertex 1.404642e+002 9.010918e+001 1.071798e+002
      endloop
   endfacet
   facet normal 9.600822e-001 -9.568886e-003 2.795542e-001
      outer loop
         vertex 1.404642e+002 9.010918e+001 1.071798e+002
         vertex 1.407441e+002 8.798925e+001 1.061461e+002
         vertex 1.407373e+002 8.817857e+001 1.061757e+002
      endloop
   endfacet
   facet normal 9.600822e-001 -9.568886e-003 2.795542e-001
      outer loop
         vertex 1.404642e+002 9.010918e+001 1.071798e+002
         vertex 1.407373e+002 8.817857e+001 1.061757e+002
         vertex 1.407399e+002 8.837029e+001 1.061733e+002
      endloop
   endfacet
   facet normal 9.600822e-001 -9.568886e-003 2.795542e-001
      outer loop
         vertex 1.409508e+002 8.719923e+001 1.054092e+002
         vertex 1.409013e+002 8.726766e+001 1.055813e+002
         vertex 1.405073e+002 8.611955e+001 1.068951e+002
      endloop
   endfacet
   facet normal 9.600822e-001 -9.568886e-003 2.795542e-001
      outer loop
         vertex 1.405073e+002 8.611955e+001 1.068951e+002
         vertex 1.409013e+002 8.726766e+001 1.055813e+002
         vertex 1.408562e+002 8.736615e+001 1.057395e+002
      endloop
   endfacet
   facet normal 9.600822e-001 -9.568886e-003 2.795542e-001
      outer loop
         vertex 1.405073e+002 8.611955e+001 1.068951e+002
         vertex 1.408562e+002 8.736615e+001 1.057395e+002
         vertex 1.408169e+002 8.749171e+001 1.058790e+002
      endloop
   endfacet
   facet normal 9.600822e-001 -9.568886e-003 2.795542e-001
      outer loop
         vertex 1.408017e+002 8.890217e+001 1.059796e+002
         vertex 1.408381e+002 8.904707e+001 1.058595e+002
         vertex 1.404642e+002 9.010918e+001 1.071798e+002
      endloop
   endfacet
   facet normal 9.600822e-001 -9.568886e-003 2.795542e-001
      outer loop
         vertex 1.404642e+002 9.010918e+001 1.071798e+002
         vertex 1.408381e+002 8.904707e+001 1.058595e+002
         vertex 1.408808e+002 8.916798e+001 1.057169e+002
      endloop
   endfacet
   facet normal 9.600822e-001 -9.568886e-003 2.795542e-001
      outer loop
         vertex 1.404642e+002 9.010918e+001 1.071798e+002
         vertex 1.408808e+002 8.916798e+001 1.057169e+002
         vertex 1.409285e+002 8.926120e+001 1.055563e+002
      endloop
   endfacet
   facet normal 9.600822e-001 -9.568886e-003 2.795542e-001
      outer loop
         vertex 1.409285e+002 8.926120e+001 1.055563e+002
         vertex 1.409797e+002 8.932391e+001 1.053825e+002
         vertex 1.404642e+002 9.010918e+001 1.071798e+002
      endloop
   endfacet
   facet normal 9.600822e-001 -9.568886e-003 2.795542e-001
      outer loop
         vertex 1.404642e+002 9.010918e+001 1.071798e+002
         vertex 1.409797e+002 8.932391e+001 1.053825e+002
         vertex 1.410329e+002 8.935420e+001 1.052008e+002
      endloop
   endfacet
   facet normal 9.600822e-001 -9.568886e-003 2.795542e-001
      outer loop
         vertex 1.404642e+002 9.010918e+001 1.071798e+002
         vertex 1.410329e+002 8.935420e+001 1.052008e+002
         vertex 1.415822e+002 9.039455e+001 1.033499e+002
      endloop
   endfacet
   facet normal 9.600822e-001 -9.568886e-003 2.795542e-001
      outer loop
         vertex 1.415822e+002 9.039455e+001 1.033499e+002
         vertex 1.410329e+002 8.935420e+001 1.052008e+002
         vertex 1.410865e+002 8.935117e+001 1.050167e+002
      endloop
   endfacet
   facet normal 9.600822e-001 -9.568886e-003 2.795542e-001
      outer loop
         vertex 1.415822e+002 9.039455e+001 1.033499e+002
         vertex 1.410865e+002 8.935117e+001 1.050167e+002
         vertex 1.411388e+002 8.931488e+001 1.048358e+002
      endloop
   endfacet
   facet normal 9.600822e-001 -9.568886e-003 2.795542e-001
      outer loop
         vertex 1.412879e+002 8.761195e+001 1.042653e+002
         vertex 1.412515e+002 8.746703e+001 1.043855e+002
         vertex 1.416254e+002 8.640494e+001 1.030652e+002
      endloop
   endfacet
   facet normal 9.600822e-001 -9.568886e-003 2.795542e-001
      outer loop
         vertex 1.416254e+002 8.640494e+001 1.030652e+002
         vertex 1.412515e+002 8.746703e+001 1.043855e+002
         vertex 1.412088e+002 8.734614e+001 1.045281e+002
      endloop
   endfacet
   facet normal 9.600822e-001 -9.568886e-003 2.795542e-001
      outer loop
         vertex 1.416254e+002 8.640494e+001 1.030652e+002
         vertex 1.412088e+002 8.734614e+001 1.045281e+002
         vertex 1.411611e+002 8.725291e+001 1.046887e+002
      endloop
   endfacet
   facet normal 9.600822e-001 -9.568886e-003 2.795542e-001
      outer loop
         vertex 1.411388e+002 8.931488e+001 1.048358e+002
         vertex 1.411883e+002 8.924645e+001 1.046637e+002
         vertex 1.415822e+002 9.039455e+001 1.033499e+002
      endloop
   endfacet
   facet normal 9.600822e-001 -9.568886e-003 2.795542e-001
      outer loop
         vertex 1.415822e+002 9.039455e+001 1.033499e+002
         vertex 1.411883e+002 8.924645e+001 1.046637e+002
         vertex 1.412333e+002 8.914796e+001 1.045055e+002
      endloop
   endfacet
   facet normal 9.600822e-001 -9.568886e-003 2.795542e-001
      outer loop
         vertex 1.415822e+002 9.039455e+001 1.033499e+002
         vertex 1.412333e+002 8.914796e+001 1.045055e+002
         vertex 1.412727e+002 8.902241e+001 1.043660e+002
      endloop
   endfacet
   facet normal 9.600822e-001 -9.568886e-003 2.795542e-001
      outer loop
         vertex 1.411611e+002 8.725291e+001 1.046887e+002
         vertex 1.411099e+002 8.719020e+001 1.048625e+002
         vertex 1.416254e+002 8.640494e+001 1.030652e+002
      endloop
   endfacet
   facet normal 9.600822e-001 -9.568886e-003 2.795542e-001
      outer loop
         vertex 1.416254e+002 8.640494e+001 1.030652e+002
         vertex 1.411099e+002 8.719020e+001 1.048625e+002
         vertex 1.410567e+002 8.715991e+001 1.050442e+002
      endloop
   endfacet
   facet normal 9.600822e-001 -9.568886e-003 2.795542e-001
      outer loop
         vertex 1.416254e+002 8.640494e+001 1.030652e+002
         vertex 1.410567e+002 8.715991e+001 1.050442e+002
         vertex 1.405073e+002 8.611955e+001 1.068951e+002
      endloop
   endfacet
   facet normal 9.600822e-001 -9.568886e-003 2.795542e-001
      outer loop
         vertex 1.405073e+002 8.611955e+001 1.068951e+002
         vertex 1.410567e+002 8.715991e+001 1.050442e+002
         vertex 1.410031e+002 8.716295e+001 1.052283e+002
      endloop
   endfacet
   facet normal 9.600822e-001 -9.568886e-003 2.795542e-001
      outer loop
         vertex 1.405073e+002 8.611955e+001 1.068951e+002
         vertex 1.410031e+002 8.716295e+001 1.052283e+002
         vertex 1.409508e+002 8.719923e+001 1.054092e+002
      endloop
   endfacet
   facet normal -4.020597e-001 -6.949317e-002 9.129725e-001
      outer loop
         vertex 1.363521e+002 8.620474e+001 1.050717e+002
         vertex 1.405073e+002 8.611955e+001 1.068951e+002
         vertex 1.363089e+002 9.019437e+001 1.053564e+002
      endloop
   endfacet
   facet normal -4.020597e-001 -6.949317e-002 9.129725e-001
      outer loop
         vertex 1.363089e+002 9.019437e+001 1.053564e+002
         vertex 1.405073e+002 8.611955e+001 1.068951e+002
         vertex 1.404642e+002 9.010918e+001 1.071798e+002
      endloop
   endfacet
   facet normal 4.020597e-001 6.949317e-002 -9.129725e-001
      outer loop
         vertex 1.374269e+002 9.047975e+001 1.015264e+002
         vertex 1.415822e+002 9.039455e+001 1.033499e+002
         vertex 1.374701e+002 8.649013e+001 1.012417e+002
      endloop
   endfacet
   facet normal 4.020597e-001 6.949317e-002 -9.129725e-001
      outer loop
         vertex 1.374701e+002 8.649013e+001 1.012417e+002
         vertex 1.415822e+002 9.039455e+001 1.033499e+002
         vertex 1.416254e+002 8.640494e+001 1.030652e+002
      endloop
   endfacet
   facet normal 4.020597e-001 6.949317e-002 -9.129725e-001
      outer loop
         vertex 1.296565e+002 8.665033e+001 9.781293e+001
         vertex 1.296134e+002 9.063995e+001 9.809763e+001
         vertex 1.337765e+002 8.656585e+001 9.962088e+001
      endloop
   endfacet
   facet normal 4.020597e-001 6.949317e-002 -9.129725e-001
      outer loop
         vertex 1.337765e+002 8.656585e+001 9.962088e+001
         vertex 1.296134e+002 9.063995e+001 9.809763e+001
         vertex 1.337334e+002 9.055548e+001 9.990556e+001
      endloop
   endfacet
   facet normal -4.020597e-001 -6.949317e-002 9.129725e-001
      outer loop
         vertex 1.284953e+002 9.035457e+001 1.019276e+002
         vertex 1.285385e+002 8.636494e+001 1.016429e+002
         vertex 1.326153e+002 9.027010e+001 1.037355e+002
      endloop
   endfacet
   facet normal -4.020597e-001 -6.949317e-002 9.129725e-001
      outer loop
         vertex 1.326153e+002 9.027010e+001 1.037355e+002
         vertex 1.285385e+002 8.636494e+001 1.016429e+002
         vertex 1.326584e+002 8.628047e+001 1.034508e+002
      endloop
   endfacet
   facet normal -9.600822e-001 9.568886e-003 -2.795542e-001
      outer loop
         vertex 1.287711e+002 8.861568e+001 1.009211e+002
         vertex 1.287685e+002 8.842397e+001 1.009235e+002
         vertex 1.284953e+002 9.035457e+001 1.019276e+002
      endloop
   endfacet
   facet normal -9.600822e-001 9.568886e-003 -2.795542e-001
      outer loop
         vertex 1.284953e+002 9.035457e+001 1.019276e+002
         vertex 1.287685e+002 8.842397e+001 1.009235e+002
         vertex 1.285385e+002 8.636494e+001 1.016429e+002
      endloop
   endfacet
   facet normal -9.600822e-001 9.568886e-003 -2.795542e-001
      outer loop
         vertex 1.287685e+002 8.842397e+001 1.009235e+002
         vertex 1.287752e+002 8.823464e+001 1.008939e+002
         vertex 1.285385e+002 8.636494e+001 1.016429e+002
      endloop
   endfacet
   facet normal -9.600822e-001 9.568886e-003 -2.795542e-001
      outer loop
         vertex 1.285385e+002 8.636494e+001 1.016429e+002
         vertex 1.287752e+002 8.823464e+001 1.008939e+002
         vertex 1.287911e+002 8.805346e+001 1.008332e+002
      endloop
   endfacet
   facet normal -9.600822e-001 9.568886e-003 -2.795542e-001
      outer loop
         vertex 1.285385e+002 8.636494e+001 1.016429e+002
         vertex 1.287911e+002 8.805346e+001 1.008332e+002
         vertex 1.288156e+002 8.788591e+001 1.007432e+002
      endloop
   endfacet
   facet normal -9.600822e-001 9.568886e-003 -2.795542e-001
      outer loop
         vertex 1.296565e+002 8.665033e+001 9.781293e+001
         vertex 1.293191e+002 8.785734e+001 9.901311e+001
         vertex 1.293481e+002 8.802184e+001 9.891898e+001
      endloop
   endfacet
   facet normal -9.600822e-001 9.568886e-003 -2.795542e-001
      outer loop
         vertex 1.291410e+002 8.743559e+001 9.961026e+001
         vertex 1.291922e+002 8.749831e+001 9.943646e+001
         vertex 1.296565e+002 8.665033e+001 9.781293e+001
      endloop
   endfacet
   facet normal -9.600822e-001 9.568886e-003 -2.795542e-001
      outer loop
         vertex 1.293766e+002 8.877025e+001 9.884661e+001
         vertex 1.293608e+002 8.895144e+001 9.890731e+001
         vertex 1.296134e+002 9.063995e+001 9.809763e+001
      endloop
   endfacet
   facet normal -9.600822e-001 9.568886e-003 -2.795542e-001
      outer loop
         vertex 1.296134e+002 9.063995e+001 9.809763e+001
         vertex 1.293608e+002 8.895144e+001 9.890731e+001
         vertex 1.293363e+002 8.911899e+001 9.899727e+001
      endloop
   endfacet
   facet normal -9.600822e-001 9.568886e-003 -2.795542e-001
      outer loop
         vertex 1.296134e+002 9.063995e+001 9.809763e+001
         vertex 1.293363e+002 8.911899e+001 9.899727e+001
         vertex 1.293038e+002 8.926780e+001 9.911375e+001
      endloop
   endfacet
   facet normal -9.600822e-001 9.568886e-003 -2.795542e-001
      outer loop
         vertex 1.288156e+002 8.788591e+001 1.007432e+002
         vertex 1.288480e+002 8.773710e+001 1.006268e+002
         vertex 1.285385e+002 8.636494e+001 1.016429e+002
      endloop
   endfacet
   facet normal -9.600822e-001 9.568886e-003 -2.795542e-001
      outer loop
         vertex 1.285385e+002 8.636494e+001 1.016429e+002
         vertex 1.288480e+002 8.773710e+001 1.006268e+002
         vertex 1.288874e+002 8.761154e+001 1.004873e+002
      endloop
   endfacet
   facet normal -9.600822e-001 9.568886e-003 -2.795542e-001
      outer loop
         vertex 1.285385e+002 8.636494e+001 1.016429e+002
         vertex 1.288874e+002 8.761154e+001 1.004873e+002
         vertex 1.289325e+002 8.751305e+001 1.003291e+002
      endloop
   endfacet
   facet normal -9.600822e-001 9.568886e-003 -2.795542e-001
      outer loop
         vertex 1.293481e+002 8.802184e+001 9.891898e+001
         vertex 1.293689e+002 8.820095e+001 9.885376e+001
         vertex 1.296565e+002 8.665033e+001 9.781293e+001
      endloop
   endfacet
   facet normal -9.600822e-001 9.568886e-003 -2.795542e-001
      outer loop
         vertex 1.296565e+002 8.665033e+001 9.781293e+001
         vertex 1.293689e+002 8.820095e+001 9.885376e+001
         vertex 1.293808e+002 8.838922e+001 9.881942e+001
      endloop
   endfacet
   facet normal -9.600822e-001 9.568886e-003 -2.795542e-001
      outer loop
         vertex 1.296565e+002 8.665033e+001 9.781293e+001
         vertex 1.293808e+002 8.838922e+001 9.881942e+001
         vertex 1.296134e+002 9.063995e+001 9.809763e+001
      endloop
   endfacet
   facet normal -9.600822e-001 9.568886e-003 -2.795542e-001
      outer loop
         vertex 1.296134e+002 9.063995e+001 9.809763e+001
         vertex 1.293808e+002 8.838922e+001 9.881942e+001
         vertex 1.293834e+002 8.858092e+001 9.881702e+001
      endloop
   endfacet
   facet normal -9.600822e-001 9.568886e-003 -2.795542e-001
      outer loop
         vertex 1.296134e+002 9.063995e+001 9.809763e+001
         vertex 1.293834e+002 8.858092e+001 9.881702e+001
         vertex 1.293766e+002 8.877025e+001 9.884661e+001
      endloop
   endfacet
   facet normal -9.600822e-001 9.568886e-003 -2.795542e-001
      outer loop
         vertex 1.288328e+002 8.914756e+001 1.007274e+002
         vertex 1.288037e+002 8.898306e+001 1.008215e+002
         vertex 1.284953e+002 9.035457e+001 1.019276e+002
      endloop
   endfacet
   facet normal -9.600822e-001 9.568886e-003 -2.795542e-001
      outer loop
         vertex 1.284953e+002 9.035457e+001 1.019276e+002
         vertex 1.288037e+002 8.898306e+001 1.008215e+002
         vertex 1.287829e+002 8.880395e+001 1.008867e+002
      endloop
   endfacet
   facet normal -9.600822e-001 9.568886e-003 -2.795542e-001
      outer loop
         vertex 1.284953e+002 9.035457e+001 1.019276e+002
         vertex 1.287829e+002 8.880395e+001 1.008867e+002
         vertex 1.287711e+002 8.861568e+001 1.009211e+002
      endloop
   endfacet
   facet normal -9.600822e-001 9.568886e-003 -2.795542e-001
      outer loop
         vertex 1.291922e+002 8.749831e+001 9.943646e+001
         vertex 1.292399e+002 8.759153e+001 9.927583e+001
         vertex 1.296565e+002 8.665033e+001 9.781293e+001
      endloop
   endfacet
   facet normal -9.600822e-001 9.568886e-003 -2.795542e-001
      outer loop
         vertex 1.296565e+002 8.665033e+001 9.781293e+001
         vertex 1.292399e+002 8.759153e+001 9.927583e+001
         vertex 1.292826e+002 8.771243e+001 9.913328e+001
      endloop
   endfacet
   facet normal -9.600822e-001 9.568886e-003 -2.795542e-001
      outer loop
         vertex 1.296565e+002 8.665033e+001 9.781293e+001
         vertex 1.292826e+002 8.771243e+001 9.913328e+001
         vertex 1.293191e+002 8.785734e+001 9.901311e+001
      endloop
   endfacet
   facet normal -9.600822e-001 9.568886e-003 -2.795542e-001
      outer loop
         vertex 1.289325e+002 8.751305e+001 1.003291e+002
         vertex 1.289819e+002 8.744463e+001 1.001569e+002
         vertex 1.285385e+002 8.636494e+001 1.016429e+002
      endloop
   endfacet
   facet normal -9.600822e-001 9.568886e-003 -2.795542e-001
      outer loop
         vertex 1.285385e+002 8.636494e+001 1.016429e+002
         vertex 1.289819e+002 8.744463e+001 1.001569e+002
         vertex 1.290342e+002 8.740834e+001 9.997605e+001
      endloop
   endfacet
   facet normal -9.600822e-001 9.568886e-003 -2.795542e-001
      outer loop
         vertex 1.285385e+002 8.636494e+001 1.016429e+002
         vertex 1.290342e+002 8.740834e+001 9.997605e+001
         vertex 1.296565e+002 8.665033e+001 9.781293e+001
      endloop
   endfacet
   facet normal -9.600822e-001 9.568886e-003 -2.795542e-001
      outer loop
         vertex 1.296565e+002 8.665033e+001 9.781293e+001
         vertex 1.290342e+002 8.740834e+001 9.997605e+001
         vertex 1.290878e+002 8.740530e+001 9.979196e+001
      endloop
   endfacet
   facet normal -9.600822e-001 9.568886e-003 -2.795542e-001
      outer loop
         vertex 1.296565e+002 8.665033e+001 9.781293e+001
         vertex 1.290878e+002 8.740530e+001 9.979196e+001
         vertex 1.291410e+002 8.743559e+001 9.961026e+001
      endloop
   endfacet
   facet normal -9.600822e-001 9.568886e-003 -2.795542e-001
      outer loop
         vertex 1.293038e+002 8.926780e+001 9.911375e+001
         vertex 1.292645e+002 8.939336e+001 9.925322e+001
         vertex 1.296134e+002 9.063995e+001 9.809763e+001
      endloop
   endfacet
   facet normal -9.600822e-001 9.568886e-003 -2.795542e-001
      outer loop
         vertex 1.296134e+002 9.063995e+001 9.809763e+001
         vertex 1.292645e+002 8.939336e+001 9.925322e+001
         vertex 1.292194e+002 8.949184e+001 9.941144e+001
      endloop
   endfacet
   facet normal -9.600822e-001 9.568886e-003 -2.795542e-001
      outer loop
         vertex 1.296134e+002 9.063995e+001 9.809763e+001
         vertex 1.292194e+002 8.949184e+001 9.941144e+001
         vertex 1.291699e+002 8.956027e+001 9.958360e+001
      endloop
   endfacet
   facet normal -9.600822e-001 9.568886e-003 -2.795542e-001
      outer loop
         vertex 1.291699e+002 8.956027e+001 9.958360e+001
         vertex 1.291176e+002 8.959656e+001 9.976446e+001
         vertex 1.296134e+002 9.063995e+001 9.809763e+001
      endloop
   endfacet
   facet normal -9.600822e-001 9.568886e-003 -2.795542e-001
      outer loop
         vertex 1.296134e+002 9.063995e+001 9.809763e+001
         vertex 1.291176e+002 8.959656e+001 9.976446e+001
         vertex 1.290641e+002 8.959959e+001 9.994854e+001
      endloop
   endfacet
   facet normal -9.600822e-001 9.568886e-003 -2.795542e-001
      outer loop
         vertex 1.296134e+002 9.063995e+001 9.809763e+001
         vertex 1.290641e+002 8.959959e+001 9.994854e+001
         vertex 1.284953e+002 9.035457e+001 1.019276e+002
      endloop
   endfacet
   facet normal -9.600822e-001 9.568886e-003 -2.795542e-001
      outer loop
         vertex 1.284953e+002 9.035457e+001 1.019276e+002
         vertex 1.290641e+002 8.959959e+001 9.994854e+001
         vertex 1.290108e+002 8.956930e+001 1.001302e+002
      endloop
   endfacet
   facet normal -9.600822e-001 9.568886e-003 -2.795542e-001
      outer loop
         vertex 1.284953e+002 9.035457e+001 1.019276e+002
         vertex 1.290108e+002 8.956930e+001 1.001302e+002
         vertex 1.289596e+002 8.950659e+001 1.003040e+002
      endloop
   endfacet
   facet normal -9.600822e-001 9.568886e-003 -2.795542e-001
      outer loop
         vertex 1.289596e+002 8.950659e+001 1.003040e+002
         vertex 1.289119e+002 8.941336e+001 1.004647e+002
         vertex 1.284953e+002 9.035457e+001 1.019276e+002
      endloop
   endfacet
   facet normal -9.600822e-001 9.568886e-003 -2.795542e-001
      outer loop
         vertex 1.284953e+002 9.035457e+001 1.019276e+002
         vertex 1.289119e+002 8.941336e+001 1.004647e+002
         vertex 1.288692e+002 8.929247e+001 1.006072e+002
      endloop
   endfacet
   facet normal -9.600822e-001 9.568886e-003 -2.795542e-001
      outer loop
         vertex 1.284953e+002 9.035457e+001 1.019276e+002
         vertex 1.288692e+002 8.929247e+001 1.006072e+002
         vertex 1.288328e+002 8.914756e+001 1.007274e+002
      endloop
   endfacet
   facet normal 4.007712e-001 1.268252e-001 -9.073576e-001
      outer loop
         vertex 1.407441e+002 8.798925e+001 1.061461e+002
         vertex 1.287685e+002 8.842397e+001 1.009235e+002
         vertex 1.407373e+002 8.817857e+001 1.061757e+002
      endloop
   endfacet
   facet normal 4.020133e-001 1.193040e-002 -9.155561e-001
      outer loop
         vertex 1.407373e+002 8.817857e+001 1.061757e+002
         vertex 1.287685e+002 8.842397e+001 1.009235e+002
         vertex 1.287711e+002 8.861568e+001 1.009211e+002
      endloop
   endfacet
   facet normal 4.006253e-001 -4.586426e-002 -9.150934e-001
      outer loop
         vertex 1.407373e+002 8.817857e+001 1.061757e+002
         vertex 1.287711e+002 8.861568e+001 1.009211e+002
         vertex 1.407399e+002 8.837029e+001 1.061733e+002
      endloop
   endfacet
   facet normal 3.938680e-001 -1.604779e-001 -9.050496e-001
      outer loop
         vertex 1.407399e+002 8.837029e+001 1.061733e+002
         vertex 1.287711e+002 8.861568e+001 1.009211e+002
         vertex 1.287829e+002 8.880395e+001 1.008867e+002
      endloop
   endfacet
   facet normal 3.884961e-001 -2.172962e-001 -8.954625e-001
      outer loop
         vertex 1.407399e+002 8.837029e+001 1.061733e+002
         vertex 1.287829e+002 8.880395e+001 1.008867e+002
         vertex 1.407518e+002 8.855856e+001 1.061390e+002
      endloop
   endfacet
   facet normal 3.739123e-001 -3.282996e-001 -8.674151e-001
      outer loop
         vertex 1.407518e+002 8.855856e+001 1.061390e+002
         vertex 1.287829e+002 8.880395e+001 1.008867e+002
         vertex 1.288037e+002 8.898306e+001 1.008215e+002
      endloop
   endfacet
   facet normal 3.646957e-001 -3.824812e-001 -8.489435e-001
      outer loop
         vertex 1.407518e+002 8.855856e+001 1.061390e+002
         vertex 1.288037e+002 8.898306e+001 1.008215e+002
         vertex 1.407726e+002 8.873766e+001 1.060738e+002
      endloop
   endfacet
   facet normal 3.426703e-001 -4.865983e-001 -8.036163e-001
      outer loop
         vertex 1.407726e+002 8.873766e+001 1.060738e+002
         vertex 1.288037e+002 8.898306e+001 1.008215e+002
         vertex 1.288328e+002 8.914756e+001 1.007274e+002
      endloop
   endfacet
   facet normal 3.298555e-001 -5.365263e-001 -7.767464e-001
      outer loop
         vertex 1.407726e+002 8.873766e+001 1.060738e+002
         vertex 1.288328e+002 8.914756e+001 1.007274e+002
         vertex 1.408017e+002 8.890217e+001 1.059796e+002
      endloop
   endfacet
   facet normal 3.009888e-001 -6.306075e-001 -7.153600e-001
      outer loop
         vertex 1.408017e+002 8.890217e+001 1.059796e+002
         vertex 1.288328e+002 8.914756e+001 1.007274e+002
         vertex 1.288692e+002 8.929247e+001 1.006072e+002
      endloop
   endfacet
   facet normal 2.849306e-001 -6.747493e-001 -6.808289e-001
      outer loop
         vertex 1.408017e+002 8.890217e+001 1.059796e+002
         vertex 1.288692e+002 8.929247e+001 1.006072e+002
         vertex 1.408381e+002 8.904707e+001 1.058595e+002
      endloop
   endfacet
   facet normal 2.500381e-001 -7.558630e-001 -6.051051e-001
      outer loop
         vertex 1.408381e+002 8.904707e+001 1.058595e+002
         vertex 1.288692e+002 8.929247e+001 1.006072e+002
         vertex 1.289119e+002 8.941336e+001 1.004647e+002
      endloop
   endfacet
   facet normal 2.311985e-001 -7.928205e-001 -5.638998e-001
      outer loop
         vertex 1.408381e+002 8.904707e+001 1.058595e+002
         vertex 1.289119e+002 8.941336e+001 1.004647e+002
         vertex 1.408808e+002 8.916798e+001 1.057169e+002
      endloop
   endfacet
   facet normal 1.913031e-001 -8.583599e-001 -4.760478e-001
      outer loop
         vertex 1.408808e+002 8.916798e+001 1.057169e+002
         vertex 1.289119e+002 8.941336e+001 1.004647e+002
         vertex 1.289596e+002 8.950659e+001 1.003040e+002
      endloop
   endfacet
   facet normal 1.702437e-001 -8.869271e-001 -4.293920e-001
      outer loop
         vertex 1.408808e+002 8.916798e+001 1.057169e+002
         vertex 1.289596e+002 8.950659e+001 1.003040e+002
         vertex 1.409285e+002 8.926120e+001 1.055563e+002
      endloop
   endfacet
   facet normal 1.265550e-001 -9.347275e-001 -3.320667e-001
      outer loop
         vertex 1.409285e+002 8.926120e+001 1.055563e+002
         vertex 1.289596e+002 8.950659e+001 1.003040e+002
         vertex 1.290108e+002 8.956930e+001 1.001302e+002
      endloop
   endfacet
   facet normal 1.039237e-001 -9.539488e-001 -2.813922e-001
      outer loop
         vertex 1.409285e+002 8.926120e+001 1.055563e+002
         vertex 1.290108e+002 8.956930e+001 1.001302e+002
         vertex 1.409797e+002 8.932391e+001 1.053825e+002
      endloop
   endfacet
   facet normal 5.780191e-002 -9.824004e-001 -1.776186e-001
      outer loop
         vertex 1.409797e+002 8.932391e+001 1.053825e+002
         vertex 1.290108e+002 8.956930e+001 1.001302e+002
         vertex 1.290641e+002 8.959959e+001 9.994854e+001
      endloop
   endfacet
   facet normal 3.431088e-002 -9.916239e-001 -1.245178e-001
      outer loop
         vertex 1.409797e+002 8.932391e+001 1.053825e+002
         vertex 1.290641e+002 8.959959e+001 9.994854e+001
         vertex 1.410329e+002 8.935420e+001 1.052008e+002
      endloop
   endfacet
   facet normal -1.278260e-002 -9.997637e-001 -1.758085e-002
      outer loop
         vertex 1.410329e+002 8.935420e+001 1.052008e+002
         vertex 1.290641e+002 8.959959e+001 9.994854e+001
         vertex 1.291176e+002 8.959656e+001 9.976446e+001
      endloop
   endfacet
   facet normal -3.638506e-002 -9.986800e-001 3.625539e-002
      outer loop
         vertex 1.410329e+002 8.935420e+001 1.052008e+002
         vertex 1.291176e+002 8.959656e+001 9.976446e+001
         vertex 1.410865e+002 8.935117e+001 1.050167e+002
      endloop
   endfacet
   facet normal -8.294880e-002 -9.862484e-001 1.429463e-001
      outer loop
         vertex 1.410865e+002 8.935117e+001 1.050167e+002
         vertex 1.291176e+002 8.959656e+001 9.976446e+001
         vertex 1.291699e+002 8.956027e+001 9.958360e+001
      endloop
   endfacet
   facet normal -1.059105e-001 -9.749075e-001 1.958016e-001
      outer loop
         vertex 1.410865e+002 8.935117e+001 1.050167e+002
         vertex 1.291699e+002 8.956027e+001 9.958360e+001
         vertex 1.411388e+002 8.931488e+001 1.048358e+002
      endloop
   endfacet
   facet normal -1.504679e-001 -9.423598e-001 2.988602e-001
      outer loop
         vertex 1.411388e+002 8.931488e+001 1.048358e+002
         vertex 1.291699e+002 8.956027e+001 9.958360e+001
         vertex 1.292194e+002 8.949184e+001 9.941144e+001
      endloop
   endfacet
   facet normal -1.720652e-001 -9.211655e-001 3.490668e-001
      outer loop
         vertex 1.411388e+002 8.931488e+001 1.048358e+002
         vertex 1.292194e+002 8.949184e+001 9.941144e+001
         vertex 1.411883e+002 8.924645e+001 1.046637e+002
      endloop
   endfacet
   facet normal -2.132262e-001 -8.696362e-001 4.452724e-001
      outer loop
         vertex 1.411883e+002 8.924645e+001 1.046637e+002
         vertex 1.292194e+002 8.949184e+001 9.941144e+001
         vertex 1.292645e+002 8.939336e+001 9.925322e+001
      endloop
   endfacet
   facet normal -2.327931e-001 -8.393169e-001 4.912784e-001
      outer loop
         vertex 1.411883e+002 8.924645e+001 1.046637e+002
         vertex 1.292645e+002 8.939336e+001 9.925322e+001
         vertex 1.412333e+002 8.914796e+001 1.045055e+002
      endloop
   endfacet
   facet normal -2.693060e-001 -7.705452e-001 5.776975e-001
      outer loop
         vertex 1.412333e+002 8.914796e+001 1.045055e+002
         vertex 1.292645e+002 8.939336e+001 9.925322e+001
         vertex 1.293038e+002 8.926780e+001 9.911375e+001
      endloop
   endfacet
   facet normal -2.862568e-001 -7.321087e-001 6.181212e-001
      outer loop
         vertex 1.412333e+002 8.914796e+001 1.045055e+002
         vertex 1.293038e+002 8.926780e+001 9.911375e+001
         vertex 1.412727e+002 8.902241e+001 1.043660e+002
      endloop
   endfacet
   facet normal -3.170463e-001 -6.483386e-001 6.921984e-001
      outer loop
         vertex 1.412727e+002 8.902241e+001 1.043660e+002
         vertex 1.293038e+002 8.926780e+001 9.911375e+001
         vertex 1.293363e+002 8.911899e+001 9.899727e+001
      endloop
   endfacet
   facet normal -3.308908e-001 -6.030185e-001 7.258649e-001
      outer loop
         vertex 1.412727e+002 8.902241e+001 1.043660e+002
         vertex 1.293363e+002 8.911899e+001 9.899727e+001
         vertex 1.413051e+002 8.887360e+001 1.042495e+002
      endloop
   endfacet
   facet normal -3.550810e-001 -5.068895e-001 7.854810e-001
      outer loop
         vertex 1.413051e+002 8.887360e+001 1.042495e+002
         vertex 1.293363e+002 8.911899e+001 9.899727e+001
         vertex 1.293608e+002 8.895144e+001 9.890731e+001
      endloop
   endfacet
   facet normal -3.654325e-001 -4.560902e-001 8.114437e-001
      outer loop
         vertex 1.413051e+002 8.887360e+001 1.042495e+002
         vertex 1.293608e+002 8.895144e+001 9.890731e+001
         vertex 1.413297e+002 8.870605e+001 1.041595e+002
      endloop
   endfacet
   facet normal -3.823574e-001 -3.505328e-001 8.549442e-001
      outer loop
         vertex 1.413297e+002 8.870605e+001 1.041595e+002
         vertex 1.293608e+002 8.895144e+001 9.890731e+001
         vertex 1.293766e+002 8.877025e+001 9.884661e+001
      endloop
   endfacet
   facet normal -3.889356e-001 -2.957800e-001 8.724926e-001
      outer loop
         vertex 1.413297e+002 8.870605e+001 1.041595e+002
         vertex 1.293766e+002 8.877025e+001 9.884661e+001
         vertex 1.413455e+002 8.852486e+001 1.040988e+002
      endloop
   endfacet
   facet normal -3.981411e-001 -1.839254e-001 8.986964e-001
      outer loop
         vertex 1.413455e+002 8.852486e+001 1.040988e+002
         vertex 1.293766e+002 8.877025e+001 9.884661e+001
         vertex 1.293834e+002 8.858092e+001 9.881702e+001
      endloop
   endfacet
   facet normal -4.007712e-001 -1.268252e-001 9.073576e-001
      outer loop
         vertex 1.413455e+002 8.852486e+001 1.040988e+002
         vertex 1.293834e+002 8.858092e+001 9.881702e+001
         vertex 1.413523e+002 8.833553e+001 1.040693e+002
      endloop
   endfacet
   facet normal -4.020133e-001 -1.193040e-002 9.155561e-001
      outer loop
         vertex 1.413523e+002 8.833553e+001 1.040693e+002
         vertex 1.293834e+002 8.858092e+001 9.881702e+001
         vertex 1.293808e+002 8.838922e+001 9.881942e+001
      endloop
   endfacet
   facet normal -4.006253e-001 4.586426e-002 9.150934e-001
      outer loop
         vertex 1.413523e+002 8.833553e+001 1.040693e+002
         vertex 1.293808e+002 8.838922e+001 9.881942e+001
         vertex 1.413496e+002 8.814383e+001 1.040717e+002
      endloop
   endfacet
   facet normal -3.938680e-001 1.604779e-001 9.050496e-001
      outer loop
         vertex 1.413496e+002 8.814383e+001 1.040717e+002
         vertex 1.293808e+002 8.838922e+001 9.881942e+001
         vertex 1.293689e+002 8.820095e+001 9.885376e+001
      endloop
   endfacet
   facet normal -3.884961e-001 2.172962e-001 8.954625e-001
      outer loop
         vertex 1.413496e+002 8.814383e+001 1.040717e+002
         vertex 1.293689e+002 8.820095e+001 9.885376e+001
         vertex 1.413378e+002 8.795556e+001 1.041060e+002
      endloop
   endfacet
   facet normal -3.739123e-001 3.282996e-001 8.674151e-001
      outer loop
         vertex 1.413378e+002 8.795556e+001 1.041060e+002
         vertex 1.293689e+002 8.820095e+001 9.885376e+001
         vertex 1.293481e+002 8.802184e+001 9.891898e+001
      endloop
   endfacet
   facet normal -3.646957e-001 3.824812e-001 8.489435e-001
      outer loop
         vertex 1.413378e+002 8.795556e+001 1.041060e+002
         vertex 1.293481e+002 8.802184e+001 9.891898e+001
         vertex 1.413170e+002 8.777644e+001 1.041712e+002
      endloop
   endfacet
   facet normal -3.426703e-001 4.865983e-001 8.036163e-001
      outer loop
         vertex 1.413170e+002 8.777644e+001 1.041712e+002
         vertex 1.293481e+002 8.802184e+001 9.891898e+001
         vertex 1.293191e+002 8.785734e+001 9.901311e+001
      endloop
   endfacet
   facet normal -3.298555e-001 5.365263e-001 7.767464e-001
      outer loop
         vertex 1.413170e+002 8.777644e+001 1.041712e+002
         vertex 1.293191e+002 8.785734e+001 9.901311e+001
         vertex 1.412879e+002 8.761195e+001 1.042653e+002
      endloop
   endfacet
   facet normal -3.009888e-001 6.306075e-001 7.153600e-001
      outer loop
         vertex 1.412879e+002 8.761195e+001 1.042653e+002
         vertex 1.293191e+002 8.785734e+001 9.901311e+001
         vertex 1.292826e+002 8.771243e+001 9.913328e+001
      endloop
   endfacet
   facet normal -2.849306e-001 6.747493e-001 6.808289e-001
      outer loop
         vertex 1.412879e+002 8.761195e+001 1.042653e+002
         vertex 1.292826e+002 8.771243e+001 9.913328e+001
         vertex 1.412515e+002 8.746703e+001 1.043855e+002
      endloop
   endfacet
   facet normal -2.500381e-001 7.558630e-001 6.051051e-001
      outer loop
         vertex 1.412515e+002 8.746703e+001 1.043855e+002
         vertex 1.292826e+002 8.771243e+001 9.913328e+001
         vertex 1.292399e+002 8.759153e+001 9.927583e+001
      endloop
   endfacet
   facet normal -2.311985e-001 7.928205e-001 5.638998e-001
      outer loop
         vertex 1.412515e+002 8.746703e+001 1.043855e+002
         vertex 1.292399e+002 8.759153e+001 9.927583e+001
         vertex 1.412088e+002 8.734614e+001 1.045281e+002
      endloop
   endfacet
   facet normal -1.913031e-001 8.583599e-001 4.760478e-001
      outer loop
         vertex 1.412088e+002 8.734614e+001 1.045281e+002
         vertex 1.292399e+002 8.759153e+001 9.927583e+001
         vertex 1.291922e+002 8.749831e+001 9.943646e+001
      endloop
   endfacet
   facet normal -1.702437e-001 8.869271e-001 4.293920e-001
      outer loop
         vertex 1.412088e+002 8.734614e+001 1.045281e+002
         vertex 1.291922e+002 8.749831e+001 9.943646e+001
         vertex 1.411611e+002 8.725291e+001 1.046887e+002
      endloop
   endfacet
   facet normal -1.265550e-001 9.347275e-001 3.320667e-001
      outer loop
         vertex 1.411611e+002 8.725291e+001 1.046887e+002
         vertex 1.291922e+002 8.749831e+001 9.943646e+001
         vertex 1.291410e+002 8.743559e+001 9.961026e+001
      endloop
   endfacet
   facet normal -1.039237e-001 9.539488e-001 2.813922e-001
      outer loop
         vertex 1.411611e+002 8.725291e+001 1.046887e+002
         vertex 1.291410e+002 8.743559e+001 9.961026e+001
         vertex 1.411099e+002 8.719020e+001 1.048625e+002
      endloop
   endfacet
   facet normal -5.780191e-002 9.824004e-001 1.776186e-001
      outer loop
         vertex 1.411099e+002 8.719020e+001 1.048625e+002
         vertex 1.291410e+002 8.743559e+001 9.961026e+001
         vertex 1.290878e+002 8.740530e+001 9.979196e+001
      endloop
   endfacet
   facet normal -3.431088e-002 9.916239e-001 1.245178e-001
      outer loop
         vertex 1.411099e+002 8.719020e+001 1.048625e+002
         vertex 1.290878e+002 8.740530e+001 9.979196e+001
         vertex 1.410567e+002 8.715991e+001 1.050442e+002
      endloop
   endfacet
   facet normal 1.278260e-002 9.997637e-001 1.758085e-002
      outer loop
         vertex 1.410567e+002 8.715991e+001 1.050442e+002
         vertex 1.290878e+002 8.740530e+001 9.979196e+001
         vertex 1.290342e+002 8.740834e+001 9.997605e+001
      endloop
   endfacet
   facet normal 3.638506e-002 9.986800e-001 -3.625539e-002
      outer loop
         vertex 1.410567e+002 8.715991e+001 1.050442e+002
         vertex 1.290342e+002 8.740834e+001 9.997605e+001
         vertex 1.410031e+002 8.716295e+001 1.052283e+002
      endloop
   endfacet
   facet normal 8.294880e-002 9.862484e-001 -1.429463e-001
      outer loop
         vertex 1.410031e+002 8.716295e+001 1.052283e+002
         vertex 1.290342e+002 8.740834e+001 9.997605e+001
         vertex 1.289819e+002 8.744463e+001 1.001569e+002
      endloop
   endfacet
   facet normal 1.059105e-001 9.749075e-001 -1.958016e-001
      outer loop
         vertex 1.410031e+002 8.716295e+001 1.052283e+002
         vertex 1.289819e+002 8.744463e+001 1.001569e+002
         vertex 1.409508e+002 8.719923e+001 1.054092e+002
      endloop
   endfacet
   facet normal 1.504679e-001 9.423598e-001 -2.988602e-001
      outer loop
         vertex 1.409508e+002 8.719923e+001 1.054092e+002
         vertex 1.289819e+002 8.744463e+001 1.001569e+002
         vertex 1.289325e+002 8.751305e+001 1.003291e+002
      endloop
   endfacet
   facet normal 1.720652e-001 9.211655e-001 -3.490668e-001
      outer loop
         vertex 1.409508e+002 8.719923e+001 1.054092e+002
         vertex 1.289325e+002 8.751305e+001 1.003291e+002
         vertex 1.409013e+002 8.726766e+001 1.055813e+002
      endloop
   endfacet
   facet normal 2.132262e-001 8.696362e-001 -4.452724e-001
      outer loop
         vertex 1.409013e+002 8.726766e+001 1.055813e+002
         vertex 1.289325e+002 8.751305e+001 1.003291e+002
         vertex 1.288874e+002 8.761154e+001 1.004873e+002
      endloop
   endfacet
   facet normal 2.327931e-001 8.393169e-001 -4.912784e-001
      outer loop
         vertex 1.409013e+002 8.726766e+001 1.055813e+002
         vertex 1.288874e+002 8.761154e+001 1.004873e+002
         vertex 1.408562e+002 8.736615e+001 1.057395e+002
      endloop
   endfacet
   facet normal 2.693060e-001 7.705452e-001 -5.776975e-001
      outer loop
         vertex 1.408562e+002 8.736615e+001 1.057395e+002
         vertex 1.288874e+002 8.761154e+001 1.004873e+002
         vertex 1.288480e+002 8.773710e+001 1.006268e+002
      endloop
   endfacet
   facet normal 2.862568e-001 7.321087e-001 -6.181212e-001
      outer loop
         vertex 1.408562e+002 8.736615e+001 1.057395e+002
         vertex 1.288480e+002 8.773710e+001 1.006268e+002
         vertex 1.408169e+002 8.749171e+001 1.058790e+002
      endloop
   endfacet
   facet normal 3.170463e-001 6.483386e-001 -6.921984e-001
      outer loop
         vertex 1.408169e+002 8.749171e+001 1.058790e+002
         vertex 1.288480e+002 8.773710e+001 1.006268e+002
         vertex 1.288156e+002 8.788591e+001 1.007432e+002
      endloop
   endfacet
   facet normal 3.308908e-001 6.030185e-001 -7.258649e-001
      outer loop
         vertex 1.408169e+002 8.749171e+001 1.058790e+002
         vertex 1.288156e+002 8.788591e+001 1.007432e+002
         vertex 1.407845e+002 8.764052e+001 1.059955e+002
      endloop
   endfacet
   facet normal 3.550810e-001 5.068895e-001 -7.854810e-001
      outer loop
         vertex 1.407845e+002 8.764052e+001 1.059955e+002
         vertex 1.288156e+002 8.788591e+001 1.007432e+002
         vertex 1.287911e+002 8.805346e+001 1.008332e+002
      endloop
   endfacet
   facet normal 3.654325e-001 4.560902e-001 -8.114437e-001
      outer loop
         vertex 1.407845e+002 8.764052e+001 1.059955e+002
         vertex 1.287911e+002 8.805346e+001 1.008332e+002
         vertex 1.407599e+002 8.780807e+001 1.060854e+002
      endloop
   endfacet
   facet normal 3.823574e-001 3.505328e-001 -8.549442e-001
      outer loop
         vertex 1.407599e+002 8.780807e+001 1.060854e+002
         vertex 1.287911e+002 8.805346e+001 1.008332e+002
         vertex 1.287752e+002 8.823464e+001 1.008939e+002
      endloop
   endfacet
   facet normal 3.889356e-001 2.957800e-001 -8.724926e-001
      outer loop
         vertex 1.407599e+002 8.780807e+001 1.060854e+002
         vertex 1.287752e+002 8.823464e+001 1.008939e+002
         vertex 1.407441e+002 8.798925e+001 1.061461e+002
      endloop
   endfacet
   facet normal 3.981411e-001 1.839254e-001 -8.986964e-001
      outer loop
         vertex 1.407441e+002 8.798925e+001 1.061461e+002
         vertex 1.287752e+002 8.823464e+001 1.008939e+002
         vertex 1.287685e+002 8.842397e+001 1.009235e+002
      endloop
   endfacet
   facet normal -2.784119e-001 -1.291529e-001 9.517386e-001
      outer loop
         vertex 9.922886e+001 7.974790e+001 2.180356e+002
         vertex 1.030692e+002 7.970963e+001 2.191538e+002
         vertex 9.922197e+001 7.994179e+001 2.180659e+002
      endloop
   endfacet
   facet normal -2.763654e-001 -1.867188e-001 9.427397e-001
      outer loop
         vertex 9.922197e+001 7.994179e+001 2.180659e+002
         vertex 1.030692e+002 7.970963e+001 2.191538e+002
         vertex 1.030623e+002 7.990351e+001 2.191841e+002
      endloop
   endfacet
   facet normal -2.694941e-001 -2.993766e-001 9.152850e-001
      outer loop
         vertex 9.922197e+001 7.994179e+001 2.180659e+002
         vertex 1.030623e+002 7.990351e+001 2.191841e+002
         vertex 9.920572e+001 8.012734e+001 2.181280e+002
      endloop
   endfacet
   facet normal -2.646692e-001 -3.544683e-001 8.968291e-001
      outer loop
         vertex 9.920572e+001 8.012734e+001 2.181280e+002
         vertex 1.030623e+002 7.990351e+001 2.191841e+002
         vertex 1.030460e+002 8.008907e+001 2.192462e+002
      endloop
   endfacet
   facet normal -2.523877e-001 -4.605038e-001 8.510209e-001
      outer loop
         vertex 9.920572e+001 8.012734e+001 2.181280e+002
         vertex 1.030460e+002 8.008907e+001 2.192462e+002
         vertex 9.918060e+001 8.029892e+001 2.182201e+002
      endloop
   endfacet
   facet normal -2.449311e-001 -5.114475e-001 8.236687e-001
      outer loop
         vertex 9.918060e+001 8.029892e+001 2.182201e+002
         vertex 1.030460e+002 8.008907e+001 2.192462e+002
         vertex 1.030209e+002 8.026065e+001 2.193384e+002
      endloop
   endfacet
   facet normal -2.276127e-001 -6.076390e-001 7.608991e-001
      outer loop
         vertex 9.918060e+001 8.029892e+001 2.182201e+002
         vertex 1.030209e+002 8.026065e+001 2.193384e+002
         vertex 9.914738e+001 8.045132e+001 2.183394e+002
      endloop
   endfacet
   facet normal -2.177510e-001 -6.528866e-001 7.254816e-001
      outer loop
         vertex 9.914738e+001 8.045132e+001 2.183394e+002
         vertex 1.030209e+002 8.026065e+001 2.193384e+002
         vertex 1.029877e+002 8.041304e+001 2.194576e+002
      endloop
   endfacet
   facet normal -1.959218e-001 -7.363113e-001 6.476576e-001
      outer loop
         vertex 9.914738e+001 8.045132e+001 2.183394e+002
         vertex 1.029877e+002 8.041304e+001 2.194576e+002
         vertex 9.910708e+001 8.057991e+001 2.184823e+002
      endloop
   endfacet
   facet normal -1.839545e-001 -7.744881e-001 6.052511e-001
      outer loop
         vertex 9.910708e+001 8.057991e+001 2.184823e+002
         vertex 1.029877e+002 8.041304e+001 2.194576e+002
         vertex 1.029474e+002 8.054163e+001 2.196005e+002
      endloop
   endfacet
   facet normal -1.582780e-001 -8.426111e-001 5.147375e-001
      outer loop
         vertex 9.910708e+001 8.057991e+001 2.184823e+002
         vertex 1.029474e+002 8.054163e+001 2.196005e+002
         vertex 9.906091e+001 8.068076e+001 2.186443e+002
      endloop
   endfacet
   facet normal -1.445687e-001 -8.725572e-001 4.666304e-001
      outer loop
         vertex 9.906091e+001 8.068076e+001 2.186443e+002
         vertex 1.029474e+002 8.054163e+001 2.196005e+002
         vertex 1.029012e+002 8.064249e+001 2.197625e+002
      endloop
   endfacet
   facet normal -1.158249e-001 -9.233086e-001 3.661773e-001
      outer loop
         vertex 9.906091e+001 8.068076e+001 2.186443e+002
         vertex 1.029012e+002 8.064249e+001 2.197625e+002
         vertex 9.901027e+001 8.075084e+001 2.188206e+002
      endloop
   endfacet
   facet normal -1.007903e-001 -9.441140e-001 3.138313e-001
      outer loop
         vertex 9.901027e+001 8.075084e+001 2.188206e+002
         vertex 1.029012e+002 8.064249e+001 2.197625e+002
         vertex 1.028506e+002 8.071256e+001 2.199388e+002
      endloop
   endfacet
   facet normal -6.985253e-002 -9.759519e-001 2.064909e-001
      outer loop
         vertex 9.901027e+001 8.075084e+001 2.188206e+002
         vertex 1.028506e+002 8.071256e+001 2.199388e+002
         vertex 9.895670e+001 8.078799e+001 2.190058e+002
      endloop
   endfacet
   facet normal -5.394939e-002 -9.869844e-001 1.514966e-001
      outer loop
         vertex 9.895670e+001 8.078799e+001 2.190058e+002
         vertex 1.028506e+002 8.071256e+001 2.199388e+002
         vertex 1.027970e+002 8.074972e+001 2.201240e+002
      endloop
   endfacet
   facet normal -2.175774e-002 -9.989414e-001 4.053048e-002
      outer loop
         vertex 9.895670e+001 8.078799e+001 2.190058e+002
         vertex 1.027970e+002 8.074972e+001 2.201240e+002
         vertex 9.890185e+001 8.079111e+001 2.191943e+002
      endloop
   endfacet
   facet normal -5.469252e-003 -9.998658e-001 -1.544127e-002
      outer loop
         vertex 9.890185e+001 8.079111e+001 2.191943e+002
         vertex 1.027970e+002 8.074972e+001 2.201240e+002
         vertex 1.027422e+002 8.075284e+001 2.203125e+002
      endloop
   endfacet
   facet normal 2.699815e-002 -9.915785e-001 -1.266615e-001
      outer loop
         vertex 9.890185e+001 8.079111e+001 2.191943e+002
         vertex 1.027422e+002 8.075284e+001 2.203125e+002
         vertex 9.884735e+001 8.076009e+001 2.193804e+002
      endloop
   endfacet
   facet normal 4.317706e-002 -9.823668e-001 -1.819099e-001
      outer loop
         vertex 9.884735e+001 8.076009e+001 2.193804e+002
         vertex 1.027422e+002 8.075284e+001 2.203125e+002
         vertex 1.026877e+002 8.072181e+001 2.204986e+002
      endloop
   endfacet
   facet normal 7.493372e-002 -9.540871e-001 -2.900049e-001
      outer loop
         vertex 9.884735e+001 8.076009e+001 2.193804e+002
         vertex 1.026877e+002 8.072181e+001 2.204986e+002
         vertex 9.879488e+001 8.069586e+001 2.195584e+002
      endloop
   endfacet
   facet normal 9.051146e-002 -9.350191e-001 -3.428513e-001
      outer loop
         vertex 9.879488e+001 8.069586e+001 2.195584e+002
         vertex 1.026877e+002 8.072181e+001 2.204986e+002
         vertex 1.026352e+002 8.065759e+001 2.206766e+002
      endloop
   endfacet
   facet normal 1.205925e-001 -8.876061e-001 -4.445366e-001
      outer loop
         vertex 9.879488e+001 8.069586e+001 2.195584e+002
         vertex 1.026352e+002 8.065759e+001 2.206766e+002
         vertex 9.874604e+001 8.060040e+001 2.197229e+002
      endloop
   endfacet
   facet normal 1.350957e-001 -8.592612e-001 -4.933754e-001
      outer loop
         vertex 9.874604e+001 8.060040e+001 2.197229e+002
         vertex 1.026352e+002 8.065759e+001 2.206766e+002
         vertex 1.025864e+002 8.056212e+001 2.208411e+002
      endloop
   endfacet
   facet normal 1.625871e-001 -7.941557e-001 -5.855613e-001
      outer loop
         vertex 9.874604e+001 8.060040e+001 2.197229e+002
         vertex 1.025864e+002 8.056212e+001 2.208411e+002
         vertex 9.870229e+001 8.047659e+001 2.198689e+002
      endloop
   endfacet
   facet normal 1.755751e-001 -7.573952e-001 -6.289085e-001
      outer loop
         vertex 9.870229e+001 8.047659e+001 2.198689e+002
         vertex 1.025864e+002 8.056212e+001 2.208411e+002
         vertex 1.025426e+002 8.043831e+001 2.209871e+002
      endloop
   endfacet
   facet normal 1.996415e-001 -6.765754e-001 -7.087941e-001
      outer loop
         vertex 9.870229e+001 8.047659e+001 2.198689e+002
         vertex 1.025426e+002 8.043831e+001 2.209871e+002
         vertex 9.866499e+001 8.032819e+001 2.199920e+002
      endloop
   endfacet
   facet normal 2.107198e-001 -6.325161e-001 -7.453325e-001
      outer loop
         vertex 9.866499e+001 8.032819e+001 2.199920e+002
         vertex 1.025426e+002 8.043831e+001 2.209871e+002
         vertex 1.025053e+002 8.028992e+001 2.211102e+002
      endloop
   endfacet
   facet normal 2.306300e-001 -5.384375e-001 -8.104905e-001
      outer loop
         vertex 9.866499e+001 8.032819e+001 2.199920e+002
         vertex 1.025053e+002 8.028992e+001 2.211102e+002
         vertex 9.863523e+001 8.015971e+001 2.200883e+002
      endloop
   endfacet
   facet normal 2.394619e-001 -4.884183e-001 -8.391100e-001
      outer loop
         vertex 9.863523e+001 8.015971e+001 2.200883e+002
         vertex 1.025053e+002 8.028992e+001 2.211102e+002
         vertex 1.024756e+002 8.012144e+001 2.212066e+002
      endloop
   endfacet
   facet normal 2.546109e-001 -3.839396e-001 -8.875605e-001
      outer loop
         vertex 9.863523e+001 8.015971e+001 2.200883e+002
         vertex 1.024756e+002 8.012144e+001 2.212066e+002
         vertex 9.861396e+001 7.997630e+001 2.201551e+002
      endloop
   endfacet
   facet normal 2.609280e-001 -3.294802e-001 -9.073915e-001
      outer loop
         vertex 9.861396e+001 7.997630e+001 2.201551e+002
         vertex 1.024756e+002 8.012144e+001 2.212066e+002
         vertex 1.024543e+002 7.993803e+001 2.212733e+002
      endloop
   endfacet
   facet normal 2.708555e-001 -2.177758e-001 -9.376625e-001
      outer loop
         vertex 9.861396e+001 7.997630e+001 2.201551e+002
         vertex 1.024543e+002 7.993803e+001 2.212733e+002
         vertex 9.860180e+001 7.978349e+001 2.201903e+002
      endloop
   endfacet
   facet normal 2.744660e-001 -1.605310e-001 -9.481024e-001
      outer loop
         vertex 9.860180e+001 7.978349e+001 2.201903e+002
         vertex 1.024543e+002 7.993803e+001 2.212733e+002
         vertex 1.024421e+002 7.974522e+001 2.213085e+002
      endloop
   endfacet
   facet normal 2.788704e-001 -4.499506e-002 -9.592741e-001
      outer loop
         vertex 9.860180e+001 7.978349e+001 2.201903e+002
         vertex 1.024421e+002 7.974522e+001 2.213085e+002
         vertex 9.859912e+001 7.958716e+001 2.201928e+002
      endloop
   endfacet
   facet normal 2.796644e-001 1.329593e-002 -9.600058e-001
      outer loop
         vertex 9.859912e+001 7.958716e+001 2.201928e+002
         vertex 1.024421e+002 7.974522e+001 2.213085e+002
         vertex 1.024395e+002 7.954889e+001 2.213110e+002
      endloop
   endfacet
   facet normal 2.784119e-001 1.291529e-001 -9.517386e-001
      outer loop
         vertex 9.859912e+001 7.958716e+001 2.201928e+002
         vertex 1.024395e+002 7.954889e+001 2.213110e+002
         vertex 9.860602e+001 7.939327e+001 2.201624e+002
      endloop
   endfacet
   facet normal 2.763654e-001 1.867188e-001 -9.427397e-001
      outer loop
         vertex 9.860602e+001 7.939327e+001 2.201624e+002
         vertex 1.024395e+002 7.954889e+001 2.213110e+002
         vertex 1.024464e+002 7.935500e+001 2.212807e+002
      endloop
   endfacet
   facet normal 2.694941e-001 2.993766e-001 -9.152850e-001
      outer loop
         vertex 9.860602e+001 7.939327e+001 2.201624e+002
         vertex 1.024464e+002 7.935500e+001 2.212807e+002
         vertex 9.862227e+001 7.920773e+001 2.201003e+002
      endloop
   endfacet
   facet normal 2.646692e-001 3.544683e-001 -8.968291e-001
      outer loop
         vertex 9.862227e+001 7.920773e+001 2.201003e+002
         vertex 1.024464e+002 7.935500e+001 2.212807e+002
         vertex 1.024626e+002 7.916945e+001 2.212185e+002
      endloop
   endfacet
   facet normal 2.523877e-001 4.605038e-001 -8.510209e-001
      outer loop
         vertex 9.862227e+001 7.920773e+001 2.201003e+002
         vertex 1.024626e+002 7.916945e+001 2.212185e+002
         vertex 9.864738e+001 7.903614e+001 2.200082e+002
      endloop
   endfacet
   facet normal 2.449311e-001 5.114475e-001 -8.236687e-001
      outer loop
         vertex 9.864738e+001 7.903614e+001 2.200082e+002
         vertex 1.024626e+002 7.916945e+001 2.212185e+002
         vertex 1.024877e+002 7.899786e+001 2.211264e+002
      endloop
   endfacet
   facet normal 2.276127e-001 6.076390e-001 -7.608991e-001
      outer loop
         vertex 9.864738e+001 7.903614e+001 2.200082e+002
         vertex 1.024877e+002 7.899786e+001 2.211264e+002
         vertex 9.868060e+001 7.888374e+001 2.198889e+002
      endloop
   endfacet
   facet normal 2.177510e-001 6.528866e-001 -7.254816e-001
      outer loop
         vertex 9.868060e+001 7.888374e+001 2.198889e+002
         vertex 1.024877e+002 7.899786e+001 2.211264e+002
         vertex 1.025209e+002 7.884547e+001 2.210071e+002
      endloop
   endfacet
   facet normal 1.959218e-001 7.363113e-001 -6.476576e-001
      outer loop
         vertex 9.868060e+001 7.888374e+001 2.198889e+002
         vertex 1.025209e+002 7.884547e+001 2.210071e+002
         vertex 9.872090e+001 7.875517e+001 2.197460e+002
      endloop
   endfacet
   facet normal 1.839545e-001 7.744881e-001 -6.052511e-001
      outer loop
         vertex 9.872090e+001 7.875517e+001 2.197460e+002
         vertex 1.025209e+002 7.884547e+001 2.210071e+002
         vertex 1.025612e+002 7.871689e+001 2.208643e+002
      endloop
   endfacet
   facet normal 1.582780e-001 8.426111e-001 -5.147375e-001
      outer loop
         vertex 9.872090e+001 7.875517e+001 2.197460e+002
         vertex 1.025612e+002 7.871689e+001 2.208643e+002
         vertex 9.876708e+001 7.865430e+001 2.195840e+002
      endloop
   endfacet
   facet normal 1.445687e-001 8.725572e-001 -4.666304e-001
      outer loop
         vertex 9.876708e+001 7.865430e+001 2.195840e+002
         vertex 1.025612e+002 7.871689e+001 2.208643e+002
         vertex 1.026074e+002 7.861602e+001 2.207022e+002
      endloop
   endfacet
   facet normal 1.158249e-001 9.233086e-001 -3.661773e-001
      outer loop
         vertex 9.876708e+001 7.865430e+001 2.195840e+002
         vertex 1.026074e+002 7.861602e+001 2.207022e+002
         vertex 9.881771e+001 7.858422e+001 2.194077e+002
      endloop
   endfacet
   facet normal 1.007903e-001 9.441140e-001 -3.138313e-001
      outer loop
         vertex 9.881771e+001 7.858422e+001 2.194077e+002
         vertex 1.026074e+002 7.861602e+001 2.207022e+002
         vertex 1.026580e+002 7.854595e+001 2.205259e+002
      endloop
   endfacet
   facet normal 6.985253e-002 9.759519e-001 -2.064909e-001
      outer loop
         vertex 9.881771e+001 7.858422e+001 2.194077e+002
         vertex 1.026580e+002 7.854595e+001 2.205259e+002
         vertex 9.887128e+001 7.854707e+001 2.192225e+002
      endloop
   endfacet
   facet normal 5.394939e-002 9.869844e-001 -1.514966e-001
      outer loop
         vertex 9.887128e+001 7.854707e+001 2.192225e+002
         vertex 1.026580e+002 7.854595e+001 2.205259e+002
         vertex 1.027116e+002 7.850880e+001 2.203407e+002
      endloop
   endfacet
   facet normal 2.175774e-002 9.989414e-001 -4.053048e-002
      outer loop
         vertex 9.887128e+001 7.854707e+001 2.192225e+002
         vertex 1.027116e+002 7.850880e+001 2.203407e+002
         vertex 9.892614e+001 7.854395e+001 2.190340e+002
      endloop
   endfacet
   facet normal 5.469252e-003 9.998658e-001 1.544127e-002
      outer loop
         vertex 9.892614e+001 7.854395e+001 2.190340e+002
         vertex 1.027116e+002 7.850880e+001 2.203407e+002
         vertex 1.027665e+002 7.850568e+001 2.201522e+002
      endloop
   endfacet
   facet normal -2.699815e-002 9.915785e-001 1.266615e-001
      outer loop
         vertex 9.892614e+001 7.854395e+001 2.190340e+002
         vertex 1.027665e+002 7.850568e+001 2.201522e+002
         vertex 9.898063e+001 7.857497e+001 2.188479e+002
      endloop
   endfacet
   facet normal -4.317706e-002 9.823668e-001 1.819099e-001
      outer loop
         vertex 9.898063e+001 7.857497e+001 2.188479e+002
         vertex 1.027665e+002 7.850568e+001 2.201522e+002
         vertex 1.028210e+002 7.853671e+001 2.199661e+002
      endloop
   endfacet
   facet normal -7.493372e-002 9.540871e-001 2.900049e-001
      outer loop
         vertex 9.898063e+001 7.857497e+001 2.188479e+002
         vertex 1.028210e+002 7.853671e+001 2.199661e+002
         vertex 9.903310e+001 7.863920e+001 2.186699e+002
      endloop
   endfacet
   facet normal -9.051146e-002 9.350191e-001 3.428513e-001
      outer loop
         vertex 9.903310e+001 7.863920e+001 2.186699e+002
         vertex 1.028210e+002 7.853671e+001 2.199661e+002
         vertex 1.028734e+002 7.860093e+001 2.197881e+002
      endloop
   endfacet
   facet normal -1.205925e-001 8.876061e-001 4.445366e-001
      outer loop
         vertex 9.903310e+001 7.863920e+001 2.186699e+002
         vertex 1.028734e+002 7.860093e+001 2.197881e+002
         vertex 9.908195e+001 7.873467e+001 2.185054e+002
      endloop
   endfacet
   facet normal -1.350957e-001 8.592612e-001 4.933754e-001
      outer loop
         vertex 9.908195e+001 7.873467e+001 2.185054e+002
         vertex 1.028734e+002 7.860093e+001 2.197881e+002
         vertex 1.029223e+002 7.869640e+001 2.196236e+002
      endloop
   endfacet
   facet normal -1.625871e-001 7.941557e-001 5.855613e-001
      outer loop
         vertex 9.908195e+001 7.873467e+001 2.185054e+002
         vertex 1.029223e+002 7.869640e+001 2.196236e+002
         vertex 9.912569e+001 7.885849e+001 2.183594e+002
      endloop
   endfacet
   facet normal -1.755751e-001 7.573952e-001 6.289085e-001
      outer loop
         vertex 9.912569e+001 7.885849e+001 2.183594e+002
         vertex 1.029223e+002 7.869640e+001 2.196236e+002
         vertex 1.029660e+002 7.882021e+001 2.194776e+002
      endloop
   endfacet
   facet normal -1.996415e-001 6.765754e-001 7.087941e-001
      outer loop
         vertex 9.912569e+001 7.885849e+001 2.183594e+002
         vertex 1.029660e+002 7.882021e+001 2.194776e+002
         vertex 9.916300e+001 7.900688e+001 2.182364e+002
      endloop
   endfacet
   facet normal -2.107198e-001 6.325161e-001 7.453325e-001
      outer loop
         vertex 9.916300e+001 7.900688e+001 2.182364e+002
         vertex 1.029660e+002 7.882021e+001 2.194776e+002
         vertex 1.030033e+002 7.896861e+001 2.193546e+002
      endloop
   endfacet
   facet normal -2.306300e-001 5.384375e-001 8.104905e-001
      outer loop
         vertex 9.916300e+001 7.900688e+001 2.182364e+002
         vertex 1.030033e+002 7.896861e+001 2.193546e+002
         vertex 9.919275e+001 7.917535e+001 2.181400e+002
      endloop
   endfacet
   facet normal -2.394619e-001 4.884183e-001 8.391100e-001
      outer loop
         vertex 9.919275e+001 7.917535e+001 2.181400e+002
         vertex 1.030033e+002 7.896861e+001 2.193546e+002
         vertex 1.030331e+002 7.913707e+001 2.192582e+002
      endloop
   endfacet
   facet normal -2.546109e-001 3.839396e-001 8.875605e-001
      outer loop
         vertex 9.919275e+001 7.917535e+001 2.181400e+002
         vertex 1.030331e+002 7.913707e+001 2.192582e+002
         vertex 9.921403e+001 7.935877e+001 2.180732e+002
      endloop
   endfacet
   facet normal -2.609280e-001 3.294802e-001 9.073915e-001
      outer loop
         vertex 9.921403e+001 7.935877e+001 2.180732e+002
         vertex 1.030331e+002 7.913707e+001 2.192582e+002
         vertex 1.030544e+002 7.932050e+001 2.191914e+002
      endloop
   endfacet
   facet normal -2.708555e-001 2.177758e-001 9.376625e-001
      outer loop
         vertex 9.921403e+001 7.935877e+001 2.180732e+002
         vertex 1.030544e+002 7.932050e+001 2.191914e+002
         vertex 9.922618e+001 7.955157e+001 2.180380e+002
      endloop
   endfacet
   facet normal -2.744660e-001 1.605310e-001 9.481024e-001
      outer loop
         vertex 9.922618e+001 7.955157e+001 2.180380e+002
         vertex 1.030544e+002 7.932050e+001 2.191914e+002
         vertex 1.030665e+002 7.951330e+001 2.191562e+002
      endloop
   endfacet
   facet normal -2.788704e-001 4.499506e-002 9.592741e-001
      outer loop
         vertex 9.922618e+001 7.955157e+001 2.180380e+002
         vertex 1.030665e+002 7.951330e+001 2.191562e+002
         vertex 9.922886e+001 7.974790e+001 2.180356e+002
      endloop
   endfacet
   facet normal -2.796644e-001 -1.329593e-002 9.600058e-001
      outer loop
         vertex 9.922886e+001 7.974790e+001 2.180356e+002
         vertex 1.030665e+002 7.951330e+001 2.191562e+002
         vertex 1.030692e+002 7.970963e+001 2.191538e+002
      endloop
   endfacet
endsolid